<svg width="559" height="559" viewBox="0 0 559 559" fill="none" xmlns="http://www.w3.org/2000/svg">
<path d="M404.138 313.62C409.725 292.945 410.151 271.214 405.38 250.336C400.609 229.458 390.786 210.07 376.773 193.874C362.761 177.678 344.987 165.169 325.012 157.445C305.037 149.721 283.471 147.018 262.207 149.573L267.053 189.898C281.717 188.136 296.589 190 310.363 195.326C324.138 200.653 336.395 209.279 346.058 220.448C355.721 231.617 362.495 244.987 365.786 259.384C369.076 273.782 368.782 288.767 364.929 303.025L404.138 313.62Z" fill="#F1C9E1"/>
<path d="M305.05 181.374L304.855 182.551L299.448 181.659L301.006 172.213L302.407 172.444L301.043 180.713L305.05 181.374Z" fill="#740C4A"/>
<path d="M313.506 184.143L313.189 185.252L307.473 183.658L310.046 174.436L315.762 176.03L315.452 177.141L311.11 175.93L310.295 178.852L313.789 179.827L313.49 180.899L309.996 179.925L309.158 182.93L313.506 184.143Z" fill="#740C4A"/>
<path d="M322.927 185.231L322.975 181.255C322.973 180.982 322.996 180.647 323.043 180.249C322.927 180.409 322.814 180.556 322.704 180.689C322.598 180.824 322.499 180.942 322.406 181.044L319.729 183.964L322.927 185.231ZM324.223 189.581L323.207 189.178C323.091 189.132 323.007 189.066 322.956 188.979C322.904 188.891 322.88 188.796 322.883 188.692L322.914 186.315L318.99 184.761L317.385 186.513C317.325 186.58 317.242 186.632 317.138 186.667C317.035 186.697 316.927 186.691 316.816 186.647L315.799 186.244L322.871 178.747L324.204 179.275L324.223 189.581Z" fill="#740C4A"/>
<path d="M336.723 190.013C336.392 190.647 335.988 191.171 335.512 191.584C335.039 191.999 334.52 192.297 333.954 192.478C333.39 192.655 332.797 192.712 332.174 192.647C331.551 192.582 330.924 192.385 330.294 192.056L327.102 190.39L331.533 181.903L334.725 183.569C335.355 183.898 335.875 184.3 336.284 184.774C336.694 185.249 336.986 185.77 337.161 186.338C337.338 186.901 337.39 187.498 337.317 188.127C337.25 188.754 337.052 189.382 336.723 190.013ZM335.435 189.34C335.698 188.836 335.865 188.349 335.935 187.879C336.007 187.405 335.987 186.963 335.874 186.554C335.768 186.142 335.572 185.769 335.286 185.434C335.003 185.101 334.639 184.818 334.194 184.586L332.267 183.58L328.898 190.034L330.824 191.04C331.27 191.272 331.709 191.409 332.144 191.451C332.583 191.494 333 191.444 333.396 191.3C333.799 191.153 334.173 190.918 334.518 190.592C334.864 190.266 335.169 189.848 335.435 189.34Z" fill="#740C4A"/>
<path d="M352.806 201.354L349.82 203.595C349.252 203.416 348.735 203.16 348.268 202.826C347.805 202.491 347.379 202.065 346.993 201.549C346.528 200.931 346.204 200.299 346.02 199.654C345.838 199.012 345.788 198.385 345.868 197.775C345.949 197.164 346.157 196.582 346.493 196.03C346.832 195.482 347.289 194.991 347.865 194.559C348.444 194.124 349.042 193.817 349.658 193.638C350.28 193.46 350.89 193.414 351.488 193.499C352.089 193.581 352.665 193.794 353.216 194.136C353.774 194.479 354.279 194.952 354.733 195.557C354.962 195.862 355.151 196.162 355.3 196.457C355.451 196.754 355.568 197.047 355.651 197.335C355.734 197.623 355.785 197.907 355.806 198.186C355.832 198.466 355.833 198.744 355.806 199.019L355.05 199.078C354.931 199.09 354.83 199.063 354.747 198.997C354.665 198.931 354.617 198.828 354.606 198.686C354.59 198.554 354.575 198.404 354.56 198.237C354.549 198.073 354.514 197.891 354.457 197.689C354.403 197.491 354.32 197.273 354.208 197.034C354.096 196.796 353.934 196.537 353.723 196.256C353.409 195.836 353.055 195.51 352.663 195.276C352.274 195.04 351.863 194.899 351.428 194.852C350.993 194.806 350.547 194.855 350.088 195C349.633 195.141 349.181 195.38 348.733 195.716C348.264 196.068 347.894 196.452 347.622 196.867C347.353 197.28 347.181 197.706 347.106 198.146C347.037 198.587 347.067 199.034 347.196 199.488C347.328 199.945 347.558 200.392 347.886 200.829C348.014 201 348.141 201.151 348.269 201.284C348.402 201.417 348.537 201.538 348.674 201.646C348.811 201.755 348.953 201.851 349.1 201.935C349.249 202.023 349.402 202.106 349.56 202.182L351.165 200.977L350.316 199.847C350.263 199.776 350.24 199.701 350.248 199.623C350.259 199.548 350.296 199.487 350.36 199.439L351.005 198.954L352.806 201.354Z" fill="#740C4A"/>
<path d="M358.371 210.802L357.528 211.59L353.451 207.278L360.407 200.7L364.484 205.011L363.646 205.804L360.549 202.529L358.345 204.614L360.837 207.249L360.028 208.014L357.536 205.379L355.269 207.523L358.371 210.802Z" fill="#740C4A"/>
<path d="M372.589 215.113L364.892 220.807L364.463 220.228C364.397 220.138 364.358 220.051 364.345 219.967C364.335 219.886 364.343 219.789 364.37 219.675L366.777 211.168C366.686 211.247 366.595 211.322 366.505 211.395C366.417 211.471 366.332 211.539 366.25 211.6L360.97 215.505L360.229 214.503L367.926 208.809L368.362 209.399C368.436 209.499 368.479 209.583 368.491 209.652C368.507 209.717 368.496 209.811 368.459 209.933L366.054 218.454C366.15 218.367 366.243 218.284 366.334 218.205C366.432 218.128 366.523 218.057 366.609 217.994L371.851 214.116L372.589 215.113Z" fill="#740C4A"/>
<path d="M371.111 228.204L370.135 228.82L366.939 223.819L375.007 218.663L378.203 223.663L377.231 224.285L374.803 220.487L372.247 222.121L374.201 225.177L373.262 225.776L371.309 222.72L368.68 224.401L371.111 228.204Z" fill="#740C4A"/>
<path d="M377.621 232.65C377.769 232.983 377.94 233.258 378.133 233.473C378.328 233.693 378.537 233.856 378.759 233.961C378.985 234.065 379.219 234.114 379.46 234.109C379.705 234.102 379.951 234.044 380.199 233.934C380.702 233.71 381.008 233.374 381.116 232.928C381.225 232.485 381.133 231.932 380.838 231.27L380.294 230.046L377.095 231.468L377.621 232.65ZM374.904 238.748L374.389 237.59C374.286 237.359 374.303 237.15 374.438 236.963L376.51 233.451C376.581 233.337 376.619 233.23 376.623 233.131C376.632 233.029 376.6 232.898 376.528 232.735L376.151 231.888L372.563 233.484L371.986 232.187L380.734 228.296L381.856 230.818C382.107 231.382 382.264 231.894 382.327 232.352C382.395 232.813 382.381 233.223 382.283 233.583C382.191 233.945 382.023 234.256 381.778 234.516C381.536 234.779 381.227 234.994 380.854 235.16C380.549 235.296 380.242 235.376 379.932 235.402C379.623 235.428 379.32 235.397 379.023 235.31C378.733 235.226 378.452 235.088 378.182 234.896C377.912 234.705 377.664 234.463 377.436 234.17C377.411 234.376 377.337 234.577 377.215 234.772L374.904 238.748Z" fill="#740C4A"/>
<path d="M382.15 245.177L385.213 242.642C385.421 242.464 385.691 242.264 386.025 242.044C385.828 242.059 385.643 242.067 385.47 242.069C385.299 242.076 385.144 242.076 385.006 242.071L381.048 241.917L382.15 245.177ZM379.67 248.978L379.32 247.942C379.28 247.824 379.277 247.718 379.31 247.622C379.343 247.526 379.401 247.446 379.482 247.381L381.314 245.867L379.962 241.869L377.588 241.778C377.498 241.776 377.405 241.746 377.311 241.689C377.221 241.63 377.156 241.544 377.118 241.43L376.768 240.394L387.059 240.941L387.518 242.299L379.67 248.978Z" fill="#740C4A"/>
<path d="M389.842 256.833L389.203 253.861L381.003 255.624L380.706 254.242L388.906 252.479L388.264 249.493L389.424 249.244L391.002 256.583L389.842 256.833Z" fill="#740C4A"/>
<path d="M381.995 263.036L381.854 261.616L391.382 260.674L391.523 262.094L381.995 263.036Z" fill="#740C4A"/>
<path d="M387.775 276.255C387.06 276.284 386.398 276.195 385.789 275.989C385.185 275.786 384.657 275.485 384.204 275.085C383.757 274.685 383.401 274.199 383.138 273.627C382.874 273.055 382.728 272.414 382.699 271.703C382.671 270.997 382.765 270.346 382.981 269.75C383.197 269.158 383.512 268.645 383.926 268.21C384.344 267.78 384.847 267.437 385.432 267.182C386.023 266.926 386.675 266.784 387.39 266.755C388.101 266.727 388.761 266.816 389.37 267.022C389.978 267.229 390.507 267.53 390.954 267.926C391.406 268.325 391.764 268.811 392.028 269.383C392.296 269.96 392.444 270.601 392.473 271.307C392.501 272.018 392.405 272.669 392.185 273.261C391.968 273.852 391.651 274.366 391.233 274.801C390.819 275.236 390.317 275.579 389.726 275.829C389.136 276.085 388.486 276.227 387.775 276.255ZM387.716 274.803C388.285 274.78 388.792 274.682 389.239 274.508C389.686 274.334 390.061 274.096 390.365 273.795C390.668 273.498 390.896 273.142 391.049 272.726C391.201 272.315 391.267 271.859 391.247 271.357C391.226 270.855 391.124 270.403 390.938 270.001C390.753 269.604 390.497 269.268 390.17 268.992C389.843 268.716 389.45 268.509 388.991 268.372C388.531 268.235 388.017 268.178 387.449 268.201C386.876 268.224 386.366 268.323 385.919 268.497C385.477 268.67 385.104 268.908 384.8 269.209C384.497 269.511 384.269 269.867 384.116 270.278C383.969 270.693 383.905 271.152 383.925 271.654C383.946 272.155 384.046 272.605 384.227 273.003C384.412 273.404 384.668 273.741 384.995 274.012C385.322 274.288 385.713 274.495 386.168 274.632C386.627 274.769 387.143 274.826 387.716 274.803Z" fill="#740C4A"/>
<path d="M392.224 288.233L382.679 287.485L382.735 286.768C382.744 286.657 382.771 286.565 382.817 286.493C382.863 286.425 382.933 286.357 383.027 286.289L390.422 281.444C390.302 281.444 390.184 281.441 390.068 281.437C389.952 281.436 389.843 281.432 389.742 281.424L383.194 280.911L383.292 279.668L392.837 280.416L392.779 281.147C392.77 281.271 392.747 281.363 392.711 281.423C392.68 281.483 392.61 281.546 392.502 281.614L385.099 286.471C385.229 286.468 385.354 286.467 385.474 286.467C385.599 286.472 385.714 286.479 385.82 286.488L392.321 286.997L392.224 288.233Z" fill="#740C4A"/>
<path d="M174.263 360.275C188.632 378.925 207.766 393.354 229.65 402.038C251.533 410.723 275.354 413.343 298.602 409.621C321.85 405.899 343.663 395.974 361.741 380.891C379.819 365.809 393.493 346.128 401.321 323.924L363.017 310.42C357.619 325.732 348.189 339.304 335.722 349.705C323.255 360.106 308.213 366.95 292.182 369.517C276.15 372.083 259.723 370.277 244.632 364.288C229.541 358.299 216.346 348.349 206.437 335.487L174.263 360.275Z" fill="#F1C9E1"/>
<path d="M327.299 374.556C327.225 374.586 327.149 374.582 327.072 374.545L326.326 374.18C326.521 373.607 326.834 373.098 327.266 372.656C327.694 372.214 328.276 371.849 329.012 371.559C329.657 371.304 330.287 371.185 330.9 371.201C331.509 371.219 332.079 371.355 332.609 371.61C333.135 371.865 333.61 372.233 334.032 372.711C334.455 373.189 334.798 373.763 335.063 374.433C335.327 375.103 335.464 375.759 335.473 376.4C335.478 377.043 335.367 377.641 335.141 378.194C334.914 378.747 334.579 379.24 334.133 379.673C333.684 380.109 333.134 380.454 332.485 380.71C331.853 380.96 331.249 381.078 330.676 381.066C330.102 381.053 329.566 380.947 329.067 380.747L329.259 379.962C329.27 379.905 329.292 379.853 329.326 379.806C329.356 379.761 329.406 379.724 329.477 379.697C329.555 379.666 329.664 379.668 329.802 379.704C329.936 379.742 330.109 379.774 330.32 379.801C330.529 379.833 330.775 379.839 331.058 379.818C331.341 379.797 331.671 379.713 332.048 379.564C332.49 379.39 332.864 379.151 333.17 378.849C333.478 378.551 333.708 378.202 333.861 377.803C334.012 377.409 334.078 376.97 334.058 376.485C334.037 376.006 333.921 375.5 333.71 374.966C333.497 374.425 333.23 373.973 332.911 373.612C332.592 373.25 332.24 372.976 331.855 372.788C331.471 372.601 331.066 372.502 330.642 372.493C330.218 372.483 329.795 372.562 329.373 372.728C329.117 372.829 328.893 372.934 328.702 373.043C328.508 373.157 328.339 373.279 328.194 373.408C328.044 373.539 327.912 373.682 327.797 373.837C327.683 373.997 327.578 374.174 327.483 374.369C327.461 374.411 327.435 374.448 327.405 374.479C327.376 374.514 327.34 374.54 327.299 374.556Z" fill="#740C4A"/>
<path d="M315.385 381.982C315.162 381.302 315.066 380.641 315.099 379.998C315.129 379.362 315.275 378.771 315.536 378.227C315.799 377.688 316.169 377.213 316.648 376.803C317.126 376.394 317.704 376.078 318.379 375.857C319.051 375.637 319.703 375.549 320.335 375.594C320.963 375.641 321.543 375.804 322.074 376.084C322.603 376.369 323.07 376.758 323.475 377.252C323.881 377.751 324.196 378.34 324.419 379.02C324.641 379.696 324.735 380.355 324.702 380.997C324.67 381.639 324.524 382.229 324.266 382.768C324.004 383.312 323.634 383.789 323.156 384.198C322.675 384.613 322.098 384.931 321.427 385.151C320.751 385.373 320.098 385.458 319.469 385.407C318.841 385.36 318.26 385.195 317.727 384.911C317.196 384.632 316.729 384.242 316.327 383.743C315.92 383.245 315.606 382.658 315.385 381.982ZM316.766 381.529C316.943 382.07 317.176 382.531 317.465 382.913C317.754 383.296 318.085 383.592 318.458 383.802C318.827 384.013 319.232 384.135 319.673 384.168C320.11 384.203 320.567 384.142 321.044 383.985C321.522 383.829 321.928 383.607 322.264 383.319C322.596 383.032 322.85 382.694 323.026 382.304C323.202 381.914 323.294 381.48 323.3 381C323.307 380.521 323.222 380.011 323.044 379.47C322.866 378.926 322.632 378.462 322.343 378.08C322.055 377.702 321.725 377.408 321.352 377.198C320.979 376.988 320.574 376.866 320.137 376.831C319.697 376.802 319.239 376.866 318.762 377.023C318.284 377.179 317.879 377.398 317.546 377.681C317.21 377.969 316.956 378.307 316.784 378.695C316.608 379.085 316.516 379.518 316.508 379.993C316.501 380.472 316.587 380.984 316.766 381.529Z" fill="#740C4A"/>
<path d="M304.638 390.05L302.958 380.624L303.667 380.497C303.776 380.478 303.872 380.481 303.953 380.507C304.03 380.534 304.114 380.585 304.204 380.659L310.754 386.596C310.725 386.48 310.697 386.365 310.673 386.252C310.644 386.14 310.62 386.033 310.602 385.932L309.45 379.467L310.677 379.248L312.357 388.674L311.635 388.803C311.513 388.825 311.418 388.826 311.351 388.806C311.285 388.791 311.206 388.739 311.114 388.652L304.549 382.711C304.585 382.835 304.618 382.956 304.647 383.072C304.674 383.194 304.696 383.308 304.715 383.413L305.859 389.832L304.638 390.05Z" fill="#740C4A"/>
<path d="M292.562 390.301L295.599 390.142L295.159 381.766L296.57 381.691L297.01 390.068L300.06 389.907L300.122 391.093L292.625 391.486L292.562 390.301Z" fill="#740C4A"/>
<path d="M282.313 383.029L282.372 381.877L288.3 382.148L287.863 391.712L281.935 391.442L281.988 390.29L286.49 390.495L286.629 387.465L283.005 387.299L283.056 386.187L286.679 386.352L286.822 383.235L282.313 383.029Z" fill="#740C4A"/>
<path d="M267.892 389.915L269.713 380.516L270.42 380.653C270.529 380.674 270.617 380.711 270.684 380.765C270.746 380.818 270.806 380.895 270.863 380.997L274.841 388.891C274.855 388.772 274.871 388.655 274.889 388.541C274.902 388.426 274.918 388.318 274.938 388.217L276.187 381.77L277.411 382.007L275.59 391.407L274.87 391.267C274.748 391.244 274.659 391.211 274.604 391.168C274.548 391.13 274.492 391.054 274.438 390.939L270.448 383.035C270.436 383.164 270.423 383.288 270.409 383.408C270.39 383.531 270.37 383.645 270.35 383.75L269.11 390.151L267.892 389.915Z" fill="#740C4A"/>
<path d="M256.064 385.74L258.999 386.533L261.187 378.436L262.551 378.805L260.363 386.902L263.311 387.699L263.002 388.844L255.754 386.886L256.064 385.74Z" fill="#740C4A"/>
<path d="M250.84 151.45C229.987 155.844 210.523 165.265 194.14 178.893C177.757 192.522 164.95 209.946 156.833 229.65C148.717 249.355 145.536 270.744 147.567 291.957C149.598 313.171 156.779 333.568 168.487 351.374L202.424 329.06C194.35 316.781 189.397 302.715 187.997 288.086C186.596 273.457 188.79 258.708 194.387 245.119C199.985 231.531 208.816 219.515 220.114 210.117C231.412 200.719 244.834 194.222 259.214 191.192L250.84 151.45Z" fill="#F1C9E1"/>
<path d="M175.877 287.594C175.871 287.514 175.897 287.443 175.955 287.381L176.528 286.779C177.017 287.137 177.407 287.588 177.7 288.133C177.992 288.674 178.166 289.339 178.222 290.128C178.271 290.82 178.195 291.456 177.996 292.036C177.796 292.612 177.495 293.114 177.093 293.544C176.691 293.969 176.198 294.311 175.615 294.571C175.032 294.83 174.381 294.985 173.663 295.036C172.945 295.087 172.278 295.02 171.664 294.837C171.049 294.648 170.512 294.363 170.052 293.981C169.593 293.6 169.224 293.131 168.944 292.576C168.663 292.017 168.499 291.389 168.45 290.693C168.402 290.014 168.47 289.403 168.654 288.86C168.838 288.317 169.101 287.837 169.441 287.421L170.133 287.84C170.184 287.867 170.226 287.904 170.261 287.951C170.295 287.993 170.315 288.052 170.32 288.127C170.326 288.212 170.291 288.314 170.215 288.436C170.138 288.552 170.056 288.707 169.967 288.901C169.874 289.09 169.794 289.323 169.729 289.6C169.664 289.876 169.646 290.216 169.674 290.619C169.708 291.094 169.823 291.522 170.019 291.905C170.211 292.288 170.475 292.613 170.81 292.878C171.14 293.14 171.54 293.335 172.008 293.462C172.471 293.585 172.988 293.627 173.56 293.586C174.141 293.545 174.652 293.427 175.093 293.231C175.533 293.035 175.901 292.781 176.195 292.471C176.49 292.16 176.705 291.804 176.842 291.402C176.978 291.001 177.03 290.574 176.998 290.121C176.979 289.846 176.946 289.601 176.899 289.386C176.848 289.167 176.783 288.969 176.704 288.792C176.624 288.611 176.527 288.441 176.414 288.284C176.296 288.128 176.158 287.975 176 287.826C175.967 287.793 175.94 287.757 175.919 287.718C175.894 287.68 175.88 287.638 175.877 287.594Z" fill="#740C4A"/>
<path d="M174.105 277.695L170.408 279.159C170.156 279.264 169.837 279.37 169.452 279.477C169.643 279.524 169.822 279.573 169.987 279.624C170.152 279.671 170.299 279.718 170.429 279.765L174.145 281.135L174.105 277.695ZM177.639 274.846L177.651 275.939C177.653 276.064 177.623 276.167 177.562 276.247C177.5 276.328 177.421 276.387 177.324 276.423L175.114 277.296L175.163 281.517L177.394 282.337C177.478 282.367 177.557 282.424 177.629 282.508C177.697 282.591 177.731 282.693 177.733 282.813L177.745 283.907L168.127 280.206L168.11 278.773L177.639 274.846Z" fill="#740C4A"/>
<path d="M169.144 260.484L178.639 261.713L178.48 262.943L171.722 262.068C171.621 262.055 171.513 262.039 171.399 262.02C171.285 261.996 171.17 261.972 171.052 261.948L176.442 265.859C176.644 265.997 176.73 266.181 176.7 266.41L176.675 266.608C176.645 266.838 176.515 266.991 176.286 267.069L170.05 269.536C170.3 269.542 170.534 269.559 170.75 269.587L177.507 270.461L177.347 271.697L167.852 270.469L167.987 269.424C168.003 269.301 168.029 269.208 168.064 269.145C168.095 269.077 168.17 269.02 168.288 268.972L174.385 266.534C174.508 266.487 174.636 266.446 174.771 266.409C174.906 266.373 175.04 266.339 175.174 266.307C174.926 266.18 174.689 266.04 174.462 265.885L169.185 262.036C169.082 261.964 169.024 261.894 169.011 261.825C168.993 261.751 168.993 261.653 169.009 261.529L169.144 260.484Z" fill="#740C4A"/>
<path d="M174.895 252.542C174.985 252.193 175.018 251.876 174.996 251.59C174.974 251.3 174.904 251.045 174.786 250.827C174.665 250.602 174.502 250.416 174.297 250.267C174.088 250.116 173.844 250.005 173.564 249.933C173 249.787 172.511 249.849 172.097 250.119C171.685 250.384 171.386 250.874 171.202 251.589L170.832 253.022L174.525 253.975L174.895 252.542ZM170.124 251.31C170.277 250.716 170.479 250.218 170.73 249.814C170.981 249.411 171.271 249.098 171.599 248.875C171.923 248.651 172.282 248.516 172.674 248.471C173.068 248.421 173.482 248.452 173.917 248.564C174.352 248.676 174.733 248.855 175.06 249.1C175.382 249.344 175.637 249.646 175.824 250.006C176.011 250.367 176.121 250.785 176.154 251.262C176.184 251.734 176.126 252.253 175.979 252.821L175.609 254.255L179.024 255.136L178.67 256.511L169.399 254.119L170.124 251.31Z" fill="#740C4A"/>
<path d="M179.079 240.617L175.103 240.676C174.83 240.685 174.495 240.671 174.096 240.634C174.259 240.745 174.408 240.855 174.545 240.961C174.682 241.064 174.803 241.16 174.908 241.25L177.897 243.849L179.079 240.617ZM183.393 239.206L183.018 240.233C182.975 240.35 182.911 240.436 182.825 240.489C182.739 240.543 182.644 240.57 182.54 240.57L180.164 240.602L178.714 244.566L180.508 246.124C180.577 246.182 180.63 246.263 180.668 246.367C180.702 246.469 180.698 246.577 180.657 246.689L180.281 247.716L172.599 240.846L173.091 239.5L183.393 239.206Z" fill="#740C4A"/>
<path d="M185.593 233.855L184.968 235.137L176.363 230.939L176.989 229.656L185.593 233.855Z" fill="#740C4A"/>
<path d="M188.631 220.577L191.91 222.363C191.982 222.955 191.964 223.532 191.855 224.095C191.741 224.656 191.531 225.219 191.222 225.785C190.852 226.464 190.412 227.022 189.901 227.457C189.393 227.889 188.844 228.195 188.255 228.375C187.666 228.555 187.05 228.607 186.408 228.531C185.769 228.45 185.133 228.238 184.501 227.894C183.864 227.547 183.337 227.131 182.918 226.644C182.498 226.152 182.203 225.617 182.032 225.038C181.858 224.457 181.812 223.845 181.894 223.201C181.975 222.551 182.196 221.895 182.557 221.231C182.74 220.896 182.935 220.599 183.141 220.342C183.349 220.081 183.567 219.853 183.794 219.658C184.022 219.463 184.258 219.298 184.504 219.164C184.747 219.023 185 218.908 185.262 218.817L185.629 219.481C185.689 219.584 185.707 219.687 185.681 219.79C185.656 219.892 185.581 219.978 185.457 220.048C185.343 220.117 185.213 220.193 185.067 220.275C184.923 220.354 184.771 220.461 184.611 220.597C184.454 220.728 184.29 220.895 184.119 221.095C183.949 221.296 183.78 221.551 183.612 221.859C183.361 222.32 183.211 222.777 183.161 223.231C183.107 223.682 183.15 224.115 183.288 224.53C183.427 224.945 183.657 225.331 183.979 225.688C184.296 226.043 184.701 226.355 185.193 226.623C185.708 226.904 186.211 227.082 186.702 227.157C187.188 227.229 187.647 227.209 188.079 227.095C188.509 226.975 188.903 226.762 189.262 226.456C189.623 226.147 189.935 225.752 190.196 225.272C190.298 225.084 190.383 224.905 190.451 224.735C190.517 224.558 190.571 224.385 190.612 224.215C190.654 224.046 190.683 223.877 190.699 223.708C190.717 223.536 190.728 223.362 190.732 223.187L188.97 222.227L188.293 223.468C188.251 223.546 188.192 223.598 188.118 223.623C188.046 223.645 187.974 223.636 187.904 223.598L187.196 223.212L188.631 220.577Z" fill="#740C4A"/>
<path d="M193.217 207.94L200.75 213.85L200.305 214.417C200.236 214.504 200.163 214.565 200.085 214.6C200.01 214.631 199.914 214.649 199.797 214.654L190.957 214.59C191.056 214.657 191.153 214.725 191.247 214.792C191.343 214.857 191.432 214.92 191.512 214.984L196.679 219.038L195.909 220.019L188.377 214.108L188.83 213.531C188.906 213.433 188.976 213.369 189.039 213.34C189.099 213.307 189.192 213.293 189.319 213.296L198.173 213.354C198.063 213.285 197.958 213.217 197.859 213.15C197.758 213.076 197.666 213.007 197.582 212.941L192.452 208.915L193.217 207.94Z" fill="#740C4A"/>
<path d="M200.877 201.233C200.899 201.318 200.905 201.39 200.896 201.45C200.887 201.51 200.855 201.566 200.802 201.62C200.745 201.676 200.656 201.716 200.533 201.738C200.407 201.757 200.258 201.79 200.085 201.837C199.913 201.878 199.726 201.949 199.524 202.05C199.32 202.147 199.113 202.302 198.903 202.512C198.705 202.711 198.557 202.912 198.46 203.116C198.363 203.314 198.309 203.509 198.3 203.701C198.288 203.89 198.316 204.072 198.386 204.248C198.455 204.418 198.56 204.573 198.702 204.714C198.884 204.896 199.081 205.002 199.292 205.03C199.505 205.055 199.73 205.034 199.966 204.968C200.201 204.902 200.446 204.804 200.701 204.675C200.955 204.546 201.218 204.415 201.488 204.283C201.755 204.147 202.028 204.028 202.308 203.924C202.587 203.82 202.87 203.76 203.156 203.744C203.439 203.725 203.724 203.767 204.01 203.87C204.296 203.967 204.579 204.156 204.859 204.435C205.158 204.733 205.386 205.065 205.543 205.429C205.704 205.791 205.785 206.166 205.785 206.556C205.785 206.946 205.699 207.34 205.527 207.739C205.354 208.133 205.087 208.51 204.726 208.872C204.51 209.089 204.277 209.278 204.029 209.438C203.784 209.602 203.533 209.737 203.275 209.844C203.014 209.948 202.75 210.027 202.483 210.081C202.216 210.128 201.952 210.147 201.691 210.138L201.497 209.37C201.488 209.304 201.489 209.239 201.502 209.176C201.517 209.11 201.55 209.052 201.601 209.002C201.667 208.936 201.777 208.895 201.931 208.879C202.088 208.86 202.272 208.83 202.482 208.789C202.693 208.742 202.92 208.664 203.165 208.557C203.414 208.447 203.665 208.265 203.919 208.01C204.127 207.802 204.285 207.59 204.395 207.373C204.502 207.153 204.559 206.937 204.569 206.727C204.578 206.51 204.54 206.299 204.455 206.095C204.37 205.891 204.239 205.701 204.063 205.525C203.865 205.327 203.657 205.211 203.44 205.177C203.224 205.142 202.997 205.158 202.762 205.224C202.526 205.291 202.282 205.39 202.031 205.522C201.78 205.654 201.522 205.79 201.258 205.928C200.991 206.064 200.72 206.185 200.443 206.292C200.167 206.399 199.885 206.461 199.599 206.477C199.31 206.49 199.018 206.44 198.722 206.327C198.424 206.211 198.123 206.002 197.821 205.7C197.579 205.459 197.392 205.178 197.259 204.857C197.127 204.537 197.064 204.2 197.07 203.848C197.076 203.49 197.159 203.127 197.319 202.759C197.476 202.388 197.724 202.033 198.063 201.693C198.443 201.312 198.853 201.024 199.292 200.829C199.732 200.627 200.183 200.522 200.645 200.512L200.877 201.233Z" fill="#740C4A"/>
<path d="M468.879 168.309C449.559 135.402 421.997 108.098 388.91 89.0864C355.824 70.0751 318.355 60.0132 280.195 59.8924C242.036 59.7716 204.504 69.596 171.297 88.3974C138.091 107.199 110.357 134.328 90.8282 167.112L129.198 189.968C144.755 163.851 166.849 142.239 193.302 127.261C219.755 112.283 249.655 104.457 280.054 104.553C310.453 104.649 340.302 112.665 366.66 127.81C393.018 142.955 414.975 164.707 430.366 190.922L468.879 168.309Z" fill="#D9BEF1"/>
<path d="M164.825 123.942C165.16 123.722 165.422 123.486 165.611 123.235C165.805 122.98 165.929 122.72 165.985 122.454C166.041 122.181 166.034 121.908 165.962 121.635C165.887 121.359 165.752 121.088 165.557 120.824C165.164 120.291 164.686 119.983 164.122 119.901C163.562 119.817 162.939 120 162.253 120.452L160.876 121.359L163.448 124.849L164.825 123.942ZM161.502 119.433C162.072 119.057 162.616 118.796 163.134 118.648C163.652 118.501 164.137 118.456 164.591 118.514C165.042 118.567 165.458 118.719 165.839 118.97C166.225 119.218 166.569 119.547 166.871 119.958C167.174 120.369 167.381 120.795 167.491 121.236C167.598 121.673 167.602 122.108 167.504 122.541C167.406 122.974 167.197 123.399 166.877 123.815C166.558 124.224 166.126 124.608 165.581 124.968L164.204 125.874L166.583 129.102L165.262 129.972L158.804 121.209L161.502 119.433Z" fill="#6012A5"/>
<path d="M180.07 119.174L180.767 120.283L175.011 123.543L169.17 114.37L174.926 111.11L175.63 112.215L171.258 114.691L173.109 117.598L176.627 115.605L177.306 116.672L173.788 118.664L175.692 121.654L180.07 119.174Z" fill="#6012A5"/>
<path d="M186.084 110.925C186.447 110.741 186.74 110.535 186.964 110.309C187.192 110.079 187.354 109.839 187.449 109.587C187.542 109.331 187.572 109.069 187.539 108.803C187.504 108.533 187.41 108.264 187.257 107.998C186.946 107.455 186.53 107.138 186.009 107.047C185.493 106.953 184.875 107.089 184.154 107.456L182.821 108.133L184.798 111.579L186.084 110.925ZM193.328 113.55L192.068 114.191C191.816 114.319 191.576 114.313 191.348 114.175L187.119 112.103C186.982 112.032 186.856 111.997 186.742 111.998C186.626 111.995 186.48 112.038 186.303 112.128L185.381 112.597L187.599 116.463L186.186 117.181L180.78 107.755L183.526 106.36C184.14 106.047 184.705 105.842 185.219 105.744C185.736 105.64 186.205 105.63 186.625 105.716C187.047 105.795 187.42 105.962 187.743 106.216C188.07 106.468 188.349 106.795 188.58 107.198C188.768 107.526 188.894 107.86 188.958 108.201C189.022 108.541 189.021 108.878 188.955 109.211C188.891 109.538 188.765 109.856 188.578 110.166C188.39 110.476 188.143 110.766 187.835 111.036C188.072 111.051 188.308 111.12 188.545 111.243L193.328 113.55Z" fill="#6012A5"/>
<path d="M195.279 102.543L196.919 105.788L200.836 104.041L201.426 105.208L197.509 106.956L199.586 111.064L198.13 111.714L193.234 102.025L199.286 99.325L199.875 100.492L195.279 102.543Z" fill="#6012A5"/>
<path d="M216.266 98.8804C216.562 99.6341 216.712 100.369 216.716 101.085C216.722 101.795 216.595 102.455 216.333 103.066C216.069 103.672 215.679 104.207 215.162 104.671C214.645 105.136 214.011 105.498 213.258 105.756C212.51 106.013 211.776 106.122 211.056 106.082C210.34 106.041 209.672 105.87 209.052 105.568C208.434 105.259 207.88 104.833 207.389 104.29C206.896 103.742 206.501 103.091 206.205 102.338C205.91 101.589 205.761 100.856 205.758 100.14C205.754 99.424 205.881 98.7637 206.14 98.1593C206.402 97.5486 206.791 97.011 207.308 96.5465C207.828 96.0757 208.462 95.7118 209.21 95.4548C209.962 95.1962 210.697 95.0898 211.414 95.1355C212.13 95.1766 212.799 95.3505 213.421 95.6574C214.042 95.9595 214.596 96.3854 215.085 96.9349C215.578 97.4829 215.971 98.1313 216.266 98.8804ZM214.728 99.4089C214.492 98.8097 214.198 98.2996 213.846 97.8787C213.494 97.4577 213.099 97.1336 212.663 96.9063C212.231 96.6774 211.764 96.5483 211.261 96.5191C210.764 96.4883 210.249 96.5642 209.717 96.7468C209.186 96.9295 208.739 97.1841 208.376 97.5107C208.018 97.8357 207.751 98.2169 207.576 98.6543C207.401 99.0917 207.325 99.5775 207.348 100.112C207.371 100.646 207.5 101.212 207.736 101.811C207.973 102.415 208.268 102.928 208.62 103.349C208.971 103.765 209.364 104.087 209.8 104.314C210.237 104.541 210.704 104.67 211.202 104.701C211.703 104.726 212.219 104.647 212.75 104.464C213.282 104.281 213.727 104.03 214.087 103.71C214.45 103.383 214.717 103.002 214.887 102.566C215.062 102.129 215.139 101.645 215.118 101.116C215.095 100.582 214.965 100.013 214.728 99.4089Z" fill="#6012A5"/>
<path d="M223.928 96.2828C224.323 96.1779 224.655 96.0378 224.924 95.8625C225.198 95.6859 225.409 95.4843 225.558 95.2578C225.706 95.0265 225.794 94.7774 225.821 94.5106C225.847 94.2389 225.815 93.9567 225.725 93.6639C225.542 93.0688 225.206 92.6725 224.719 92.475C224.236 92.2763 223.602 92.2812 222.817 92.4897L221.365 92.8755L222.527 96.6551L223.928 96.2828ZM230.414 100.353L229.041 100.718C228.767 100.791 228.534 100.736 228.342 100.553L224.677 97.6492C224.558 97.551 224.443 97.4907 224.332 97.4683C224.219 97.4411 224.067 97.453 223.874 97.5042L222.87 97.771L224.174 102.011L222.636 102.42L219.458 92.0819L222.447 91.2874C223.117 91.1096 223.713 91.0263 224.238 91.0376C224.765 91.0427 225.225 91.1309 225.616 91.3021C226.01 91.4673 226.337 91.7076 226.595 92.0231C226.858 92.3373 227.058 92.7152 227.194 93.1568C227.304 93.5167 227.353 93.8698 227.34 94.216C227.326 94.5622 227.25 94.8913 227.112 95.2032C226.977 95.5091 226.783 95.7942 226.531 96.0584C226.279 96.3227 225.973 96.5546 225.612 96.7542C225.84 96.8183 226.056 96.9349 226.259 97.1042L230.414 100.353Z" fill="#6012A5"/>
<path d="M243.659 87.1534L245.911 97.7085L244.541 97.9557L242.938 90.4437C242.913 90.331 242.89 90.2105 242.868 90.0822C242.851 89.953 242.833 89.8214 242.814 89.6873L240.668 96.7688C240.596 97.0311 240.433 97.1852 240.177 97.2313L239.956 97.2712C239.701 97.3172 239.489 97.2308 239.319 97.012L234.351 91.1909C234.439 91.46 234.508 91.7146 234.56 91.9547L236.163 99.4668L234.785 99.7153L232.532 89.1602L233.697 88.9502C233.834 88.9254 233.943 88.9211 234.023 88.9372C234.107 88.9475 234.196 89.0077 234.291 89.1178L239.177 94.8012C239.273 94.9162 239.365 95.0394 239.455 95.1709C239.544 95.3024 239.631 95.4343 239.715 95.5667C239.756 95.259 239.817 94.9579 239.897 94.6636L242.02 87.7237C242.058 87.5897 242.111 87.5038 242.18 87.466C242.252 87.4224 242.357 87.3882 242.494 87.3634L243.659 87.1534Z" fill="#6012A5"/>
<path d="M257.078 92.3681L254.897 88.4171C254.742 88.1483 254.577 87.8052 254.401 87.3878C254.377 87.6071 254.348 87.8118 254.315 88.002C254.286 88.1916 254.255 88.3614 254.221 88.5114L253.234 92.8184L257.078 92.3681ZM260.784 95.9742L259.562 96.1173C259.423 96.1336 259.304 96.1123 259.205 96.0534C259.106 95.9946 259.028 95.913 258.973 95.8087L257.672 93.4464L252.957 93.9988L252.367 96.5828C252.345 96.6809 252.293 96.7752 252.21 96.8654C252.127 96.9508 252.018 97.0013 251.884 97.017L250.662 97.1601L253.39 85.9958L254.992 85.8081L260.784 95.9742Z" fill="#6012A5"/>
<path d="M272.716 84.1805L273.754 94.8927L272.945 94.9532C272.82 94.9625 272.713 94.948 272.624 94.9096C272.54 94.8708 272.451 94.8048 272.356 94.7117L265.527 87.3409C265.55 87.4744 265.571 87.6056 265.588 87.7346C265.611 87.8631 265.627 87.9846 265.638 88.099L266.35 95.4468L264.95 95.5516L263.913 84.8394L264.736 84.7778C264.876 84.7673 264.982 84.7769 265.056 84.8065C265.128 84.8311 265.213 84.8974 265.309 85.0054L272.153 92.3826C272.124 92.2395 272.098 92.1012 272.075 91.9677C272.057 91.8288 272.042 91.6997 272.03 91.5803L271.324 84.2847L272.716 84.1805Z" fill="#6012A5"/>
<path d="M286.085 92.8554C286.175 92.8579 286.252 92.8949 286.316 92.9665L286.936 93.6715C286.486 94.1774 285.941 94.5634 285.299 94.8297C284.662 95.0961 283.897 95.2168 283.005 95.192C282.222 95.1702 281.515 95.016 280.883 94.7292C280.255 94.4426 279.72 94.0514 279.277 93.5556C278.839 93.06 278.502 92.4725 278.268 91.7931C278.034 91.1137 277.923 90.3705 277.937 89.5634C277.95 88.7563 278.091 88.0201 278.358 87.3546C278.63 86.6893 279.003 86.1216 279.478 85.6513C279.952 85.181 280.515 84.8204 281.167 84.5693C281.823 84.3185 282.545 84.204 283.332 84.2259C284.1 84.2472 284.78 84.3907 285.372 84.6564C285.965 84.9221 286.478 85.2679 286.913 85.6936L286.374 86.4188C286.338 86.4726 286.292 86.5162 286.236 86.5496C286.185 86.583 286.117 86.5986 286.032 86.5962C285.937 86.5936 285.825 86.5431 285.696 86.4448C285.572 86.3467 285.406 86.2374 285.197 86.1169C284.994 85.9916 284.74 85.8774 284.435 85.7743C284.131 85.6711 283.751 85.6132 283.294 85.6005C282.758 85.5855 282.265 85.6665 281.815 85.8434C281.366 86.0153 280.975 86.2736 280.643 86.6182C280.316 86.958 280.058 87.382 279.869 87.8901C279.685 88.3934 279.587 88.9663 279.577 89.609C279.566 90.2616 279.649 90.8446 279.826 91.3579C280.003 91.8712 280.251 92.3093 280.571 92.6721C280.891 93.0348 281.27 93.3145 281.709 93.5111C282.147 93.7078 282.622 93.8132 283.133 93.8274C283.444 93.8361 283.723 93.8264 283.969 93.7983C284.22 93.7654 284.45 93.7145 284.656 93.6455C284.868 93.5766 285.068 93.4875 285.256 93.3781C285.443 93.2637 285.629 93.1268 285.812 92.9674C285.853 92.9336 285.896 92.9074 285.941 92.8887C285.987 92.8651 286.035 92.854 286.085 92.8554Z" fill="#6012A5"/>
<path d="M298.946 95.2913L298.813 96.575L292.138 95.9033L293.179 85.2416L299.854 85.9133L299.729 87.1978L294.658 86.6876L294.328 90.0658L298.409 90.4763L298.288 91.7162L294.207 91.3057L293.868 94.7804L298.946 95.2913Z" fill="#6012A5"/>
<path d="M329.562 90.4356L327.681 100.823L326.281 100.577L327.62 93.1843C327.64 93.0734 327.663 92.9557 327.691 92.8312C327.724 92.7076 327.757 92.5816 327.791 92.4531L323.043 98.1649C322.875 98.3792 322.661 98.4634 322.4 98.4176L322.174 98.3779C321.913 98.3321 321.743 98.1805 321.666 97.923L319.152 90.9139C319.133 91.1893 319.102 91.4451 319.059 91.6814L317.721 99.0738L316.313 98.8267L318.194 88.4396L319.383 88.6484C319.524 88.6731 319.629 88.7065 319.699 88.7487C319.775 88.7869 319.837 88.8724 319.886 89.0053L322.373 95.8605C322.421 95.9982 322.462 96.1423 322.497 96.2927C322.532 96.4431 322.564 96.5931 322.594 96.7426C322.751 96.4766 322.924 96.2234 323.112 95.9828L327.783 90.392C327.87 90.2829 327.954 90.2229 328.033 90.212C328.119 90.1971 328.232 90.2021 328.372 90.2267L329.562 90.4356Z" fill="#6012A5"/>
<path d="M339.77 103.007L339.447 104.24L332.848 102.64L335.468 92.3926L342.067 93.9929L341.751 95.2274L336.739 94.0119L335.909 97.2588L339.942 98.237L339.638 99.4287L335.604 98.4505L334.75 101.79L339.77 103.007Z" fill="#6012A5"/>
<path d="M353.952 99.3671L350.684 98.212L347.383 106.908L345.863 106.371L349.164 97.675L345.881 96.5148L346.349 95.2844L354.42 98.1367L353.952 99.3671Z" fill="#6012A5"/>
<path d="M358.292 105.358C358.673 105.52 359.029 105.618 359.358 105.651C359.693 105.686 359.995 105.665 360.265 105.586C360.537 105.504 360.773 105.371 360.974 105.188C361.178 105.001 361.342 104.77 361.469 104.496C361.725 103.94 361.728 103.439 361.477 102.994C361.231 102.55 360.729 102.167 359.971 101.844L358.569 101.246L356.938 104.781L358.292 105.358ZM360.655 112.359L359.33 111.794C359.065 111.681 358.918 111.498 358.891 111.244L357.961 106.836C357.933 106.69 357.883 106.575 357.811 106.49C357.741 106.401 357.613 106.317 357.427 106.238L356.457 105.824L354.628 109.79L353.142 109.156L357.601 99.4886L360.489 100.72C361.136 100.995 361.661 101.297 362.067 101.626C362.478 101.951 362.78 102.298 362.973 102.664C363.172 103.029 363.267 103.408 363.258 103.801C363.254 104.197 363.157 104.601 362.966 105.014C362.811 105.35 362.611 105.644 362.368 105.895C362.124 106.145 361.843 106.345 361.524 106.494C361.212 106.64 360.867 106.735 360.491 106.778C360.115 106.822 359.718 106.809 359.3 106.738C359.436 106.925 359.527 107.144 359.573 107.394L360.655 112.359Z" fill="#6012A5"/>
<path d="M366.478 115.392L365.026 114.675L370.078 105.272L371.529 105.989L366.478 115.392Z" fill="#6012A5"/>
<path d="M379.097 118.541C379.178 118.582 379.231 118.648 379.255 118.738L379.487 119.625C378.841 119.874 378.165 119.975 377.457 119.931C376.754 119.888 376.004 119.662 375.205 119.254C374.505 118.895 373.935 118.453 373.496 117.928C373.061 117.404 372.759 116.829 372.589 116.202C372.424 115.578 372.395 114.917 372.501 114.22C372.607 113.522 372.856 112.823 373.247 112.121C373.638 111.42 374.111 110.835 374.666 110.368C375.225 109.902 375.83 109.566 376.482 109.36C377.133 109.153 377.814 109.081 378.523 109.144C379.236 109.208 379.945 109.421 380.65 109.782C381.336 110.133 381.886 110.554 382.299 111.044C382.712 111.534 383.016 112.059 383.21 112.621L382.381 113.023C382.323 113.055 382.261 113.073 382.194 113.078C382.133 113.085 382.064 113.069 381.987 113.03C381.902 112.987 381.824 112.894 381.753 112.752C381.687 112.612 381.588 112.444 381.455 112.248C381.329 112.05 381.152 111.84 380.924 111.617C380.696 111.395 380.378 111.179 379.97 110.97C379.49 110.725 379.004 110.582 378.513 110.542C378.025 110.498 377.549 110.555 377.086 110.713C376.63 110.869 376.196 111.129 375.786 111.492C375.383 111.854 375.025 112.314 374.714 112.872C374.398 113.44 374.199 113.987 374.119 114.514C374.039 115.04 374.059 115.532 374.179 115.989C374.299 116.446 374.512 116.855 374.817 117.218C375.123 117.58 375.504 117.879 375.962 118.113C376.24 118.255 376.498 118.368 376.734 118.45C376.978 118.53 377.21 118.585 377.43 118.614C377.655 118.645 377.878 118.654 378.099 118.639C378.323 118.62 378.556 118.581 378.797 118.52C378.85 118.508 378.901 118.504 378.951 118.508C379.004 118.507 379.052 118.518 379.097 118.541Z" fill="#6012A5"/>
<path d="M391.631 118.548C391.541 118.593 391.462 118.618 391.393 118.623C391.324 118.628 391.252 118.608 391.179 118.564C391.101 118.518 391.035 118.432 390.979 118.306C390.926 118.176 390.852 118.024 390.755 117.85C390.666 117.675 390.54 117.492 390.376 117.302C390.216 117.107 389.991 116.924 389.702 116.751C389.43 116.588 389.168 116.48 388.915 116.427C388.668 116.372 388.437 116.364 388.22 116.402C388.005 116.436 387.808 116.512 387.629 116.631C387.456 116.748 387.309 116.9 387.186 117.087C387.028 117.328 386.96 117.565 386.981 117.798C387.007 118.034 387.086 118.27 387.22 118.506C387.353 118.742 387.524 118.981 387.733 119.222C387.941 119.462 388.153 119.711 388.369 119.968C388.588 120.22 388.791 120.483 388.978 120.757C389.164 121.031 389.303 121.32 389.392 121.623C389.485 121.921 389.509 122.237 389.465 122.57C389.428 122.901 389.289 123.252 389.046 123.622C388.787 124.018 388.473 124.345 388.105 124.606C387.741 124.869 387.34 125.049 386.904 125.147C386.468 125.245 386.004 125.251 385.514 125.166C385.03 125.08 384.541 124.888 384.045 124.591C383.747 124.413 383.478 124.211 383.235 123.985C382.991 123.763 382.776 123.528 382.591 123.278C382.409 123.024 382.255 122.761 382.127 122.488C382.007 122.213 381.919 121.935 381.864 121.653L382.676 121.252C382.747 121.225 382.82 121.211 382.893 121.208C382.971 121.209 383.045 121.229 383.114 121.271C383.204 121.325 383.278 121.433 383.334 121.594C383.395 121.758 383.475 121.947 383.574 122.163C383.68 122.377 383.823 122.602 384.005 122.838C384.191 123.077 384.458 123.301 384.807 123.51C385.092 123.68 385.37 123.797 385.64 123.86C385.913 123.92 386.169 123.928 386.407 123.885C386.652 123.841 386.879 123.747 387.086 123.605C387.293 123.462 387.473 123.275 387.626 123.042C387.797 122.779 387.875 122.528 387.859 122.286C387.843 122.045 387.769 121.806 387.635 121.57C387.502 121.334 387.329 121.097 387.118 120.861C386.907 120.624 386.691 120.382 386.469 120.134C386.25 119.881 386.046 119.62 385.857 119.35C385.667 119.08 385.528 118.794 385.438 118.491C385.351 118.184 385.334 117.858 385.386 117.513C385.441 117.163 385.599 116.789 385.86 116.389C386.07 116.069 386.338 115.797 386.664 115.575C386.989 115.353 387.35 115.201 387.745 115.119C388.148 115.036 388.576 115.034 389.028 115.113C389.483 115.189 389.943 115.366 390.409 115.644C390.93 115.957 391.356 116.324 391.685 116.747C392.021 117.168 392.253 117.626 392.38 118.119L391.631 118.548Z" fill="#6012A5"/>
<path d="M82.9178 181.953C65.9478 216.132 58.1766 254.142 60.37 292.239C62.5633 330.335 74.6456 367.203 95.4261 399.208C116.207 431.213 144.968 457.251 178.876 474.755C212.783 492.26 250.667 500.628 288.793 499.033L286.927 454.411C256.554 455.681 226.375 449.016 199.363 435.071C172.351 421.126 149.438 400.383 132.884 374.887C116.33 349.391 106.704 320.021 104.957 289.672C103.21 259.323 109.401 229.042 122.919 201.815L82.9178 181.953Z" fill="#D9BEF1"/>
<path d="M190.001 460.101L194.309 450.104L195.547 450.717L192.481 457.832C192.435 457.938 192.383 458.051 192.327 458.169C192.266 458.286 192.204 458.404 192.141 458.525L197.953 453.995C198.162 453.823 198.382 453.794 198.612 453.908L198.812 454.007C199.043 454.121 199.162 454.318 199.171 454.598L199.771 462.329C199.856 462.056 199.948 461.806 200.046 461.578L203.112 454.464L204.356 455.08L200.048 465.076L198.996 464.556C198.872 464.494 198.783 464.433 198.728 464.372C198.667 464.314 198.631 464.211 198.619 464.064L198.005 456.496C197.995 456.345 197.993 456.189 197.997 456.028C198.002 455.867 198.009 455.707 198.018 455.548C197.807 455.776 197.584 455.987 197.35 456.18L191.639 460.608C191.531 460.695 191.439 460.734 191.363 460.724C191.28 460.717 191.176 460.683 191.052 460.621L190.001 460.101Z" fill="#6012A5"/>
<path d="M183.592 449.518L183.031 454.065C182.998 454.378 182.931 454.759 182.828 455.207C182.975 455.041 183.116 454.89 183.253 454.754C183.386 454.615 183.509 454.494 183.623 454.392L186.907 451.446L183.592 449.518ZM182.74 444.343L183.794 444.955C183.913 445.025 183.996 445.114 184.041 445.221C184.085 445.329 184.099 445.442 184.083 445.561L183.746 448.278L187.813 450.643L189.782 448.875C189.856 448.807 189.952 448.761 190.071 448.737C190.187 448.717 190.302 448.74 190.418 448.807L191.472 449.42L182.823 456.953L181.442 456.15L182.74 444.343Z" fill="#6012A5"/>
<path d="M173.867 445.57C173.525 445.35 173.2 445.201 172.891 445.122C172.578 445.04 172.288 445.022 172.023 445.067C171.755 445.116 171.514 445.222 171.301 445.384C171.085 445.551 170.901 445.768 170.747 446.034C170.436 446.577 170.372 447.096 170.556 447.591C170.735 448.084 171.165 448.55 171.845 448.987L173.102 449.796L175.081 446.351L173.867 445.57ZM172.479 437.992L173.668 438.756C173.906 438.909 174.022 439.119 174.018 439.386L174.362 444.082C174.37 444.237 174.403 444.363 174.461 444.461C174.517 444.563 174.628 444.667 174.795 444.774L175.665 445.334L177.884 441.469L179.217 442.326L173.805 451.749L171.215 450.083C170.636 449.71 170.174 449.326 169.829 448.93C169.479 448.537 169.234 448.137 169.096 447.731C168.952 447.326 168.908 446.921 168.964 446.514C169.017 446.104 169.158 445.698 169.39 445.296C169.578 444.968 169.803 444.69 170.065 444.463C170.327 444.236 170.618 444.067 170.939 443.956C171.253 443.847 171.591 443.795 171.954 443.8C172.316 443.806 172.691 443.873 173.079 444.003C172.973 443.791 172.913 443.552 172.9 443.286L172.479 437.992Z" fill="#6012A5"/>
<path d="M165.321 440.317L164.897 440.014C164.744 439.904 164.609 439.834 164.491 439.806C164.367 439.779 164.235 439.786 164.096 439.829L159.151 441.216C158.989 441.266 158.847 441.279 158.727 441.255C158.604 441.235 158.474 441.176 158.337 441.077L157.236 440.287L162.967 438.712C163.119 438.66 163.257 438.629 163.381 438.619C163.502 438.606 163.619 438.607 163.734 438.621C163.564 438.382 163.476 438.08 163.469 437.716L162.907 431.012L164.026 431.815C164.107 431.873 164.174 431.929 164.226 431.986C164.274 432.039 164.314 432.092 164.344 432.145C164.368 432.199 164.387 432.256 164.402 432.316C164.412 432.373 164.416 432.435 164.415 432.502L164.977 438.11C164.982 438.194 164.992 438.269 165.008 438.336C165.024 438.403 165.051 438.466 165.09 438.525C165.126 438.588 165.175 438.648 165.238 438.706C165.299 438.768 165.375 438.832 165.468 438.899L165.994 439.276L168.667 435.144L169.955 436.069L164.06 445.184L162.772 444.259L165.321 440.317Z" fill="#6012A5"/>
<path d="M154.507 426.307L155.321 425.286L160.352 429.62L153.644 438.128L148.613 433.795L149.421 432.77L153.242 436.061L155.368 433.365L152.293 430.717L153.073 429.727L156.148 432.376L158.334 429.603L154.507 426.307Z" fill="#6012A5"/>
<path d="M140.717 424.663L143.236 426.958L149.343 419.715L150.514 420.782L144.407 428.025L146.936 430.331L146.072 431.356L139.853 425.688L140.717 424.663Z" fill="#6012A5"/>
<path d="M143.434 413.93L144.573 415.057L137.229 422.966L136.09 421.838L143.434 413.93Z" fill="#6012A5"/>
<path d="M125.857 411.19L133.644 403.743L134.188 404.343C134.272 404.435 134.327 404.529 134.351 404.623C134.372 404.713 134.375 404.824 134.36 404.956L132.76 414.899C132.851 414.799 132.941 414.701 133.032 414.608C133.119 414.51 133.205 414.422 133.288 414.343L138.629 409.234L139.571 410.272L131.785 417.72L131.23 417.109C131.136 417.005 131.078 416.916 131.057 416.84C131.031 416.767 131.032 416.659 131.058 416.517L132.653 406.558C132.559 406.669 132.466 406.775 132.375 406.876C132.277 406.976 132.185 407.068 132.098 407.151L126.795 412.223L125.857 411.19Z" fill="#6012A5"/>
<path d="M122.376 396.259L125.904 393.978C126.516 394.231 127.064 394.567 127.548 394.986C128.028 395.408 128.457 395.928 128.834 396.547C129.287 397.289 129.584 398.035 129.725 398.783C129.862 399.527 129.856 400.242 129.707 400.928C129.557 401.614 129.269 402.255 128.843 402.852C128.414 403.445 127.859 403.962 127.179 404.402C126.494 404.844 125.802 405.14 125.102 405.289C124.395 405.437 123.715 405.436 123.062 405.287C122.404 405.141 121.787 404.85 121.21 404.414C120.627 403.976 120.114 403.394 119.671 402.669C119.447 402.302 119.267 401.945 119.132 401.598C118.993 401.247 118.893 400.904 118.829 400.57C118.766 400.236 118.737 399.91 118.742 399.591C118.74 399.271 118.767 398.956 118.824 398.646L119.667 398.645C119.8 398.642 119.909 398.682 119.994 398.764C120.079 398.846 120.121 398.967 120.12 399.129C120.125 399.28 120.127 399.452 120.126 399.642C120.123 399.829 120.143 400.039 120.186 400.273C120.227 400.503 120.297 400.758 120.398 401.038C120.498 401.318 120.652 401.627 120.857 401.964C121.165 402.467 121.524 402.869 121.935 403.168C122.342 403.47 122.784 403.667 123.261 403.757C123.738 403.847 124.238 403.831 124.76 403.707C125.278 403.587 125.802 403.355 126.331 403.013C126.885 402.654 127.334 402.251 127.676 401.804C128.013 401.359 128.246 400.891 128.373 400.398C128.493 399.904 128.504 399.394 128.406 398.868C128.305 398.338 128.094 397.811 127.774 397.286C127.649 397.081 127.523 396.898 127.395 396.737C127.26 396.574 127.122 396.425 126.981 396.29C126.84 396.155 126.693 396.033 126.539 395.924C126.382 395.811 126.22 395.705 126.053 395.604L124.157 396.831L124.985 398.188C125.037 398.273 125.055 398.36 125.038 398.448C125.019 398.532 124.972 398.598 124.896 398.647L124.134 399.14L122.376 396.259Z" fill="#6012A5"/>
<path d="M110.539 375.548L107.82 379.006C107.638 379.247 107.392 379.525 107.082 379.84C107.293 379.782 107.492 379.735 107.68 379.697C107.865 379.654 108.034 379.621 108.185 379.598L112.535 378.95L110.539 375.548ZM112.313 370.801L112.948 371.882C113.02 372.005 113.049 372.123 113.036 372.237C113.023 372.35 112.981 372.452 112.908 372.541L111.281 374.606L113.73 378.779L116.339 378.389C116.437 378.373 116.545 378.387 116.662 378.431C116.775 378.478 116.866 378.561 116.935 378.679L117.57 379.761L106.224 381.282L105.393 379.865L112.313 370.801Z" fill="#6012A5"/>
<path d="M107.711 364.874C107.515 364.483 107.274 364.165 106.991 363.918C106.707 363.672 106.397 363.498 106.06 363.396C105.719 363.297 105.361 363.268 104.986 363.309C104.606 363.353 104.223 363.47 103.834 363.659L98.0822 366.467L97.3548 365.022L103.107 362.214C103.663 361.943 104.223 361.783 104.786 361.734C105.35 361.685 105.89 361.747 106.406 361.92C106.921 362.093 107.399 362.375 107.838 362.766C108.276 363.158 108.649 363.658 108.956 364.266C109.262 364.875 109.441 365.47 109.491 366.051C109.542 366.632 109.481 367.177 109.308 367.685C109.136 368.194 108.859 368.654 108.478 369.067C108.098 369.479 107.629 369.821 107.073 370.092L101.321 372.899L100.59 371.448L106.336 368.644C106.724 368.454 107.052 368.226 107.319 367.96C107.584 367.689 107.78 367.39 107.906 367.062C108.028 366.737 108.075 366.388 108.048 366.017C108.02 365.646 107.908 365.265 107.711 364.874Z" fill="#6012A5"/>
<path d="M93.4518 353.394L94.8509 356.566L103.446 353.01L104.096 354.484L95.5013 358.041L96.9064 361.226L95.6903 361.729L92.2357 353.897L93.4518 353.394Z" fill="#6012A5"/>
<path d="M92.0703 339.009C92.811 338.718 93.5435 338.571 94.2677 338.569C94.9854 338.564 95.663 338.691 96.3004 338.951C96.9333 339.213 97.504 339.599 98.0124 340.111C98.5209 340.622 98.934 341.25 99.2516 341.994C99.5673 342.733 99.7319 343.458 99.7455 344.17C99.7572 344.876 99.6332 345.536 99.3735 346.148C99.1073 346.758 98.7176 347.304 98.2044 347.788C97.6866 348.274 97.0573 348.662 96.3167 348.953C95.5806 349.243 94.8505 349.388 94.1262 349.391C93.4019 349.393 92.7243 349.265 92.0935 349.008C91.456 348.748 90.8831 348.363 90.3746 347.851C89.8595 347.337 89.4442 346.71 89.1285 345.971C88.8109 345.227 88.6485 344.501 88.6415 343.792C88.6299 343.086 88.7561 342.425 89.0204 341.811C89.28 341.199 89.6697 340.652 90.1895 340.171C90.7073 339.685 91.3343 339.298 92.0703 339.009ZM92.7195 340.529C92.1306 340.76 91.6363 341.049 91.2366 341.397C90.8368 341.744 90.5382 342.132 90.3406 342.563C90.141 342.989 90.0451 343.45 90.053 343.946C90.0588 344.438 90.1739 344.947 90.3982 345.472C90.6225 345.997 90.9134 346.44 91.2709 346.799C91.6263 347.153 92.0319 347.417 92.4876 347.591C92.9432 347.765 93.4404 347.841 93.9792 347.82C94.5179 347.798 95.0817 347.671 95.6705 347.44C96.2639 347.207 96.7605 346.917 97.1603 346.57C97.5555 346.225 97.8518 345.837 98.0494 345.406C98.247 344.976 98.3429 344.514 98.337 344.023C98.3246 343.528 98.2062 343.018 97.9819 342.493C97.7576 341.967 97.47 341.527 97.1191 341.17C96.7617 340.811 96.3561 340.547 95.9024 340.378C95.4467 340.204 94.9519 340.127 94.4177 340.147C93.879 340.168 93.3129 340.296 92.7195 340.529Z" fill="#6012A5"/>
<path d="M82.2384 326.06L92.3848 322.746L92.8671 324.068L85.6459 326.426C85.5376 326.462 85.4213 326.497 85.2971 326.532C85.1712 326.563 85.0429 326.594 84.9123 326.626L92.3484 328C92.6224 328.043 92.8044 328.187 92.8943 328.434L92.9721 328.647C93.062 328.893 93.0122 329.111 92.8229 329.3L87.8678 334.792C88.1213 334.677 88.3634 334.582 88.5942 334.507L95.8154 332.149L96.3003 333.477L86.1539 336.791L85.7442 335.668C85.6958 335.536 85.6727 335.429 85.6751 335.349C85.671 335.265 85.7157 335.171 85.8092 335.066L90.6411 329.671C90.7394 329.564 90.8465 329.46 90.9623 329.359C91.0782 329.257 91.1949 329.158 91.3125 329.062C90.9983 329.053 90.6874 329.025 90.38 328.976L83.0892 327.611C82.9489 327.588 82.8541 327.545 82.8046 327.482C82.7487 327.415 82.6965 327.315 82.6481 327.183L82.2384 326.06Z" fill="#6012A5"/>
<path d="M87.0692 314.004L83.3239 316.296C83.0697 316.459 82.7422 316.634 82.3415 316.822C82.5628 316.839 82.77 316.862 82.9631 316.889C83.1552 316.912 83.3277 316.938 83.4807 316.967L87.875 317.824L87.0692 314.004ZM90.3287 310.2L90.5847 311.414C90.6139 311.553 90.6037 311.672 90.5541 311.773C90.5045 311.874 90.4302 311.953 90.3311 312.012L88.0915 313.38L89.0799 318.065L91.7161 318.577C91.8162 318.596 91.9151 318.645 92.013 318.725C92.106 318.806 92.1665 318.913 92.1946 319.046L92.4507 320.26L81.0444 317.871L80.7087 316.279L90.3287 310.2Z" fill="#6012A5"/>
<path d="M80.2796 300.508L80.712 303.928L90.0309 303.084L90.2319 304.674L80.913 305.518L81.3472 308.953L80.0287 309.073L78.961 300.627L80.2796 300.508Z" fill="#6012A5"/>
<path d="M89.5218 294.222L89.6902 295.831L79.0344 296.566L78.866 294.957L89.5218 294.222Z" fill="#6012A5"/>
<path d="M83.4537 279.215C84.2519 279.198 84.993 279.314 85.677 279.562C86.3558 279.805 86.9514 280.157 87.4638 280.62C87.9713 281.083 88.3774 281.642 88.6822 282.295C88.987 282.949 89.162 283.678 89.2073 284.484C89.2523 285.284 89.1596 286.019 88.9293 286.689C88.6986 287.353 88.3561 287.927 87.9019 288.41C87.4423 288.888 86.8877 289.265 86.2381 289.541C85.5836 289.816 84.8572 289.962 84.059 289.979C83.2658 289.995 82.5272 289.88 81.8432 289.632C81.1592 289.384 80.5636 289.031 80.0564 288.573C79.5439 288.11 79.1353 287.552 78.8305 286.898C78.5205 286.24 78.343 285.511 78.298 284.71C78.2527 283.905 78.3479 283.17 78.5835 282.505C78.8141 281.841 79.1591 281.267 79.6183 280.783C80.0726 280.3 80.6272 279.924 81.282 279.653C81.9366 279.377 82.6605 279.231 83.4537 279.215ZM83.5463 280.86C82.9117 280.874 82.3465 280.974 81.8507 281.16C81.355 281.347 80.9403 281.607 80.6067 281.942C80.2728 282.271 80.0247 282.669 79.8623 283.136C79.6997 283.598 79.6343 284.113 79.6663 284.682C79.6983 285.251 79.8215 285.764 80.0359 286.224C80.25 286.678 80.5423 287.064 80.9127 287.384C81.2831 287.704 81.7261 287.947 82.2417 288.112C82.7572 288.278 83.3323 288.354 83.9669 288.341C84.6064 288.328 85.1741 288.228 85.6699 288.041C86.1607 287.854 86.5729 287.594 86.9065 287.26C87.2401 286.925 87.4882 286.527 87.6509 286.065C87.8083 285.598 87.871 285.081 87.839 284.512C87.807 283.943 87.6864 283.432 87.4773 282.978C87.2628 282.519 86.9706 282.132 86.6005 281.817C86.2301 281.497 85.7896 281.255 85.279 281.089C84.7634 280.923 84.1858 280.847 83.5463 280.86Z" fill="#6012A5"/>
<path d="M79.0684 265.863L89.715 266.721L89.6783 267.537C89.6726 267.663 89.6456 267.767 89.5973 267.849C89.5491 267.926 89.4737 268.003 89.371 268.081L81.3177 273.579C81.4516 273.58 81.5829 273.583 81.7117 273.588C81.8406 273.588 81.9619 273.593 82.0756 273.602L89.3785 274.191L89.3148 275.603L78.6683 274.745L78.7057 273.914C78.712 273.773 78.7341 273.669 78.7719 273.601C78.8047 273.533 78.8799 273.461 78.9974 273.385L87.0589 267.872C86.9148 267.875 86.7759 267.877 86.642 267.876C86.5033 267.87 86.3747 267.862 86.2561 267.852L79.0051 267.268L79.0684 265.863Z" fill="#6012A5"/>
<path d="M305.052 497.617C339.998 493.523 373.449 481.093 402.589 461.371C431.728 441.65 455.702 415.217 472.492 384.296C489.282 353.375 498.397 318.872 499.069 283.693C499.741 248.514 491.95 213.689 476.353 182.149L436.32 201.947C448.745 227.073 454.951 254.816 454.416 282.84C453.881 310.865 446.62 338.351 433.244 362.984C419.868 387.616 400.77 408.675 377.557 424.385C354.343 440.096 327.695 449.998 299.855 453.26L305.052 497.617Z" fill="#D9BEF1"/>
<path d="M467.271 250.515C467.286 250.603 467.265 250.686 467.206 250.765L466.631 251.533C466.045 251.219 465.559 250.784 465.172 250.227C464.787 249.676 464.52 248.966 464.372 248.097C464.243 247.336 464.259 246.615 464.419 245.936C464.581 245.261 464.864 244.65 465.267 244.103C465.671 243.561 466.186 243.096 466.811 242.707C467.436 242.318 468.148 242.034 468.946 241.854C469.745 241.674 470.498 241.634 471.206 241.733C471.915 241.837 472.547 242.062 473.102 242.408C473.658 242.755 474.122 243.212 474.496 243.782C474.87 244.356 475.122 245.027 475.252 245.793C475.379 246.54 475.369 247.231 475.221 247.867C475.073 248.503 474.831 249.082 474.495 249.604L473.676 249.256C473.616 249.234 473.564 249.2 473.52 249.154C473.478 249.113 473.449 249.051 473.435 248.968C473.419 248.875 473.447 248.755 473.52 248.607C473.592 248.464 473.668 248.277 473.747 248.047C473.831 247.82 473.895 247.547 473.938 247.229C473.981 246.91 473.964 246.529 473.889 246.084C473.8 245.562 473.625 245.105 473.364 244.713C473.108 244.32 472.777 244.004 472.374 243.766C471.975 243.531 471.507 243.383 470.97 243.321C470.438 243.264 469.854 243.307 469.218 243.45C468.572 243.595 468.013 243.815 467.541 244.108C467.069 244.402 466.684 244.747 466.388 245.143C466.092 245.539 465.89 245.972 465.78 246.443C465.671 246.913 465.658 247.397 465.743 247.895C465.795 248.197 465.858 248.464 465.933 248.696C466.014 248.931 466.108 249.14 466.216 249.323C466.325 249.512 466.452 249.683 466.596 249.838C466.745 249.992 466.916 250.139 467.108 250.278C467.149 250.309 467.184 250.345 467.211 250.384C467.243 250.422 467.263 250.466 467.271 250.515Z" fill="#6012A5"/>
<path d="M467.413 259.14C467.457 259.564 467.568 259.933 467.747 260.246C467.925 260.558 468.156 260.811 468.44 261.002C468.728 261.193 469.058 261.322 469.429 261.39C469.806 261.457 470.214 261.457 470.653 261.389L477.157 260.384L477.316 261.952L470.813 262.956C470.184 263.054 469.593 263.045 469.039 262.93C468.485 262.815 467.995 262.603 467.568 262.294C467.141 261.984 466.791 261.582 466.518 261.089C466.244 260.595 466.074 260.018 466.007 259.358C465.939 258.697 465.988 258.086 466.154 257.525C466.32 256.963 466.578 256.468 466.93 256.038C467.281 255.608 467.714 255.253 468.228 254.974C468.741 254.694 469.313 254.506 469.941 254.409L476.445 253.404L476.605 254.979L470.109 255.982C469.67 256.05 469.275 256.171 468.923 256.346C468.571 256.526 468.275 256.752 468.034 257.024C467.798 257.296 467.625 257.611 467.514 257.968C467.404 258.326 467.37 258.716 467.413 259.14Z" fill="#6012A5"/>
<path d="M476.4 272.534C476.312 272.494 476.246 272.448 476.203 272.398C476.16 272.348 476.136 272.281 476.131 272.197C476.126 272.108 476.16 272.002 476.234 271.879C476.313 271.756 476.397 271.603 476.488 271.419C476.584 271.239 476.665 271.026 476.732 270.78C476.804 270.533 476.83 270.244 476.811 269.912C476.794 269.6 476.735 269.33 476.637 269.101C476.543 268.877 476.419 268.694 476.265 268.551C476.115 268.408 475.94 268.304 475.74 268.241C475.545 268.183 475.335 268.165 475.109 268.19C474.818 268.221 474.581 268.318 474.399 268.482C474.217 268.651 474.065 268.862 473.943 269.114C473.821 269.366 473.718 269.649 473.635 269.962C473.552 270.275 473.464 270.595 473.372 270.924C473.284 271.252 473.179 271.575 473.056 271.892C472.932 272.209 472.769 272.498 472.567 272.759C472.37 273.019 472.12 273.238 471.817 273.415C471.52 273.596 471.148 273.711 470.701 273.759C470.225 273.81 469.774 273.776 469.348 273.657C468.923 273.544 468.546 273.35 468.218 273.077C467.889 272.803 467.622 272.451 467.416 272.019C467.215 271.593 467.099 271.095 467.066 270.525C467.047 270.184 467.063 269.848 467.115 269.519C467.162 269.19 467.238 268.875 467.342 268.575C467.451 268.275 467.584 267.989 467.74 267.718C467.901 267.452 468.084 267.208 468.289 266.987L469.082 267.357C469.145 267.395 469.198 267.442 469.241 267.497C469.285 267.557 469.309 267.627 469.314 267.706C469.319 267.81 469.271 267.935 469.168 268.08C469.066 268.231 468.952 268.412 468.828 268.625C468.709 268.842 468.603 269.095 468.508 269.384C468.414 269.678 468.378 270.026 468.401 270.427C468.419 270.754 468.478 271.041 468.578 271.289C468.683 271.537 468.821 271.739 468.991 271.895C469.167 272.056 469.372 272.17 469.608 272.24C469.845 272.309 470.103 272.329 470.384 272.298C470.7 272.264 470.954 272.165 471.147 272C471.339 271.835 471.496 271.626 471.618 271.374C471.74 271.122 471.84 270.839 471.918 270.527C471.997 270.215 472.077 269.895 472.159 269.567C472.247 269.239 472.349 268.917 472.468 268.6C472.586 268.284 472.746 267.995 472.948 267.734C473.156 267.473 473.418 267.253 473.736 267.074C474.059 266.895 474.461 266.78 474.943 266.728C475.329 266.686 475.707 266.721 476.076 266.83C476.446 266.94 476.777 267.121 477.068 267.374C477.366 267.631 477.609 267.958 477.798 268.357C477.992 268.754 478.104 269.22 478.135 269.755C478.169 270.354 478.102 270.914 477.935 271.435C477.773 271.961 477.522 272.429 477.182 272.839L476.4 272.534Z" fill="#6012A5"/>
<path d="M476.964 285.932L476.944 282.537L467.448 283.053L467.439 281.474L476.934 280.959L476.914 277.548L478.258 277.475L478.308 285.859L476.964 285.932Z" fill="#6012A5"/>
<path d="M472.44 300.879C471.631 300.847 470.898 300.689 470.241 300.404C469.588 300.125 469.035 299.743 468.581 299.258C468.132 298.773 467.799 298.2 467.581 297.54C467.364 296.88 467.288 296.154 467.354 295.361C467.419 294.572 467.615 293.857 467.94 293.213C468.266 292.574 468.691 292.032 469.218 291.585C469.748 291.143 470.361 290.807 471.056 290.576C471.756 290.345 472.51 290.245 473.32 290.277C474.124 290.308 474.854 290.467 475.512 290.751C476.169 291.035 476.722 291.418 477.171 291.898C477.625 292.383 477.961 292.956 478.178 293.616C478.401 294.281 478.479 295.007 478.414 295.795C478.348 296.588 478.15 297.304 477.819 297.943C477.494 298.581 477.066 299.124 476.535 299.57C476.009 300.017 475.396 300.353 474.696 300.58C473.996 300.811 473.244 300.91 472.44 300.879ZM472.575 299.258C473.218 299.283 473.803 299.219 474.33 299.066C474.857 298.913 475.313 298.682 475.696 298.374C476.079 298.071 476.385 297.695 476.614 297.246C476.842 296.803 476.98 296.301 477.026 295.741C477.073 295.181 477.019 294.669 476.866 294.205C476.713 293.747 476.471 293.35 476.141 293.013C475.811 292.677 475.396 292.412 474.898 292.219C474.4 292.025 473.829 291.915 473.186 291.89C472.537 291.865 471.95 291.929 471.423 292.082C470.901 292.235 470.448 292.466 470.064 292.774C469.681 293.083 469.375 293.458 469.146 293.902C468.923 294.351 468.787 294.855 468.741 295.415C468.695 295.975 468.746 296.484 468.894 296.943C469.047 297.406 469.289 297.804 469.62 298.135C469.95 298.471 470.361 298.736 470.855 298.929C471.353 299.123 471.926 299.232 472.575 299.258Z" fill="#6012A5"/>
<path d="M476.575 316.415L465.787 315.634L465.941 314.253L473.618 314.808C473.733 314.817 473.856 314.828 473.985 314.842C474.114 314.862 474.246 314.881 474.38 314.901L468.187 310.874C467.955 310.733 467.854 310.533 467.882 310.276L467.907 310.053C467.936 309.796 468.079 309.616 468.338 309.515L475.351 306.377C475.067 306.386 474.802 306.382 474.557 306.364L466.88 305.809L467.034 304.42L477.821 305.2L477.691 306.374C477.675 306.512 477.649 306.618 477.61 306.69C477.576 306.767 477.493 306.836 477.36 306.896L470.503 309.994C470.365 310.054 470.221 310.108 470.069 310.157C469.917 310.206 469.765 310.252 469.614 310.296C469.898 310.422 470.17 310.564 470.43 310.722L476.494 314.687C476.612 314.761 476.679 314.835 476.696 314.911C476.717 314.993 476.72 315.103 476.705 315.241L476.575 316.415Z" fill="#6012A5"/>
<path d="M464.431 327.556L463.141 327.393L464.15 320.806L474.865 322.099L473.856 328.686L472.565 328.53L473.331 323.527L469.936 323.117L469.32 327.144L468.074 326.993L468.69 322.967L465.198 322.546L464.431 327.556Z" fill="#6012A5"/>
<path d="M466.976 336.434C466.893 336.836 466.869 337.197 466.904 337.518C466.938 337.844 467.022 338.126 467.157 338.364C467.296 338.603 467.478 338.795 467.703 338.943C467.932 339.091 468.197 339.193 468.497 339.247C469.108 339.358 469.61 339.24 470.003 338.895C470.396 338.555 470.675 337.986 470.842 337.188L471.149 335.713L467.273 335.01L466.976 336.434ZM460.459 340.357L460.749 338.962C460.808 338.683 460.961 338.5 461.209 338.413L465.428 336.474C465.569 336.413 465.674 336.338 465.743 336.249C465.818 336.161 465.875 336.019 465.916 335.823L466.129 334.803L461.78 334.014L462.106 332.451L472.708 334.373L472.075 337.412C471.933 338.092 471.74 338.664 471.495 339.128C471.254 339.597 470.97 339.967 470.643 340.238C470.32 340.514 469.96 340.696 469.565 340.781C469.168 340.872 468.743 340.876 468.29 340.794C467.921 340.727 467.586 340.608 467.284 340.436C466.983 340.265 466.725 340.045 466.51 339.778C466.299 339.516 466.132 339.212 466.01 338.865C465.889 338.517 465.82 338.137 465.804 337.723C465.645 337.897 465.445 338.036 465.204 338.139L460.459 340.357Z" fill="#6012A5"/>
<path d="M455.916 363.184C455.86 363.104 455.826 363.03 455.812 362.963C455.799 362.895 455.809 362.822 455.844 362.743C455.881 362.659 455.958 362.579 456.077 362.503C456.2 362.43 456.342 362.331 456.503 362.207C456.667 362.09 456.833 361.935 457.003 361.743C457.177 361.553 457.332 361.301 457.469 360.988C457.598 360.694 457.673 360.418 457.695 360.16C457.719 359.909 457.699 359.68 457.634 359.473C457.574 359.268 457.474 359.087 457.334 358.93C457.196 358.78 457.026 358.66 456.825 358.571C456.565 358.455 456.32 358.428 456.091 358.488C455.859 358.552 455.634 358.67 455.415 358.84C455.196 359.011 454.98 359.219 454.766 359.464C454.552 359.709 454.33 359.959 454.101 360.214C453.876 360.471 453.639 360.715 453.389 360.944C453.139 361.173 452.869 361.357 452.578 361.496C452.292 361.637 451.981 361.713 451.644 361.725C451.309 361.744 450.943 361.665 450.544 361.489C450.118 361.3 449.753 361.046 449.449 360.727C449.142 360.413 448.913 360.05 448.762 359.637C448.611 359.224 448.547 358.77 448.572 358.273C448.599 357.784 448.729 357.27 448.964 356.733C449.105 356.411 449.273 356.112 449.468 355.836C449.659 355.559 449.867 355.308 450.093 355.085C450.324 354.864 450.567 354.668 450.823 354.497C451.082 354.333 451.349 354.201 451.623 354.099L452.122 354.83C452.157 354.896 452.18 354.965 452.192 355.037C452.201 355.114 452.189 355.189 452.157 355.264C452.114 355.362 452.016 355.452 451.862 355.535C451.706 355.622 451.527 355.732 451.325 355.865C451.125 356.005 450.918 356.184 450.705 356.401C450.49 356.624 450.3 356.924 450.135 357.303C450 357.611 449.918 357.903 449.888 358.18C449.863 358.458 449.886 358.711 449.958 358.938C450.032 359.172 450.153 359.379 450.321 359.559C450.488 359.739 450.697 359.884 450.948 359.996C451.23 360.121 451.49 360.155 451.729 360.099C451.967 360.043 452.196 359.93 452.415 359.759C452.634 359.589 452.848 359.38 453.057 359.133C453.267 358.886 453.482 358.633 453.702 358.374C453.927 358.116 454.162 357.872 454.407 357.641C454.653 357.41 454.921 357.225 455.211 357.086C455.506 356.949 455.829 356.878 456.179 356.871C456.534 356.867 456.927 356.96 457.357 357.151C457.702 357.304 458.005 357.522 458.266 357.805C458.528 358.088 458.723 358.417 458.854 358.793C458.986 359.175 459.041 359.595 459.017 360.052C458.998 360.512 458.878 360.994 458.658 361.498C458.411 362.063 458.097 362.543 457.716 362.937C457.338 363.338 456.911 363.642 456.436 363.849L455.916 363.184Z" fill="#6012A5"/>
<path d="M443.984 370.319L442.862 369.714L445.974 363.679L455.314 368.642L452.202 374.677L451.077 374.079L453.441 369.495L450.481 367.923L448.579 371.612L447.493 371.034L449.395 367.345L446.351 365.728L443.984 370.319Z" fill="#6012A5"/>
<path d="M440.884 384.518L437.248 382.536C437.164 381.861 437.18 381.2 437.297 380.554C437.418 379.91 437.647 379.262 437.984 378.609C438.388 377.825 438.871 377.179 439.432 376.671C439.991 376.168 440.596 375.808 441.245 375.591C441.895 375.374 442.575 375.303 443.284 375.378C443.992 375.458 444.696 375.689 445.397 376.071C446.102 376.456 446.688 376.922 447.154 377.471C447.622 378.026 447.952 378.633 448.144 379.292C448.341 379.953 448.396 380.653 448.31 381.39C448.225 382.135 447.985 382.89 447.591 383.656C447.391 384.043 447.178 384.386 446.952 384.684C446.724 384.987 446.485 385.252 446.235 385.479C445.984 385.706 445.724 385.899 445.454 386.057C445.186 386.223 444.907 386.36 444.619 386.468L444.208 385.716C444.141 385.598 444.121 385.481 444.149 385.363C444.176 385.245 444.258 385.146 444.394 385.064C444.52 384.982 444.663 384.893 444.824 384.796C444.982 384.704 445.149 384.578 445.325 384.42C445.499 384.267 445.679 384.074 445.865 383.841C446.052 383.608 446.237 383.313 446.42 382.957C446.695 382.426 446.858 381.9 446.909 381.38C446.966 380.863 446.916 380.368 446.76 379.896C446.604 379.424 446.347 378.987 445.989 378.584C445.636 378.184 445.186 377.835 444.641 377.538C444.07 377.226 443.513 377.032 442.97 376.956C442.432 376.881 441.924 376.913 441.448 377.052C440.974 377.197 440.54 377.448 440.145 377.805C439.749 378.165 439.407 378.623 439.122 379.177C439.01 379.393 438.918 379.599 438.844 379.796C438.772 379.999 438.714 380.198 438.669 380.393C438.624 380.588 438.593 380.782 438.577 380.975C438.558 381.172 438.547 381.371 438.544 381.571L440.498 382.637L441.237 381.204C441.283 381.114 441.347 381.054 441.429 381.024C441.509 380.998 441.588 381.006 441.666 381.049L442.451 381.477L440.884 384.518Z" fill="#6012A5"/>
<path d="M437.413 400.613L428.439 394.885L429.163 393.674L435.549 397.751C435.645 397.812 435.746 397.88 435.852 397.953C435.955 398.031 436.06 398.11 436.167 398.191L432.547 391.581C432.408 391.342 432.406 391.11 432.54 390.885L432.657 390.689C432.792 390.464 432.993 390.364 433.259 390.39L440.654 390.731C440.405 390.608 440.178 390.482 439.974 390.351L433.588 386.274L434.315 385.057L443.289 390.786L442.674 391.814C442.602 391.936 442.533 392.021 442.47 392.07C442.407 392.126 442.306 392.151 442.165 392.146L434.923 391.839C434.778 391.831 434.63 391.814 434.478 391.789C434.326 391.764 434.175 391.736 434.026 391.707C434.217 391.955 434.391 392.213 434.548 392.481L438.083 398.973C438.153 399.096 438.179 399.196 438.161 399.275C438.145 399.36 438.1 399.464 438.028 399.585L437.413 400.613Z" fill="#6012A5"/>
<path d="M422.706 404.387L421.669 403.627L425.43 398.042L434.074 404.303L430.314 409.888L429.272 409.133L432.129 404.892L429.389 402.908L427.091 406.321L426.085 405.593L428.384 402.18L425.567 400.139L422.706 404.387Z" fill="#6012A5"/>
<path d="M419.95 420.608L412.481 412.983L413.045 412.391C413.132 412.3 413.221 412.239 413.311 412.209C413.398 412.182 413.506 412.174 413.634 412.182L423.324 413.312C423.224 413.224 423.126 413.136 423.033 413.047C422.936 412.962 422.847 412.879 422.768 412.798L417.644 407.567L418.62 406.544L426.089 414.169L425.515 414.771C425.418 414.873 425.333 414.938 425.26 414.964C425.19 414.994 425.086 414.999 424.947 414.98L415.241 413.855C415.352 413.947 415.458 414.037 415.559 414.125C415.659 414.221 415.751 414.311 415.835 414.396L420.921 419.589L419.95 420.608Z" fill="#6012A5"/>
<path d="M410.22 428.298L412.639 425.841L406.208 419.044L407.333 417.902L413.764 424.699L416.193 422.232L417.103 423.194L411.13 429.26L410.22 428.298Z" fill="#6012A5"/>
<path d="M399.908 430.1L403.683 432.344C403.945 432.494 404.253 432.702 404.606 432.969C404.518 432.764 404.441 432.571 404.375 432.387C404.306 432.206 404.248 432.041 404.203 431.892L402.906 427.603L399.908 430.1ZM395.026 428.991L395.979 428.197C396.087 428.107 396.197 428.06 396.31 428.057C396.422 428.054 396.527 428.082 396.625 428.143L398.879 429.486L402.556 426.424L401.777 423.851C401.747 423.754 401.744 423.644 401.769 423.52C401.797 423.399 401.863 423.296 401.968 423.209L402.921 422.415L406.139 433.627L404.89 434.667L395.026 428.991Z" fill="#6012A5"/>
<path d="M390.895 442.91L393.731 440.951L388.69 433.068L390.009 432.157L395.05 440.04L397.9 438.072L398.613 439.187L391.608 444.025L390.895 442.91Z" fill="#6012A5"/>
<path d="M381.938 437.896L383.408 437.221L387.522 447.078L386.052 447.753L381.938 437.896Z" fill="#6012A5"/>
<path d="M370.019 448.179C369.712 447.442 369.548 446.71 369.529 445.983C369.506 445.262 369.617 444.579 369.86 443.932C370.105 443.291 370.476 442.708 370.973 442.185C371.47 441.663 372.085 441.233 372.817 440.896C373.546 440.561 374.264 440.379 374.971 440.348C375.674 440.319 376.334 440.428 376.949 440.674C377.563 440.927 378.116 441.305 378.61 441.809C379.106 442.317 379.508 442.94 379.815 443.677C380.121 444.409 380.284 445.138 380.303 445.866C380.323 446.593 380.213 447.276 379.972 447.916C379.729 448.562 379.359 449.147 378.862 449.67C378.362 450.199 377.749 450.631 377.02 450.966C376.288 451.303 375.569 451.483 374.864 451.507C374.161 451.536 373.5 451.425 372.883 451.174C372.267 450.928 371.713 450.55 371.222 450.039C370.726 449.531 370.325 448.911 370.019 448.179ZM371.517 447.49C371.762 448.076 372.061 448.565 372.416 448.959C372.772 449.352 373.166 449.642 373.599 449.83C374.028 450.021 374.489 450.106 374.983 450.086C375.472 450.068 375.976 449.941 376.493 449.703C377.011 449.465 377.444 449.162 377.793 448.795C378.137 448.429 378.39 448.016 378.552 447.554C378.714 447.092 378.778 446.591 378.743 446.051C378.709 445.51 378.569 444.947 378.325 444.362C378.078 443.771 377.778 443.28 377.423 442.886C377.069 442.498 376.676 442.21 376.243 442.022C375.81 441.833 375.348 441.748 374.859 441.766C374.367 441.79 373.862 441.921 373.345 442.159C372.827 442.397 372.395 442.696 372.049 443.057C371.7 443.425 371.447 443.838 371.29 444.298C371.128 444.76 371.063 445.258 371.096 445.794C371.13 446.335 371.271 446.9 371.517 447.49Z" fill="#6012A5"/>
<path d="M360.104 459.593L355.99 449.736L356.732 449.395C356.846 449.342 356.951 449.319 357.046 449.324C357.137 449.332 357.24 449.363 357.356 449.419L365.933 454.059C365.872 453.94 365.814 453.822 365.76 453.705C365.701 453.59 365.65 453.48 365.606 453.375L362.784 446.614L364.069 446.023L368.183 455.88L367.427 456.228C367.299 456.286 367.196 456.315 367.119 456.312C367.043 456.314 366.944 456.28 366.823 456.211L358.229 451.57C358.298 451.697 358.363 451.819 358.424 451.939C358.482 452.065 358.534 452.183 358.58 452.293L361.382 459.006L360.104 459.593Z" fill="#6012A5"/>
<circle cx="277.82" cy="278.653" r="60.8404" fill="#FFCFC3"/>
<rect width="98.3447" height="33.3372" transform="translate(228.647 261.985)" fill="#FFCFC3"/>
<path d="M235.532 272.188C235.602 272.188 235.662 272.215 235.712 272.27L236.203 272.806C235.86 273.211 235.442 273.524 234.948 273.746C234.458 273.967 233.867 274.078 233.175 274.078C232.568 274.078 232.018 273.973 231.524 273.763C231.034 273.553 230.614 273.259 230.263 272.882C229.917 272.505 229.649 272.054 229.458 271.529C229.268 271.004 229.173 270.426 229.173 269.796C229.173 269.166 229.272 268.588 229.47 268.063C229.672 267.538 229.954 267.087 230.316 266.71C230.678 266.333 231.109 266.039 231.611 265.829C232.117 265.619 232.675 265.514 233.285 265.514C233.881 265.514 234.41 265.611 234.872 265.806C235.335 266 235.738 266.259 236.08 266.581L235.672 267.159C235.644 267.202 235.609 267.237 235.567 267.264C235.528 267.291 235.475 267.305 235.409 267.305C235.335 267.305 235.248 267.268 235.147 267.194C235.049 267.12 234.919 267.038 234.756 266.949C234.596 266.856 234.398 266.772 234.161 266.698C233.923 266.624 233.628 266.587 233.274 266.587C232.858 266.587 232.477 266.661 232.13 266.809C231.784 266.953 231.485 267.163 231.232 267.439C230.983 267.711 230.789 268.048 230.649 268.448C230.512 268.845 230.444 269.294 230.444 269.796C230.444 270.306 230.516 270.759 230.66 271.155C230.804 271.552 231.002 271.888 231.255 272.165C231.508 272.441 231.806 272.651 232.148 272.795C232.49 272.939 232.86 273.011 233.256 273.011C233.497 273.011 233.713 272.997 233.904 272.97C234.098 272.939 234.275 272.894 234.435 272.836C234.598 272.777 234.752 272.703 234.896 272.614C235.04 272.52 235.182 272.41 235.322 272.281C235.353 272.254 235.386 272.233 235.421 272.217C235.456 272.198 235.493 272.188 235.532 272.188ZM239.826 269.644C240.145 269.644 240.425 269.605 240.666 269.528C240.911 269.45 241.115 269.341 241.278 269.201C241.442 269.057 241.564 268.888 241.646 268.693C241.727 268.495 241.768 268.277 241.768 268.04C241.768 267.558 241.609 267.194 241.29 266.949C240.975 266.704 240.5 266.581 239.866 266.581H238.694V269.644H239.826ZM243.734 273.985H242.626C242.404 273.985 242.243 273.897 242.142 273.722L240.071 270.817C240.005 270.72 239.933 270.652 239.855 270.613C239.777 270.57 239.66 270.549 239.505 270.549H238.694V273.985H237.451V265.607H239.866C240.407 265.607 240.872 265.664 241.261 265.776C241.654 265.885 241.976 266.043 242.229 266.249C242.486 266.451 242.675 266.696 242.795 266.984C242.92 267.272 242.982 267.595 242.982 267.952C242.982 268.244 242.937 268.518 242.848 268.775C242.758 269.032 242.626 269.263 242.451 269.469C242.28 269.672 242.07 269.847 241.821 269.994C241.572 270.142 241.29 270.255 240.975 270.333C241.13 270.426 241.265 270.556 241.377 270.724L243.734 273.985ZM253.621 265.607V273.985H252.536V268.022C252.536 267.933 252.538 267.838 252.542 267.737C252.55 267.635 252.558 267.532 252.565 267.427L249.777 272.544C249.68 272.734 249.53 272.83 249.328 272.83H249.153C248.95 272.83 248.803 272.734 248.709 272.544L245.868 267.41C245.891 267.628 245.903 267.832 245.903 268.022V273.985H244.812V265.607H245.734C245.843 265.607 245.926 265.619 245.985 265.642C246.047 265.662 246.105 265.72 246.16 265.817L248.96 270.834C249.014 270.936 249.065 271.043 249.112 271.155C249.158 271.268 249.203 271.381 249.246 271.494C249.328 271.264 249.423 271.043 249.532 270.829L252.28 265.817C252.33 265.72 252.385 265.662 252.443 265.642C252.505 265.619 252.591 265.607 252.7 265.607H253.621ZM267.454 265.607V273.985H266.369V268.022C266.369 267.933 266.371 267.838 266.375 267.737C266.383 267.635 266.391 267.532 266.398 267.427L263.61 272.544C263.513 272.734 263.363 272.83 263.161 272.83H262.986C262.783 272.83 262.635 272.734 262.542 272.544L259.701 267.41C259.724 267.628 259.736 267.832 259.736 268.022V273.985H258.645V265.607H259.567C259.676 265.607 259.759 265.619 259.818 265.642C259.88 265.662 259.938 265.72 259.993 265.817L262.793 270.834C262.847 270.936 262.898 271.043 262.945 271.155C262.991 271.268 263.036 271.381 263.079 271.494C263.161 271.264 263.256 271.043 263.365 270.829L266.113 265.817C266.163 265.72 266.218 265.662 266.276 265.642C266.338 265.619 266.424 265.607 266.533 265.607H267.454ZM273.978 270.864L272.736 267.614C272.646 267.392 272.557 267.112 272.467 266.774C272.424 266.941 272.38 267.097 272.333 267.241C272.29 267.385 272.247 267.513 272.205 267.626L270.968 270.864H273.978ZM276.434 273.985H275.478C275.369 273.985 275.279 273.958 275.209 273.903C275.139 273.849 275.089 273.779 275.057 273.693L274.317 271.75H270.624L269.883 273.693C269.855 273.767 269.805 273.835 269.731 273.897C269.657 273.956 269.568 273.985 269.463 273.985H268.506L271.843 265.607H273.097L276.434 273.985ZM279.855 269.644C280.174 269.644 280.454 269.605 280.695 269.528C280.94 269.45 281.144 269.341 281.307 269.201C281.471 269.057 281.593 268.888 281.675 268.693C281.757 268.495 281.797 268.277 281.797 268.04C281.797 267.558 281.638 267.194 281.319 266.949C281.004 266.704 280.529 266.581 279.896 266.581H278.723V269.644H279.855ZM283.763 273.985H282.655C282.433 273.985 282.272 273.897 282.171 273.722L280.1 270.817C280.034 270.72 279.962 270.652 279.884 270.613C279.806 270.57 279.689 270.549 279.534 270.549H278.723V273.985H277.48V265.607H279.896C280.436 265.607 280.901 265.664 281.29 265.776C281.683 265.885 282.005 266.043 282.258 266.249C282.515 266.451 282.704 266.696 282.824 266.984C282.949 267.272 283.011 267.595 283.011 267.952C283.011 268.244 282.966 268.518 282.877 268.775C282.787 269.032 282.655 269.263 282.48 269.469C282.309 269.672 282.099 269.847 281.85 269.994C281.601 270.142 281.319 270.255 281.004 270.333C281.16 270.426 281.294 270.556 281.407 270.724L283.763 273.985ZM286.084 269.23H286.492C286.64 269.23 286.759 269.213 286.848 269.178C286.941 269.139 287.025 269.075 287.099 268.985L289.765 265.887C289.851 265.782 289.938 265.71 290.028 265.671C290.117 265.629 290.228 265.607 290.36 265.607H291.422L288.318 269.178C288.24 269.279 288.163 269.36 288.085 269.423C288.011 269.485 287.933 269.537 287.851 269.58C288.065 269.654 288.252 269.804 288.412 270.029L291.638 273.985H290.558C290.481 273.985 290.413 273.979 290.354 273.967C290.3 273.956 290.251 273.94 290.208 273.921C290.17 273.897 290.133 273.87 290.098 273.839C290.066 273.808 290.037 273.771 290.01 273.728L287.251 270.461C287.212 270.411 287.173 270.368 287.134 270.333C287.095 270.298 287.05 270.271 287 270.251C286.949 270.228 286.891 270.212 286.825 270.204C286.759 270.193 286.681 270.187 286.591 270.187H286.084V273.985H284.841V265.607H286.084V269.23ZM297.844 272.976L297.839 273.985H292.646V265.607H297.839V266.616H293.895V269.271H297.069V270.245H293.895V272.976H297.844ZM305.092 266.646H302.432V273.985H301.195V266.646H298.523V265.607H305.092V266.646ZM307.546 273.985H306.297V265.607H307.546V273.985ZM316.474 265.607V273.985H315.844C315.746 273.985 315.665 273.967 315.599 273.932C315.536 273.897 315.472 273.841 315.406 273.763L310.675 267.643C310.682 267.748 310.688 267.851 310.692 267.952C310.7 268.054 310.704 268.149 310.704 268.238V273.985H309.613V265.607H310.255C310.364 265.607 310.445 265.621 310.5 265.648C310.554 265.671 310.614 265.728 310.68 265.817L315.424 271.943C315.412 271.83 315.402 271.721 315.394 271.616C315.39 271.507 315.389 271.406 315.389 271.313V265.607H316.474ZM325.384 269.907V273.174C324.96 273.477 324.509 273.705 324.03 273.856C323.552 274.004 323.031 274.078 322.467 274.078C321.79 274.078 321.177 273.973 320.629 273.763C320.084 273.553 319.62 273.259 319.235 272.882C318.85 272.505 318.552 272.054 318.342 271.529C318.136 271.004 318.033 270.426 318.033 269.796C318.033 269.162 318.132 268.583 318.33 268.057C318.533 267.529 318.82 267.077 319.194 266.704C319.567 266.327 320.018 266.035 320.547 265.829C321.08 265.619 321.677 265.514 322.338 265.514C322.673 265.514 322.982 265.539 323.266 265.59C323.554 265.64 323.82 265.712 324.065 265.806C324.31 265.899 324.536 266.012 324.742 266.144C324.952 266.272 325.146 266.418 325.325 266.581L324.969 267.142C324.915 267.231 324.843 267.287 324.754 267.311C324.664 267.334 324.567 267.313 324.462 267.247C324.361 267.188 324.248 267.12 324.124 267.042C324.003 266.965 323.857 266.893 323.686 266.827C323.519 266.76 323.322 266.704 323.097 266.657C322.871 266.611 322.605 266.587 322.297 266.587C321.839 266.587 321.424 266.663 321.055 266.815C320.685 266.963 320.37 267.177 320.11 267.457C319.849 267.737 319.649 268.075 319.509 268.472C319.369 268.865 319.299 269.306 319.299 269.796C319.299 270.309 319.373 270.77 319.52 271.179C319.668 271.583 319.876 271.927 320.145 272.211C320.417 272.491 320.746 272.705 321.131 272.853C321.52 273.001 321.953 273.075 322.432 273.075C322.618 273.075 322.791 273.065 322.951 273.046C323.114 273.022 323.27 272.991 323.418 272.952C323.565 272.913 323.707 272.865 323.843 272.806C323.983 272.748 324.122 272.684 324.258 272.614V270.858H323.021C322.943 270.858 322.879 270.834 322.828 270.788C322.782 270.741 322.758 270.683 322.758 270.613V269.907H325.384Z" fill="#85240C"/>
<path d="M254.746 286.975C254.707 287.041 254.667 287.089 254.624 287.12C254.581 287.152 254.527 287.167 254.46 287.167C254.39 287.167 254.311 287.136 254.221 287.074C254.132 287.008 254.019 286.936 253.883 286.858C253.751 286.776 253.591 286.704 253.405 286.642C253.218 286.576 252.994 286.543 252.734 286.543C252.489 286.543 252.273 286.576 252.086 286.642C251.903 286.704 251.75 286.792 251.625 286.905C251.501 287.014 251.405 287.144 251.339 287.296C251.277 287.443 251.246 287.605 251.246 287.78C251.246 288.005 251.302 288.192 251.415 288.34C251.532 288.488 251.683 288.614 251.87 288.719C252.057 288.824 252.269 288.915 252.506 288.993C252.743 289.071 252.986 289.153 253.235 289.238C253.484 289.32 253.727 289.415 253.965 289.524C254.202 289.633 254.414 289.771 254.6 289.938C254.787 290.102 254.937 290.304 255.05 290.545C255.166 290.782 255.225 291.074 255.225 291.42C255.225 291.79 255.161 292.136 255.032 292.459C254.908 292.781 254.725 293.063 254.484 293.305C254.243 293.546 253.945 293.736 253.591 293.876C253.241 294.012 252.842 294.08 252.395 294.08C252.127 294.08 251.866 294.053 251.613 293.999C251.361 293.948 251.121 293.876 250.896 293.783C250.67 293.686 250.458 293.571 250.26 293.439C250.066 293.303 249.89 293.151 249.735 292.984L250.091 292.389C250.126 292.342 250.167 292.303 250.213 292.272C250.264 292.241 250.32 292.225 250.382 292.225C250.464 292.225 250.558 292.268 250.663 292.354C250.771 292.439 250.904 292.534 251.059 292.639C251.219 292.741 251.407 292.834 251.625 292.919C251.847 293.005 252.115 293.048 252.43 293.048C252.687 293.048 252.916 293.015 253.119 292.949C253.321 292.879 253.49 292.781 253.626 292.657C253.766 292.529 253.873 292.375 253.947 292.196C254.021 292.017 254.058 291.819 254.058 291.601C254.058 291.356 254.002 291.156 253.889 291C253.776 290.845 253.626 290.714 253.44 290.609C253.253 290.504 253.041 290.415 252.804 290.341C252.566 290.267 252.323 290.191 252.074 290.113C251.825 290.032 251.582 289.938 251.345 289.833C251.108 289.728 250.896 289.592 250.709 289.425C250.523 289.254 250.373 289.042 250.26 288.789C250.147 288.532 250.091 288.217 250.091 287.844C250.091 287.544 250.149 287.255 250.266 286.975C250.382 286.695 250.552 286.448 250.773 286.234C250.999 286.016 251.275 285.843 251.602 285.714C251.928 285.582 252.302 285.516 252.722 285.516C253.193 285.516 253.624 285.592 254.017 285.744C254.414 285.891 254.758 286.105 255.05 286.385L254.746 286.975ZM262.47 286.648H259.81V293.987H258.573V286.648H255.901V285.609H262.47V286.648ZM266.049 289.647C266.368 289.647 266.648 289.608 266.889 289.53C267.134 289.452 267.339 289.343 267.502 289.203C267.665 289.059 267.788 288.89 267.87 288.696C267.951 288.497 267.992 288.28 267.992 288.042C267.992 287.56 267.833 287.196 267.514 286.951C267.199 286.706 266.724 286.584 266.09 286.584H264.918V289.647H266.049ZM269.958 293.987H268.85C268.628 293.987 268.467 293.9 268.365 293.725L266.294 290.819C266.228 290.722 266.156 290.654 266.079 290.615C266.001 290.572 265.884 290.551 265.728 290.551H264.918V293.987H263.675V285.609H266.09C266.631 285.609 267.096 285.666 267.485 285.779C267.877 285.888 268.2 286.045 268.453 286.251C268.71 286.453 268.898 286.698 269.019 286.986C269.143 287.274 269.206 287.597 269.206 287.955C269.206 288.246 269.161 288.521 269.071 288.777C268.982 289.034 268.85 289.265 268.675 289.472C268.504 289.674 268.294 289.849 268.045 289.997C267.796 290.144 267.514 290.257 267.199 290.335C267.354 290.428 267.488 290.559 267.601 290.726L269.958 293.987ZM275.487 290.866L274.244 287.616C274.155 287.395 274.066 287.115 273.976 286.776C273.933 286.944 273.889 287.099 273.842 287.243C273.799 287.387 273.756 287.515 273.714 287.628L272.477 290.866H275.487ZM277.943 293.987H276.986C276.878 293.987 276.788 293.96 276.718 293.905C276.648 293.851 276.598 293.781 276.566 293.695L275.826 291.753H272.133L271.392 293.695C271.364 293.769 271.314 293.837 271.24 293.9C271.166 293.958 271.077 293.987 270.972 293.987H270.015L273.352 285.609H274.606L277.943 293.987ZM283.88 286.648H281.22V293.987H279.983V286.648H277.311V285.609H283.88V286.648ZM290.283 292.978L290.278 293.987H285.085V285.609H290.278V286.619H286.334V289.273H289.507V290.248H286.334V292.978H290.283ZM298.475 289.909V293.176C298.051 293.48 297.6 293.707 297.121 293.859C296.643 294.007 296.122 294.08 295.558 294.08C294.881 294.08 294.268 293.975 293.72 293.765C293.175 293.555 292.711 293.262 292.326 292.884C291.941 292.507 291.643 292.056 291.433 291.531C291.227 291.006 291.124 290.428 291.124 289.798C291.124 289.164 291.223 288.585 291.421 288.06C291.624 287.531 291.911 287.08 292.285 286.706C292.658 286.329 293.109 286.037 293.638 285.831C294.171 285.621 294.768 285.516 295.429 285.516C295.764 285.516 296.073 285.541 296.357 285.592C296.645 285.643 296.911 285.714 297.156 285.808C297.401 285.901 297.627 286.014 297.833 286.146C298.043 286.275 298.237 286.42 298.416 286.584L298.06 287.144C298.006 287.233 297.934 287.29 297.845 287.313C297.755 287.336 297.658 287.315 297.553 287.249C297.452 287.19 297.339 287.122 297.214 287.045C297.094 286.967 296.948 286.895 296.777 286.829C296.61 286.763 296.413 286.706 296.188 286.66C295.962 286.613 295.696 286.59 295.388 286.59C294.929 286.59 294.515 286.665 294.146 286.817C293.776 286.965 293.461 287.179 293.201 287.459C292.94 287.739 292.74 288.077 292.6 288.474C292.46 288.867 292.39 289.308 292.39 289.798C292.39 290.312 292.464 290.773 292.611 291.181C292.759 291.585 292.967 291.93 293.236 292.214C293.508 292.494 293.837 292.708 294.222 292.855C294.611 293.003 295.044 293.077 295.523 293.077C295.709 293.077 295.882 293.067 296.042 293.048C296.205 293.025 296.361 292.993 296.509 292.955C296.656 292.916 296.798 292.867 296.934 292.809C297.074 292.75 297.213 292.686 297.349 292.616V290.86H296.112C296.034 290.86 295.97 290.837 295.919 290.79C295.873 290.743 295.849 290.685 295.849 290.615V289.909H298.475ZM303.205 290.673V293.987H301.968V290.673L298.899 285.609H299.99C300.099 285.609 300.187 285.637 300.253 285.691C300.319 285.742 300.374 285.81 300.416 285.895L302.237 289.028C302.31 289.172 302.377 289.308 302.435 289.437C302.497 289.565 302.552 289.691 302.598 289.816C302.641 289.691 302.69 289.565 302.744 289.437C302.802 289.308 302.869 289.172 302.942 289.028L304.757 285.895C304.796 285.825 304.848 285.761 304.914 285.703C304.984 285.641 305.072 285.609 305.177 285.609H306.274L303.205 290.673Z" fill="#85240C"/>
</svg>
