<svg width="29" height="30" viewBox="0 0 29 30" fill="none" xmlns="http://www.w3.org/2000/svg">
<circle cx="14.5" cy="15.126" r="14.1282" stroke="#AAAAAA" stroke-width="0.74359"/>
<path d="M7.51074 14.9401C7.20274 14.9401 6.95305 15.1898 6.95305 15.4978C6.95305 15.8058 7.20274 16.0555 7.51074 16.0555V14.9401ZM22.6274 15.8922C22.8452 15.6744 22.8452 15.3212 22.6274 15.1035L19.0783 11.5543C18.8605 11.3365 18.5074 11.3365 18.2896 11.5543C18.0718 11.7721 18.0718 12.1252 18.2896 12.343L21.4444 15.4978L18.2896 18.6526C18.0718 18.8704 18.0718 19.2235 18.2896 19.4413C18.5074 19.6591 18.8605 19.6591 19.0783 19.4413L22.6274 15.8922ZM7.51074 16.0555H22.2331V14.9401H7.51074V16.0555Z" fill="#AAAAAA"/>
</svg>
