<svg width="10" height="11" viewBox="0 0 10 11" fill="none" xmlns="http://www.w3.org/2000/svg">
<path fill-rule="evenodd" clip-rule="evenodd" d="M5 0.5C2.24219 0.5 0 2.74219 0 5.5C0 8.25781 2.24219 10.5 5 10.5C7.75781 10.5 10 8.25781 10 5.5C10 2.74219 7.75781 0.5 5 0.5Z" fill="#61C8D2"/>
<path fill-rule="evenodd" clip-rule="evenodd" d="M7.41894 3.81445C7.54004 3.93555 7.54004 4.13477 7.41894 4.25586L4.48926 7.18555C4.42871 7.24609 4.34863 7.27734 4.26855 7.27734C4.18848 7.27734 4.1084 7.24609 4.04785 7.18555L2.58301 5.7207C2.46191 5.59961 2.46191 5.40039 2.58301 5.2793C2.7041 5.1582 2.90332 5.1582 3.02441 5.2793L4.26855 6.52344L6.97754 3.81445C7.09863 3.69141 7.29785 3.69141 7.41894 3.81445Z" fill="white"/>
</svg>
