<svg width="159" height="19" viewBox="0 0 159 19" fill="none" xmlns="http://www.w3.org/2000/svg">
<path d="M12.2838 1.31789C12.2838 1.31789 12.2126 1.50954 12.0873 1.84615C11.9595 2.18031 11.7801 2.66189 11.5639 3.23684C11.4558 3.52677 11.3379 3.83882 11.215 4.16806C11.0897 4.49731 10.9595 4.84621 10.8243 5.20739C10.6892 5.56612 10.5491 5.9396 10.4066 6.31798C10.2641 6.69637 10.1216 7.07967 9.97665 7.46542C9.83169 7.84872 9.68918 8.23202 9.54667 8.61041C9.40416 8.98879 9.26411 9.36226 9.12897 9.72099C8.99383 10.0822 8.86361 10.4311 8.7383 10.7603C8.61545 11.0896 8.49751 11.4016 8.3894 11.6915C8.17318 12.2665 7.99381 12.7481 7.86605 13.0822C7.74074 13.4189 7.66948 13.6105 7.66948 13.6105C7.66948 13.6105 7.08471 13.613 6.50239 13.6105C5.91761 13.613 5.33529 13.613 5.33529 13.613C5.33529 13.613 5.26158 13.4189 5.13381 13.0822C5.0085 12.7481 4.82668 12.2665 4.61046 11.6915C4.50235 11.4016 4.38441 11.0896 4.2591 10.7603C4.13379 10.4311 4.00357 10.0822 3.86843 9.72099C3.73329 9.36226 3.59078 8.98879 3.44827 8.61041C3.30577 8.23202 3.1608 7.84872 3.01583 7.46297C2.87333 7.07967 2.72836 6.69637 2.58585 6.31798C2.44334 5.9396 2.30083 5.56612 2.1657 5.20739C2.03056 4.84621 1.90033 4.49731 1.77502 4.16806C1.64971 3.83882 1.53178 3.52677 1.42367 3.23684C1.20745 2.66189 1.02562 2.18031 0.900315 1.84615C0.772548 1.50954 0.701294 1.31789 0.701294 1.31789C0.701294 1.31789 1.23939 1.31789 1.77994 1.31789C2.31803 1.31543 2.85858 1.31543 2.85858 1.31543C2.85858 1.31543 3.08463 1.95672 3.42616 2.91497C3.59815 3.39409 3.79718 3.95184 4.01094 4.55136C4.11659 4.85112 4.22716 5.16071 4.34018 5.47521C4.45075 5.78972 4.56623 6.10913 4.67926 6.42855C4.79228 6.74796 4.90776 7.06738 5.01833 7.38188C5.13135 7.69639 5.24192 8.00597 5.34757 8.30573C5.56134 8.90525 5.76036 9.463 5.93235 9.94213C6.27388 10.9004 6.50239 11.5392 6.50239 11.5392C6.50239 11.5392 6.73089 10.9004 7.07242 9.94213C7.24442 9.463 7.44589 8.90525 7.65966 8.30573C7.76777 8.00597 7.87833 7.69639 7.99136 7.38188C8.10438 7.06738 8.21741 6.74796 8.33289 6.42855C8.44837 6.10913 8.56139 5.78972 8.67442 5.47521C8.78744 5.16071 8.89801 4.85112 9.00612 4.55136C9.21988 3.95184 9.42136 3.39409 9.59335 2.91497C9.93488 1.95672 10.1658 1.31543 10.1658 1.31543C10.1658 1.31543 10.6941 1.31543 11.2248 1.31543C11.7556 1.31543 12.2838 1.31789 12.2838 1.31789ZM22.9081 8.49984C22.9081 8.86594 22.8811 9.19273 22.8368 9.49003C22.8368 9.49003 22.37 9.49003 21.6722 9.49003C21.3233 9.48757 20.9154 9.49003 20.4781 9.48757C20.0432 9.49003 19.5763 9.48757 19.112 9.48757C18.6476 9.49003 18.1807 9.49003 17.7458 9.49003C17.3085 9.49003 16.9006 9.49003 16.5517 9.49003C15.8539 9.49003 15.3895 9.49003 15.3895 9.49003C15.419 9.87824 15.505 10.2296 15.65 10.5416C15.7949 10.8537 15.9964 11.1289 16.2544 11.3648C16.5149 11.6006 16.8023 11.7751 17.1218 11.8955C17.4412 12.011 17.7876 12.0699 18.166 12.0724C18.709 12.0724 19.1709 11.9569 19.5542 11.7309C19.9375 11.5024 20.2422 11.1633 20.4658 10.7112C20.4658 10.7112 21.0088 10.7087 21.5518 10.7087C22.0973 10.7087 22.6427 10.7112 22.6427 10.7112C22.4929 11.1584 22.2865 11.5662 22.0187 11.9348C21.7508 12.3034 21.4216 12.6326 21.0334 12.9225C20.6501 13.2051 20.2176 13.4164 19.741 13.5564C19.2618 13.699 18.736 13.7678 18.166 13.7702C17.6992 13.7678 17.2569 13.7186 16.8392 13.613C16.419 13.5098 16.0235 13.355 15.6524 13.1486C15.2863 12.9373 14.9595 12.6867 14.6721 12.3918C14.3821 12.0945 14.1315 11.7579 13.9202 11.3795C13.7138 10.9987 13.559 10.5859 13.4534 10.1411C13.3526 9.70134 13.2986 9.22958 13.2986 8.72835C13.301 8.22711 13.3502 7.75535 13.4509 7.318C13.5517 6.87819 13.7015 6.47032 13.903 6.09193C14.107 5.71109 14.3551 5.37202 14.6401 5.07471C14.9276 4.77987 15.2544 4.53171 15.6205 4.32286C15.9915 4.11647 16.3871 3.96167 16.8122 3.85848C17.2372 3.75774 17.6893 3.70614 18.166 3.70614C18.6255 3.70368 19.0604 3.75528 19.4707 3.85356C19.8786 3.9543 20.2643 4.10418 20.6255 4.30566C20.9842 4.50714 21.3036 4.74793 21.5838 5.03049C21.8639 5.31305 22.1046 5.63738 22.3061 6.00348C22.5051 6.36221 22.655 6.75042 22.7558 7.16566C22.8565 7.58336 22.9056 8.02809 22.9081 8.49984ZM20.8 7.86346C20.7901 7.11898 20.5223 6.52437 20.0039 6.07473C19.7459 5.85114 19.4559 5.68161 19.1341 5.57104C18.8122 5.45801 18.4584 5.4015 18.0775 5.4015C17.3797 5.40396 16.7876 5.62509 16.2913 6.07473C16.0431 6.29341 15.8465 6.5514 15.6991 6.8487C15.5517 7.14601 15.4534 7.48262 15.4067 7.86346C15.4067 7.86346 15.7433 7.86346 16.2495 7.86346C16.7557 7.86346 17.4289 7.86346 18.1021 7.86101C18.7778 7.86346 19.451 7.86101 19.9572 7.86101C20.4633 7.86346 20.8 7.86346 20.8 7.86346ZM28.8198 3.70614C29.1957 3.70614 29.5495 3.74299 29.8837 3.81916C30.2178 3.89533 30.5299 4.01081 30.8198 4.16561C31.4095 4.458 31.869 4.82901 32.1957 5.27619L32.1982 3.86093C32.1982 3.86093 32.7068 3.86339 33.213 3.86339C33.7216 3.86093 34.2326 3.86339 34.2326 3.86339C34.2326 3.86339 34.2326 4.48011 34.2326 5.40887C34.2326 5.87325 34.2326 6.41626 34.2302 6.99613C34.2326 7.57599 34.2326 8.19762 34.2326 8.8168C34.2326 9.43598 34.2326 10.0552 34.2326 10.635C34.2326 11.2149 34.2326 11.7554 34.2326 12.2223C34.2326 13.151 34.2326 13.7702 34.2326 13.7702C34.2326 14.2174 34.1835 14.64 34.0901 15.038C33.9968 15.4361 33.8567 15.8096 33.6651 16.156C33.4759 16.5098 33.2449 16.8268 32.9722 17.1044C32.697 17.3821 32.38 17.6204 32.0213 17.8219C31.6675 18.0209 31.2768 18.1708 30.8542 18.2715C30.4291 18.3723 29.9672 18.4214 29.4733 18.4239C28.8124 18.4239 28.208 18.3452 27.66 18.188C27.1121 18.0307 26.6207 17.7973 26.1833 17.4853C25.746 17.1781 25.4045 16.8145 25.1563 16.3968C24.9081 15.9791 24.7558 15.5049 24.6944 14.9717C24.6944 14.9717 25.1956 14.9717 25.6969 14.9742C26.1956 14.9717 26.6944 14.9717 26.6944 14.9717C26.8468 15.4779 27.1735 15.8882 27.6674 16.1929C28.176 16.5098 28.7755 16.6695 29.4709 16.672C29.8787 16.6695 30.2473 16.6081 30.5741 16.4852C30.9033 16.3599 31.1908 16.1757 31.439 15.93C31.6921 15.6818 31.8812 15.3771 32.0066 15.0159C32.1343 14.6572 32.1957 14.2395 32.1982 13.7702V12.1436C31.8567 12.6031 31.3898 12.9938 30.8001 13.3107C30.5102 13.4631 30.2006 13.5786 29.8714 13.6547C29.5397 13.7309 29.1908 13.7702 28.8198 13.7702C28.3947 13.7678 27.9893 13.7162 27.5986 13.6105C27.2104 13.5048 26.8369 13.3451 26.4856 13.1338C26.1342 12.9152 25.8222 12.6547 25.547 12.355C25.2693 12.0552 25.0285 11.7137 24.8197 11.3279C24.6207 10.9397 24.4708 10.5244 24.37 10.0846C24.2693 9.64482 24.2202 9.1829 24.2202 8.69395C24.2202 8.20499 24.2693 7.74307 24.37 7.30817C24.4708 6.87573 24.6207 6.47032 24.8197 6.09193C25.0285 5.71355 25.2693 5.37939 25.547 5.08946C25.8222 4.79707 26.1367 4.54645 26.4856 4.34006C26.8394 4.12875 27.2104 3.96904 27.5986 3.86339C27.9868 3.75774 28.3947 3.70368 28.8198 3.70614ZM32.1957 8.72835C32.1957 8.05757 32.0582 7.47034 31.7731 6.97647C31.5029 6.48015 31.1417 6.10422 30.692 5.84377C30.2473 5.58578 29.7633 5.4531 29.2424 5.45556C28.7239 5.4531 28.2424 5.58578 27.7952 5.84623C27.3455 6.09193 26.9794 6.46295 26.6944 6.95927C26.4266 7.44331 26.2865 8.02072 26.2865 8.69395C26.2865 9.36472 26.4266 9.95687 26.6969 10.4606C26.9794 10.9692 27.3455 11.3598 27.7927 11.6301C28.2522 11.8881 28.7338 12.0183 29.2424 12.0183C29.7608 12.0183 30.2473 11.8881 30.6945 11.6301C31.1441 11.3721 31.5029 10.9937 31.7707 10.4974C32.0582 9.98881 32.1982 9.40158 32.1957 8.72835ZM36.2081 8.69395C36.2081 8.20254 36.2597 7.74307 36.3604 7.30817C36.4587 6.87573 36.6086 6.47032 36.8125 6.09439C37.0189 5.71355 37.2597 5.37939 37.5349 5.087C37.8126 4.79707 38.1246 4.54645 38.4735 4.34006C38.8273 4.12875 39.1983 3.96904 39.5866 3.86339C39.9772 3.75774 40.3851 3.70614 40.8077 3.70368C41.1935 3.70614 41.5497 3.74299 41.8839 3.81916C42.2156 3.89533 42.5227 4.01081 42.8077 4.16561C43.3876 4.458 43.8446 4.82901 44.1886 5.27865V3.86093C44.1886 3.86093 44.6972 3.86339 45.2058 3.86093C45.7144 3.86339 46.223 3.86093 46.223 3.86093C46.223 3.86093 46.223 4.47274 46.223 5.3843C46.223 5.84131 46.223 6.37695 46.2206 6.94699C46.223 7.51702 46.223 8.12637 46.223 8.73572C46.223 9.34507 46.223 9.95687 46.223 10.5269C46.223 11.0969 46.223 11.6326 46.223 12.0896C46.223 13.0012 46.2206 13.6105 46.2206 13.6105C46.2206 13.6105 45.712 13.6105 45.2058 13.6105C44.6972 13.6105 44.1886 13.613 44.1886 13.613V12.1608C43.8471 12.6203 43.3802 13.0036 42.7905 13.3083C42.4957 13.4631 42.1787 13.5786 41.8446 13.6547C41.508 13.7309 41.1517 13.7678 40.7733 13.7678C40.3531 13.7678 39.9551 13.7162 39.5694 13.6105C39.1861 13.5048 38.82 13.3451 38.4735 13.1338C38.1246 12.9152 37.8126 12.6572 37.5349 12.355C37.2597 12.0552 37.0189 11.7137 36.8125 11.3304C36.6111 10.9397 36.4587 10.5244 36.3604 10.0846C36.2597 9.64482 36.2106 9.18044 36.2081 8.69395ZM44.1886 8.72835C44.1886 8.05757 44.0436 7.47034 43.7635 6.97893C43.4908 6.48015 43.1296 6.10176 42.6849 5.84623C42.2377 5.58578 41.7537 5.45556 41.2352 5.4531C40.7143 5.4531 40.2303 5.58332 39.7831 5.84377C39.3359 6.09439 38.9698 6.4654 38.6848 6.95927C38.4145 7.44331 38.2794 8.01826 38.2794 8.69395C38.2794 9.36472 38.4145 9.95687 38.6873 10.463C38.9698 10.9667 39.3359 11.3598 39.7831 11.6301C40.2426 11.8881 40.7242 12.0183 41.2352 12.0183C41.7537 12.0208 42.2377 11.8906 42.6849 11.6277C43.1321 11.3721 43.4908 10.9913 43.7635 10.495C44.0436 9.98881 44.1861 9.39912 44.1886 8.72835Z" fill="#F4EBD8"/>
<path d="M74.1229 7.3484C74.1229 6.74396 74.1917 6.17393 74.3293 5.63583C74.4694 5.09528 74.6758 4.58667 74.9559 4.10755C75.236 3.63088 75.5677 3.20581 75.9485 2.8348C76.3294 2.46378 76.7593 2.14682 77.236 1.879C77.7176 1.60873 78.2237 1.40479 78.752 1.26966C79.2803 1.13452 79.8306 1.06572 80.4031 1.06818C81.0567 1.06572 81.6759 1.14926 82.2558 1.30897C82.8381 1.47113 83.3811 1.71684 83.8897 2.04117C84.4008 2.35813 84.843 2.74389 85.214 3.19844C85.5851 3.65299 85.8873 4.17389 86.1158 4.76358C86.1158 4.76358 85.5113 4.76604 84.9045 4.76358C84.2976 4.76604 83.6931 4.76604 83.6931 4.76604C83.5334 4.43925 83.3442 4.15669 83.1231 3.9159C82.902 3.67265 82.6489 3.47117 82.3663 3.31146C82.0813 3.15421 81.7766 3.03627 81.4498 2.95519C81.1231 2.87657 80.7742 2.83725 80.4031 2.8348C79.9953 2.83725 79.6095 2.88148 79.2483 2.97239C78.8847 3.0633 78.5456 3.2009 78.2262 3.38518C77.9068 3.567 77.6218 3.78813 77.3711 4.05104C77.1205 4.31394 76.9043 4.61616 76.7225 4.95769C76.5456 5.29922 76.4129 5.67023 76.3244 6.06827C76.2335 6.46631 76.1918 6.89138 76.1893 7.3484C76.1918 7.80049 76.236 8.22556 76.3244 8.6236C76.4129 9.02165 76.5456 9.39266 76.7225 9.73665C76.9043 10.0757 77.1205 10.3804 77.3711 10.6458C77.6218 10.9111 77.9068 11.1372 78.2262 11.3264C78.5456 11.5106 78.8847 11.6482 79.2483 11.7391C79.6095 11.8301 79.9953 11.8743 80.4031 11.8743C80.7742 11.8743 81.1231 11.835 81.4498 11.7563C81.7766 11.6753 82.0813 11.5573 82.3663 11.4001C82.6489 11.2379 82.902 11.0389 83.1231 10.7956C83.3442 10.5548 83.5334 10.2723 83.6931 9.94795C83.6931 9.94795 84.2976 9.9455 84.9045 9.9455C85.5113 9.9455 86.1182 9.9455 86.1182 9.9455C85.8873 10.5376 85.5851 11.0585 85.214 11.5131C84.843 11.9676 84.4008 12.3534 83.8897 12.6728C83.3811 12.9898 82.8381 13.2281 82.2558 13.3878C81.6759 13.5475 81.0567 13.6262 80.4031 13.6286C79.8257 13.6262 79.2729 13.5598 78.7446 13.4296C78.2164 13.2945 77.7127 13.0954 77.2335 12.8301C76.7593 12.5598 76.3294 12.2355 75.9485 11.862C75.5677 11.4861 75.2384 11.061 74.9534 10.5843C74.6758 10.1052 74.4694 9.59659 74.3293 9.0585C74.1917 8.51795 74.1229 7.94792 74.1229 7.3484ZM92.7056 13.6802C92.2461 13.6802 91.8088 13.6262 91.3911 13.523C90.9758 13.4198 90.5827 13.265 90.2117 13.0586C89.8407 12.8473 89.509 12.5967 89.2166 12.2993C88.9242 12.0045 88.6711 11.6679 88.4598 11.292C88.2485 10.9087 88.0888 10.4934 87.9807 10.0511C87.875 9.61134 87.8234 9.13713 87.8234 8.63589C87.821 8.14202 87.8775 7.67518 87.9856 7.23537C88.0962 6.79802 88.2583 6.38769 88.477 6.00193C88.6957 5.62109 88.9537 5.28202 89.251 4.98717C89.5507 4.68987 89.8874 4.43925 90.2657 4.23286C90.6417 4.02647 91.0422 3.87167 91.4623 3.76848C91.8849 3.66528 92.3272 3.61368 92.794 3.61368C93.2609 3.61614 93.7031 3.66774 94.1258 3.77093C94.5484 3.87167 94.9464 4.02647 95.3248 4.23286C95.7007 4.43925 96.0398 4.68987 96.3371 4.98471C96.6344 5.27956 96.8924 5.61863 97.1111 6.00193C97.3297 6.38523 97.4919 6.79802 97.6025 7.23537C97.7106 7.67518 97.7671 8.14202 97.7671 8.63835C97.7671 9.13467 97.7106 9.60151 97.5976 10.0413C97.4845 10.4787 97.3175 10.889 97.0939 11.2723C96.8703 11.6556 96.6049 11.9971 96.2978 12.2944C95.9907 12.5942 95.6418 12.8473 95.2511 13.061C94.8702 13.2674 94.4648 13.4222 94.0398 13.523C93.6147 13.6262 93.17 13.6802 92.7056 13.6802ZM92.7056 11.9283C93.224 11.9283 93.7056 11.8055 94.1552 11.5573C94.6172 11.3116 94.9882 10.9381 95.2707 10.4418C95.5533 9.94795 95.6958 9.34352 95.6934 8.63835C95.6958 7.92826 95.5607 7.33365 95.2879 6.84961C95.0177 6.35575 94.6589 5.98228 94.2093 5.73657C93.7621 5.49087 93.2781 5.3631 92.7596 5.3631C92.2387 5.36556 91.7572 5.48841 91.31 5.73903C90.8702 5.98473 90.5237 6.3582 90.2657 6.85207C90.0053 7.33365 89.8751 7.93072 89.8751 8.63835C89.8751 9.16415 89.9414 9.62854 90.0716 10.0364C90.2043 10.4418 90.4058 10.7907 90.6711 11.0807C90.9414 11.3632 91.2461 11.5745 91.5852 11.717C91.9242 11.8595 92.2977 11.9308 92.7056 11.9283ZM111.559 3.61614C111.939 3.61368 112.303 3.65299 112.647 3.73408C112.989 3.8127 113.31 3.9331 113.613 4.09281C113.917 4.25006 114.19 4.44908 114.428 4.68495C114.669 4.92083 114.873 5.19356 115.045 5.50561C115.222 5.82011 115.352 6.1641 115.443 6.54248C115.532 6.91841 115.576 7.3312 115.576 7.77346C115.576 7.77346 115.576 8.13219 115.576 8.67029C115.576 8.94056 115.573 9.25506 115.576 9.59168C115.576 9.9283 115.576 10.287 115.573 10.6458C115.573 11.0069 115.576 11.3657 115.576 11.7023C115.576 12.0389 115.576 12.3534 115.576 12.6237C115.576 13.1618 115.573 13.5205 115.573 13.5205C115.573 13.5205 115.075 13.5205 114.576 13.5205C114.075 13.5205 113.576 13.5205 113.576 13.5205C113.576 13.5205 113.573 13.1814 113.576 12.6704C113.576 12.1593 113.576 11.4787 113.573 10.7981C113.576 10.115 113.573 9.43443 113.576 8.92336C113.576 8.4123 113.576 8.07322 113.576 8.07322C113.576 7.63587 113.519 7.25011 113.411 6.91841C113.303 6.58425 113.138 6.30415 112.922 6.07073C112.482 5.59898 111.89 5.3631 111.136 5.3631C110.379 5.3631 109.777 5.59898 109.328 6.07319C109.109 6.30169 108.947 6.58425 108.839 6.91841C108.73 7.25257 108.676 7.63587 108.676 8.07322C108.676 8.07322 108.676 8.4123 108.676 8.92336C108.676 9.43443 108.676 10.115 108.676 10.7956C108.674 11.4787 108.674 12.1593 108.676 12.6704C108.674 13.1814 108.674 13.5205 108.674 13.5205C108.674 13.5205 108.175 13.5205 107.676 13.523C107.175 13.5205 106.674 13.523 106.674 13.523C106.674 13.523 106.676 13.1814 106.674 12.6704C106.676 12.1593 106.676 11.4787 106.676 10.7956C106.676 10.115 106.676 9.43443 106.676 8.92336C106.676 8.4123 106.676 8.07322 106.676 8.07322C106.676 7.63587 106.62 7.25257 106.512 6.91841C106.404 6.58425 106.239 6.30169 106.023 6.07319C105.585 5.60143 104.991 5.36556 104.232 5.36556C103.48 5.3631 102.88 5.59898 102.431 6.07073C102.212 6.30169 102.047 6.58425 101.939 6.91841C101.831 7.25257 101.777 7.63587 101.777 8.07077C101.777 8.07077 101.777 8.4123 101.775 8.92336C101.775 9.43443 101.777 10.115 101.777 10.7981C101.777 11.4787 101.777 12.1593 101.777 12.6704C101.777 13.1814 101.777 13.523 101.777 13.523C101.777 13.523 101.271 13.5205 100.767 13.523C100.263 13.523 99.7598 13.5205 99.7598 13.5205C99.7598 13.5205 99.7598 12.9112 99.7598 11.9971C99.7598 11.5426 99.7573 11.0069 99.7598 10.4369C99.7598 9.86687 99.7598 9.25506 99.7598 8.64817C99.7598 8.03637 99.7598 7.42702 99.7598 6.85699C99.7598 6.28449 99.7598 5.75131 99.7598 5.29676C99.7598 4.38274 99.7598 3.77093 99.7598 3.77093C99.7598 3.77093 100.263 3.77093 100.767 3.77093C101.271 3.77339 101.777 3.77093 101.777 3.77093V4.88889C102.106 4.48839 102.524 4.17389 103.033 3.94784C103.539 3.72671 104.082 3.61614 104.659 3.61614C105.047 3.61368 105.416 3.65545 105.765 3.73899C106.111 3.82007 106.438 3.94293 106.748 4.11001C107.052 4.27463 107.323 4.47611 107.561 4.71444C107.797 4.95523 107.998 5.22796 108.163 5.54001C108.458 4.95032 108.917 4.48839 109.544 4.14686C109.856 3.96995 110.18 3.83727 110.514 3.74636C110.851 3.66037 111.197 3.61368 111.559 3.61614ZM120.158 5.20585C120.497 4.75621 120.964 4.38274 121.556 4.07561C121.851 3.92081 122.163 3.80533 122.497 3.72916C122.829 3.65299 123.183 3.61368 123.551 3.61614C123.979 3.61614 124.384 3.66774 124.77 3.77339C125.156 3.87904 125.524 4.03875 125.873 4.25006C126.227 4.45891 126.542 4.70707 126.817 4.997C127.094 5.28939 127.333 5.62355 127.534 6.00193C127.736 6.38032 127.886 6.78573 127.986 7.21817C128.085 7.65307 128.136 8.11254 128.136 8.60395C128.136 9.0929 128.085 9.55482 127.986 9.99464C127.886 10.4344 127.736 10.8497 127.534 11.2404C127.333 11.6237 127.094 11.9652 126.817 12.265C126.542 12.5672 126.225 12.8252 125.873 13.0438C125.524 13.2551 125.156 13.4148 124.77 13.5205C124.384 13.6262 123.979 13.6802 123.554 13.6778C123.183 13.6778 122.831 13.6409 122.5 13.5696C122.171 13.4935 121.861 13.3829 121.573 13.2355C120.996 12.9308 120.522 12.5549 120.158 12.1052C120.158 12.1052 120.158 12.4836 120.158 13.0512C120.158 13.3362 120.158 13.6655 120.156 14.0193C120.156 14.3756 120.158 14.7539 120.158 15.1323C120.158 15.5083 120.158 15.8866 120.158 16.2429C120.158 16.5967 120.158 16.926 120.158 17.211C120.158 17.7786 120.158 18.1545 120.158 18.1545C120.158 18.1545 119.652 18.1545 119.148 18.1545C118.645 18.1569 118.141 18.1545 118.141 18.1545C118.141 18.1545 118.138 17.9309 118.138 17.5378C118.141 17.1446 118.141 16.582 118.141 15.9088C118.141 15.5721 118.138 15.206 118.141 14.8203C118.141 14.4345 118.138 14.0267 118.141 13.604C118.138 13.1839 118.141 12.749 118.138 12.3043C118.138 11.862 118.141 11.4124 118.141 10.9627C118.141 10.5155 118.138 10.0659 118.141 9.62362C118.141 9.1789 118.138 8.744 118.141 8.32384C118.141 7.90123 118.138 7.49336 118.141 7.1076C118.138 6.72185 118.138 6.35575 118.138 6.01913C118.138 5.3459 118.141 4.78324 118.141 4.39011C118.141 3.99698 118.141 3.77339 118.141 3.77339C118.141 3.77339 118.645 3.77093 119.148 3.77339C119.652 3.77339 120.158 3.77093 120.158 3.77093V5.20585ZM126.085 8.60149C126.085 7.92826 125.942 7.35331 125.657 6.86681C125.389 6.37295 125.021 6.00193 124.564 5.75623C124.114 5.49578 123.632 5.36556 123.112 5.36556C122.603 5.3631 122.121 5.49578 121.659 5.75377C121.212 6.01422 120.849 6.39015 120.566 6.88893C120.293 7.38034 120.158 7.96757 120.158 8.63835C120.158 9.30912 120.293 9.90127 120.566 10.405C120.849 10.9037 121.212 11.2797 121.659 11.5401C122.121 11.7981 122.603 11.9308 123.112 11.9283C123.632 11.9283 124.114 11.8006 124.564 11.5401C125.023 11.2674 125.389 10.8767 125.66 10.3706C125.942 9.86687 126.082 9.27472 126.085 8.60149ZM129.458 8.60149C129.458 8.11499 129.507 7.65307 129.608 7.21817C129.709 6.78573 129.859 6.38032 130.06 6.00439C130.266 5.626 130.507 5.28939 130.785 4.997C131.063 4.70707 131.375 4.45645 131.721 4.25251C132.077 4.03875 132.448 3.87904 132.837 3.77339C133.225 3.66774 133.633 3.61368 134.055 3.61368C134.441 3.61614 134.797 3.65299 135.131 3.72916C135.463 3.80533 135.773 3.92081 136.058 4.07315C136.635 4.37045 137.092 4.74147 137.436 5.18865V3.77093C137.436 3.77093 137.942 3.77093 138.453 3.77093C138.962 3.77339 139.471 3.77093 139.471 3.77093C139.471 3.77093 139.471 4.38028 139.471 5.2943C139.471 5.75377 139.471 6.28449 139.471 6.85699C139.471 7.42948 139.471 8.03883 139.471 8.64572C139.471 9.25506 139.471 9.86687 139.468 10.4369C139.471 11.0094 139.471 11.5426 139.471 11.9971C139.471 12.9136 139.468 13.523 139.468 13.523C139.468 13.523 138.962 13.523 138.453 13.523C137.945 13.523 137.436 13.5205 137.436 13.5205V12.0708C137.092 12.5279 136.63 12.9136 136.038 13.2207C135.743 13.3731 135.429 13.4886 135.092 13.5647C134.756 13.6409 134.399 13.6778 134.023 13.6778C133.603 13.6778 133.203 13.6262 132.819 13.5205C132.436 13.4148 132.07 13.2551 131.724 13.0438C131.375 12.8252 131.063 12.5672 130.785 12.265C130.507 11.9652 130.266 11.6212 130.06 11.2379C129.859 10.8497 129.709 10.4344 129.608 9.99464C129.507 9.55728 129.458 9.09044 129.458 8.60149ZM137.436 8.63835C137.436 7.96757 137.296 7.38034 137.014 6.88647C136.741 6.3926 136.382 6.01176 135.93 5.75377C135.485 5.49578 135.001 5.36556 134.48 5.3631C133.964 5.36556 133.48 5.49332 133.033 5.75623C132.583 6.00193 132.217 6.37295 131.932 6.86927C131.665 7.35331 131.529 7.93072 131.529 8.60395C131.529 9.27472 131.665 9.86687 131.932 10.373C132.217 10.8792 132.583 11.2698 133.033 11.5401C133.49 11.8006 133.977 11.9308 134.48 11.9283C135.001 11.9283 135.485 11.7981 135.932 11.5377C136.382 11.2797 136.741 10.9037 137.014 10.4074C137.296 9.90127 137.436 9.31158 137.436 8.63835ZM145.66 13.6778C145.274 13.6802 144.91 13.6458 144.566 13.577C144.22 13.5107 143.896 13.4099 143.589 13.2748C142.987 12.9898 142.51 12.6114 142.156 12.1421C141.802 11.6556 141.613 11.12 141.589 10.5303C141.589 10.5303 142.112 10.5327 142.633 10.5327C143.154 10.5327 143.677 10.5327 143.677 10.5327C143.711 10.9455 143.908 11.2895 144.262 11.5745C144.628 11.8473 145.078 11.9824 145.623 11.9799C146.188 11.9824 146.623 11.8743 146.933 11.663C147.252 11.4369 147.409 11.1544 147.409 10.8128C147.409 10.4467 147.232 10.1789 146.879 9.99955C146.537 9.82264 145.989 9.62854 145.235 9.41477C144.503 9.21575 143.908 9.02165 143.446 8.83245C142.987 8.64326 142.584 8.35333 142.245 7.96757C141.913 7.5769 141.748 7.06583 141.748 6.42454C141.748 5.90611 141.903 5.43681 142.208 5.01174C142.515 4.57684 142.952 4.23286 143.517 3.98715C143.805 3.86184 144.114 3.76848 144.446 3.70705C144.775 3.64562 145.127 3.61614 145.5 3.61614C146.053 3.61368 146.552 3.68494 146.997 3.82744C147.441 3.9675 147.832 4.1788 148.171 4.46382C148.513 4.74147 148.773 5.06825 148.957 5.4491C149.139 5.82994 149.242 6.25992 149.267 6.74642C149.267 6.74642 148.761 6.74642 148.259 6.74642C147.756 6.74642 147.252 6.74642 147.252 6.74642C147.215 6.30906 147.038 5.96262 146.719 5.70217C146.402 5.44418 145.972 5.3115 145.429 5.31396C144.896 5.31396 144.488 5.41224 144.208 5.61372C143.925 5.81274 143.783 6.08056 143.78 6.4098C143.783 6.66779 143.876 6.88647 144.063 7.06338C144.254 7.24029 144.485 7.38034 144.756 7.48599C145.028 7.58427 145.429 7.70467 145.96 7.86192C146.667 8.04865 147.245 8.24522 147.692 8.44424C148.154 8.63097 148.544 8.91599 148.879 9.29438C149.208 9.66785 149.377 10.1715 149.392 10.7981C149.39 11.3485 149.235 11.8473 148.93 12.2821C148.626 12.717 148.188 13.0586 147.623 13.3092C147.345 13.432 147.041 13.5254 146.714 13.5868C146.387 13.6483 146.036 13.6778 145.66 13.6778ZM155.107 13.6778C154.724 13.6778 154.36 13.6458 154.016 13.577C153.67 13.5107 153.346 13.4099 153.038 13.2748C152.436 12.9898 151.957 12.6139 151.606 12.1421C151.252 11.6581 151.06 11.1224 151.041 10.5327C151.041 10.5327 151.562 10.5327 152.083 10.5327C152.604 10.5327 153.124 10.5327 153.124 10.5327C153.164 10.9455 153.355 11.292 153.709 11.5745C154.075 11.8473 154.53 11.9824 155.073 11.9799C155.64 11.9824 156.073 11.8767 156.38 11.6654C156.699 11.4369 156.857 11.1568 156.859 10.8153C156.859 10.4492 156.682 10.1789 156.328 10.002C155.984 9.82264 155.439 9.62854 154.685 9.41477C153.95 9.21575 153.358 9.02165 152.898 8.83491C152.436 8.64572 152.033 8.35579 151.692 7.96757C151.365 7.5769 151.198 7.06338 151.198 6.42454C151.198 5.90856 151.353 5.43681 151.66 5.01174C151.965 4.57439 152.4 4.23286 152.967 3.98715C153.255 3.86184 153.564 3.76848 153.896 3.70705C154.225 3.64562 154.577 3.61614 154.95 3.61614C155.503 3.61614 156.002 3.68494 156.446 3.82744C156.894 3.9675 157.284 4.18126 157.621 4.46136C157.962 4.74147 158.223 5.06825 158.407 5.4491C158.589 5.82994 158.692 6.26238 158.714 6.74642C158.714 6.74642 158.213 6.74642 157.709 6.74642C157.206 6.74642 156.702 6.74642 156.702 6.74642C156.665 6.30906 156.488 5.96262 156.171 5.69972C155.852 5.44418 155.422 5.31396 154.879 5.31396C154.348 5.3115 153.94 5.41224 153.658 5.61372C153.375 5.8152 153.233 6.08056 153.233 6.4098C153.233 6.66779 153.326 6.88893 153.518 7.06338C153.702 7.24029 153.935 7.38034 154.203 7.48599C154.476 7.58181 154.879 7.70712 155.409 7.86192C156.117 8.04865 156.694 8.24522 157.144 8.44424C157.604 8.63343 157.999 8.91599 158.328 9.29438C158.655 9.67031 158.827 10.1715 158.84 10.7956C158.84 11.3509 158.687 11.8473 158.38 12.2846C158.075 12.7195 157.636 13.0586 157.073 13.3092C156.795 13.432 156.493 13.5254 156.164 13.5868C155.837 13.6483 155.486 13.6802 155.107 13.6778Z" fill="#F4EBD8"/>
<path d="M58.4679 7.50149C58.4679 7.50149 58.1241 7.20154 57.6119 6.75163C57.3558 6.52782 57.0581 6.2648 56.7374 5.98562C56.4167 5.70413 56.0752 5.40419 55.7338 5.10425C55.3923 4.80661 55.0508 4.50667 54.7301 4.22518C54.4094 3.946 54.1118 3.68297 53.8557 3.45917C53.3434 3.00925 53.002 2.70931 53.002 2.70931C52.5105 2.28016 52.2683 2.06789 52.1967 2.1325C52.1206 2.1971 52.3052 2.46243 52.6743 3.00003C52.6743 3.00003 52.8958 3.32535 53.2281 3.80987C53.3942 4.05214 53.5903 4.33362 53.798 4.63818C54.0056 4.94043 54.2271 5.26345 54.4509 5.58646C54.6724 5.90948 54.8939 6.2325 55.1016 6.53475C55.3092 6.8393 55.5053 7.12079 55.6715 7.36305C56.0037 7.84758 56.2275 8.1729 56.2275 8.1729C56.2344 8.17982 56.239 8.18674 56.2414 8.19136C56.2414 8.20059 56.246 8.2052 56.2506 8.21443C56.2506 8.21443 56.4882 8.83278 56.8459 9.75799C57.0235 10.2217 57.2312 10.7616 57.455 11.3408C57.568 11.6292 57.6834 11.9291 57.7988 12.2314C57.9164 12.5359 58.0364 12.8451 58.1541 13.1543C58.274 13.4611 58.394 13.7703 58.5117 14.0749C58.6271 14.3771 58.7424 14.6771 58.8555 14.9655C59.0793 15.5446 59.2869 16.0845 59.4646 16.5483C59.8222 17.4735 60.0622 18.0918 60.0622 18.0918C60.1452 18.3133 60.1891 18.4217 60.2652 18.4241C60.3367 18.4217 60.3829 18.3133 60.4706 18.0941C60.4706 18.0941 60.7151 17.4758 61.082 16.5483C61.2666 16.0868 61.4811 15.5446 61.7096 14.9655C61.8249 14.6771 61.9449 14.3771 62.0649 14.0726C62.1849 13.7703 62.3071 13.4611 62.4317 13.152C62.554 12.8428 62.6763 12.5336 62.7963 12.2314C62.9163 11.9268 63.0362 11.6269 63.1516 11.3385C63.38 10.7593 63.5946 10.2171 63.7792 9.75568C64.146 8.82816 64.3929 8.21212 64.3929 8.21212C64.3975 8.2029 64.3975 8.19828 64.4021 8.19367C64.4044 8.18905 64.4044 8.18444 64.4137 8.1729C64.4137 8.1729 64.619 7.85219 64.9259 7.36767C65.0805 7.1254 65.2604 6.84392 65.4542 6.53936C65.6481 6.23711 65.8534 5.91409 66.0587 5.59338C66.2641 5.27037 66.4694 4.94735 66.6632 4.6451C66.8571 4.34054 67.037 4.05906 67.1916 3.8168C67.4985 3.33227 67.7061 3.01156 67.7061 3.01156C68.0499 2.47166 68.2229 2.20171 68.1491 2.13711C68.0753 2.07481 67.8399 2.294 67.3716 2.73238C67.3716 2.73238 67.0509 3.03002 66.5686 3.47763C66.3287 3.70143 66.0495 3.96215 65.7496 4.24133C65.4496 4.52051 65.1289 4.82045 64.8082 5.11809C64.4875 5.41573 64.1668 5.71567 63.8668 5.99485C63.5669 6.27403 63.2877 6.53475 63.0478 6.75855C62.5656 7.20616 62.2448 7.5061 62.2448 7.5061C62.2287 7.52225 62.2172 7.53148 62.2102 7.54302C62.201 7.55455 62.1987 7.56609 62.1872 7.59147C62.1872 7.59147 62.081 7.89834 61.9218 8.35748C61.7626 8.81663 61.5481 9.43036 61.3358 10.0418C61.1212 10.6555 60.9089 11.2669 60.7474 11.7284C60.5882 12.1875 60.4821 12.4944 60.4821 12.4944C60.3898 12.7528 60.346 12.8797 60.2675 12.8797C60.1891 12.8797 60.1475 12.7459 60.0645 12.4852C60.0645 12.4852 59.9676 12.1806 59.8245 11.7238C59.6815 11.2646 59.49 10.6532 59.2985 10.0418C59.107 9.43266 58.9155 8.82124 58.7701 8.3621C58.6271 7.90526 58.5325 7.59839 58.5325 7.59839C58.5232 7.57301 58.5186 7.55455 58.5094 7.54302C58.5002 7.53148 58.4886 7.51995 58.4679 7.50149Z" fill="#5E8BFF"/>
<path d="M58.5626 7.6192C58.5626 7.6192 59.0079 7.88223 59.4532 8.14526C59.8985 8.40828 60.3415 8.67362 60.3415 8.67362C60.3784 8.69208 60.4199 8.69208 60.4568 8.67362C60.4568 8.67362 60.886 8.40828 61.3151 8.14756C61.7443 7.88223 62.1757 7.6192 62.1757 7.6192C62.2173 7.59613 62.2357 7.54306 62.2242 7.49461C62.2242 7.49461 62.1042 7.0793 61.9265 6.45634C61.8366 6.14256 61.7327 5.78032 61.622 5.39039C61.5112 5.00046 61.3913 4.58285 61.2736 4.16754C61.1536 3.75224 61.0359 3.33462 60.9229 2.94469C60.8121 2.55477 60.7083 2.19253 60.6183 1.87874C60.4407 1.25578 60.323 0.838167 60.323 0.838167C60.293 0.787408 60.1361 0.785101 60.1084 0.842782C60.1084 0.842782 60.0092 1.2604 59.8592 1.88336C59.7854 2.19484 59.6977 2.55938 59.6031 2.94931C59.5108 3.33924 59.4093 3.75454 59.3101 4.16985C59.2109 4.58746 59.1094 5.00277 59.0171 5.3927C58.9225 5.78262 58.8348 6.14717 58.761 6.45865C58.611 7.08161 58.5095 7.49922 58.5095 7.49922C58.5003 7.54306 58.521 7.59151 58.5626 7.6192Z" fill="#F4465E"/>
</svg>
