<svg width="239" height="75" viewBox="0 0 239 75" fill="none" xmlns="http://www.w3.org/2000/svg">
<g clip-path="url(#clip0_474_8167)">
<path d="M36.3042 20.5533C36.3042 20.5533 36.2189 20.7827 36.0689 21.1857C35.9159 21.5858 35.7012 22.1624 35.4423 22.8507C35.3129 23.1979 35.1717 23.5715 35.0246 23.9657C34.8745 24.3599 34.7186 24.7776 34.5568 25.21C34.395 25.6395 34.2274 26.0867 34.0567 26.5397C33.8861 26.9927 33.7155 27.4516 33.5419 27.9135C33.3684 28.3724 33.1978 28.8313 33.0271 29.2843C32.8565 29.7373 32.6888 30.1845 32.527 30.614C32.3652 31.0464 32.2093 31.4641 32.0593 31.8583C31.9122 32.2525 31.771 32.6261 31.6416 32.9733C31.3827 33.6616 31.168 34.2382 31.015 34.6383C30.865 35.0413 30.7796 35.2707 30.7796 35.2707C30.7796 35.2707 30.0795 35.2737 29.3823 35.2707C28.6822 35.2737 27.985 35.2737 27.985 35.2737C27.985 35.2737 27.8967 35.0413 27.7438 34.6383C27.5938 34.2382 27.3761 33.6616 27.1172 32.9733C26.9878 32.6261 26.8465 32.2525 26.6965 31.8583C26.5465 31.4641 26.3906 31.0464 26.2288 30.614C26.067 30.1845 25.8964 29.7373 25.7257 29.2843C25.5551 28.8313 25.3816 28.3724 25.208 27.9105C25.0374 27.4516 24.8638 26.9927 24.6932 26.5397C24.5226 26.0867 24.352 25.6395 24.1902 25.21C24.0284 24.7776 23.8725 24.3599 23.7224 23.9657C23.5724 23.5715 23.4312 23.1979 23.3018 22.8507C23.0429 22.1624 22.8252 21.5858 22.6752 21.1857C22.5222 20.7827 22.4369 20.5533 22.4369 20.5533C22.4369 20.5533 23.0811 20.5533 23.7283 20.5533C24.3726 20.5503 25.0197 20.5503 25.0197 20.5503C25.0197 20.5503 25.2904 21.3181 25.6993 22.4654C25.9052 23.039 26.1435 23.7068 26.3994 24.4246C26.5259 24.7835 26.6583 25.1541 26.7936 25.5307C26.926 25.9072 27.0642 26.2896 27.1996 26.6721C27.3349 27.0545 27.4731 27.4369 27.6055 27.8135C27.7408 28.19 27.8732 28.5606 27.9997 28.9195C28.2556 29.6373 28.4939 30.3051 28.6998 30.8787C29.1087 32.026 29.3823 32.7909 29.3823 32.7909C29.3823 32.7909 29.6559 32.026 30.0648 30.8787C30.2707 30.3051 30.5119 29.6373 30.7679 28.9195C30.8973 28.5606 31.0297 28.19 31.165 27.8135C31.3003 27.4369 31.4357 27.0545 31.5739 26.6721C31.7122 26.2896 31.8475 25.9072 31.9828 25.5307C32.1181 25.1541 32.2505 24.7835 32.38 24.4246C32.6359 23.7068 32.8771 23.039 33.083 22.4654C33.4919 21.3181 33.7684 20.5503 33.7684 20.5503C33.7684 20.5503 34.4009 20.5503 35.0363 20.5503C35.6718 20.5503 36.3042 20.5533 36.3042 20.5533ZM49.0243 29.1519C49.0243 29.5903 48.9919 29.9815 48.939 30.3375C48.939 30.3375 48.38 30.3375 47.5446 30.3375C47.1269 30.3345 46.6385 30.3375 46.1149 30.3345C45.5942 30.3375 45.0353 30.3345 44.4793 30.3345C43.9233 30.3375 43.3644 30.3375 42.8437 30.3375C42.3201 30.3375 41.8317 30.3375 41.414 30.3375C40.5786 30.3375 40.0226 30.3375 40.0226 30.3375C40.0579 30.8023 40.1608 31.2229 40.3344 31.5965C40.508 31.9701 40.7492 32.2996 41.0581 32.582C41.3699 32.8644 41.7141 33.0733 42.0965 33.2174C42.4789 33.3557 42.8937 33.4263 43.3467 33.4292C43.9969 33.4292 44.5499 33.291 45.0088 33.0203C45.4677 32.7467 45.8325 32.3408 46.1002 31.7995C46.1002 31.7995 46.7503 31.7966 47.4004 31.7966C48.0535 31.7966 48.7066 31.7995 48.7066 31.7995C48.5271 32.3349 48.28 32.8232 47.9594 33.2645C47.6387 33.7057 47.2445 34.0999 46.7797 34.4471C46.3208 34.7854 45.8031 35.0383 45.2324 35.206C44.6587 35.3766 44.0292 35.459 43.3467 35.462C42.7878 35.459 42.2583 35.4002 41.7582 35.2737C41.2552 35.1501 40.7815 34.9648 40.3373 34.7177C39.899 34.4647 39.5078 34.1647 39.1636 33.8116C38.8165 33.4557 38.5164 33.0527 38.2634 32.5997C38.0163 32.1437 37.831 31.6495 37.7045 31.117C37.5839 30.5904 37.5192 30.0256 37.5192 29.4255C37.5221 28.8254 37.5809 28.2606 37.7015 27.737C37.8222 27.2104 38.0016 26.7221 38.2428 26.269C38.487 25.8131 38.7841 25.4071 39.1253 25.0512C39.4695 24.6982 39.8608 24.401 40.2991 24.151C40.7433 23.9039 41.2169 23.7186 41.7258 23.595C42.2348 23.4744 42.776 23.4126 43.3467 23.4126C43.8968 23.4097 44.4175 23.4715 44.9088 23.5891C45.3971 23.7097 45.859 23.8892 46.2914 24.1304C46.7209 24.3716 47.1033 24.6599 47.4387 24.9982C47.774 25.3365 48.0623 25.7248 48.3036 26.1631C48.5418 26.5926 48.7213 27.0574 48.8419 27.5546C48.9625 28.0547 49.0213 28.5871 49.0243 29.1519ZM46.5003 28.39C46.4885 27.4987 46.1679 26.7868 45.5472 26.2484C45.2383 25.9807 44.8911 25.7778 44.5058 25.6454C44.1204 25.5101 43.6968 25.4424 43.2408 25.4424C42.4054 25.4454 41.6964 25.7101 41.1022 26.2484C40.8051 26.5103 40.5697 26.8191 40.3932 27.1751C40.2167 27.531 40.0991 27.9341 40.0432 28.39C40.0432 28.39 40.4462 28.39 41.0522 28.39C41.6582 28.39 42.4642 28.39 43.2703 28.3871C44.0792 28.39 44.8853 28.3871 45.4913 28.3871C46.0973 28.39 46.5003 28.39 46.5003 28.39ZM56.1021 23.4126C56.5522 23.4126 56.9758 23.4567 57.3759 23.5479C57.7759 23.6391 58.1495 23.7774 58.4967 23.9627C59.2027 24.3128 59.7528 24.757 60.144 25.2924L60.147 23.5979C60.147 23.5979 60.7559 23.6009 61.3619 23.6009C61.9709 23.5979 62.5827 23.6009 62.5827 23.6009C62.5827 23.6009 62.5827 24.3393 62.5827 25.4512C62.5827 26.0072 62.5827 26.6573 62.5798 27.3516C62.5827 28.0458 62.5827 28.7901 62.5827 29.5314C62.5827 30.2727 62.5827 31.0141 62.5827 31.7083C62.5827 32.4026 62.5827 33.0497 62.5827 33.6087C62.5827 34.7206 62.5827 35.462 62.5827 35.462C62.5827 35.9974 62.5239 36.5033 62.4121 36.9799C62.3003 37.4565 62.1327 37.9036 61.9032 38.3184C61.6767 38.742 61.4002 39.1215 61.0736 39.4539C60.7442 39.7863 60.3647 40.0717 59.9352 40.3129C59.5116 40.5512 59.0438 40.7306 58.5378 40.8512C58.0289 40.9718 57.4759 41.0307 56.8846 41.0336C56.0933 41.0336 55.3696 40.9395 54.7136 40.7512C54.0576 40.5629 53.4692 40.2835 52.9456 39.9099C52.422 39.5421 52.0131 39.1068 51.716 38.6067C51.4189 38.1066 51.2365 37.5388 51.1629 36.9005C51.1629 36.9005 51.763 36.9005 52.3632 36.9034C52.9603 36.9005 53.5575 36.9005 53.5575 36.9005C53.7399 37.5065 54.1311 37.9977 54.7224 38.3625C55.3314 38.742 56.0491 38.9332 56.8817 38.9361C57.37 38.9332 57.8112 38.8597 58.2025 38.7126C58.5967 38.5625 58.9409 38.3419 59.238 38.0477C59.541 37.7506 59.7675 37.3859 59.9175 36.9534C60.0705 36.5239 60.144 36.0238 60.147 35.462V33.5145C59.7381 34.0646 59.1791 34.5324 58.4731 34.9119C58.126 35.0942 57.7554 35.2325 57.3612 35.3237C56.964 35.4149 56.5463 35.462 56.1021 35.462C55.5932 35.459 55.1078 35.3972 54.6401 35.2707C54.1753 35.1442 53.7281 34.953 53.3074 34.7C52.8868 34.4382 52.5132 34.1264 52.1837 33.7675C51.8513 33.4086 51.563 32.9997 51.313 32.5379C51.0747 32.0731 50.8952 31.5759 50.7746 31.0494C50.654 30.5228 50.5952 29.9697 50.5952 29.3843C50.5952 28.7989 50.654 28.2459 50.7746 27.7252C50.8952 27.2075 51.0747 26.7221 51.313 26.269C51.563 25.816 51.8513 25.4159 52.1837 25.0688C52.5132 24.7187 52.8897 24.4187 53.3074 24.1716C53.7311 23.9186 54.1753 23.7274 54.6401 23.6009C55.1049 23.4744 55.5932 23.4097 56.1021 23.4126ZM60.144 29.4255C60.144 28.6224 59.9793 27.9194 59.6381 27.3281C59.3145 26.7338 58.882 26.2837 58.3437 25.9719C57.8112 25.663 57.2317 25.5042 56.6081 25.5071C55.9874 25.5042 55.4108 25.663 54.8754 25.9749C54.3371 26.269 53.8987 26.7132 53.5575 27.3075C53.2368 27.887 53.0692 28.5783 53.0692 29.3843C53.0692 30.1874 53.2368 30.8964 53.5604 31.4994C53.8987 32.1084 54.3371 32.5761 54.8724 32.8997C55.4226 33.2086 55.9991 33.3645 56.6081 33.3645C57.2288 33.3645 57.8112 33.2086 58.3466 32.8997C58.885 32.5908 59.3145 32.1378 59.6351 31.5436C59.9793 30.9346 60.147 30.2316 60.144 29.4255ZM64.9479 29.3843C64.9479 28.796 65.0097 28.2459 65.1303 27.7252C65.2479 27.2075 65.4274 26.7221 65.6716 26.272C65.9187 25.816 66.207 25.4159 66.5364 25.0659C66.8688 24.7187 67.2424 24.4187 67.6602 24.1716C68.0838 23.9186 68.528 23.7274 68.9928 23.6009C69.4605 23.4744 69.9488 23.4126 70.4548 23.4097C70.9167 23.4126 71.3432 23.4567 71.7433 23.5479C72.1404 23.6391 72.5081 23.7774 72.8494 23.9627C73.5436 24.3128 74.0908 24.757 74.5026 25.2953V23.5979C74.5026 23.5979 75.1116 23.6009 75.7205 23.5979C76.3295 23.6009 76.9384 23.5979 76.9384 23.5979C76.9384 23.5979 76.9384 24.3304 76.9384 25.4218C76.9384 25.969 76.9384 26.6103 76.9355 27.2928C76.9384 27.9752 76.9384 28.7048 76.9384 29.4343C76.9384 30.1639 76.9384 30.8964 76.9384 31.5789C76.9384 32.2614 76.9384 32.9027 76.9384 33.4498C76.9384 34.5412 76.9355 35.2707 76.9355 35.2707C76.9355 35.2707 76.3265 35.2707 75.7205 35.2707C75.1116 35.2707 74.5026 35.2737 74.5026 35.2737V33.5351C74.0937 34.0852 73.5348 34.5441 72.8288 34.9089C72.4758 35.0942 72.0963 35.2325 71.6962 35.3237C71.2932 35.4149 70.8667 35.459 70.4136 35.459C69.9106 35.459 69.434 35.3972 68.9722 35.2707C68.5133 35.1442 68.075 34.953 67.6602 34.7C67.2424 34.4382 66.8688 34.1294 66.5364 33.7675C66.207 33.4086 65.9187 32.9997 65.6716 32.5408C65.4303 32.0731 65.2479 31.5759 65.1303 31.0494C65.0097 30.5228 64.9508 29.9668 64.9479 29.3843ZM74.5026 29.4255C74.5026 28.6224 74.3291 27.9194 73.9937 27.331C73.6672 26.7338 73.2347 26.2808 72.7023 25.9749C72.1669 25.663 71.5874 25.5071 70.9667 25.5042C70.343 25.5042 69.7635 25.6601 69.2281 25.9719C68.6927 26.272 68.2544 26.7162 67.9132 27.3075C67.5896 27.887 67.4278 28.5754 67.4278 29.3843C67.4278 30.1874 67.5896 30.8964 67.9161 31.5024C68.2544 32.1054 68.6927 32.5761 69.2281 32.8997C69.7782 33.2086 70.3548 33.3645 70.9667 33.3645C71.5874 33.3674 72.1669 33.2115 72.7023 32.8968C73.2377 32.5908 73.6672 32.1349 73.9937 31.5406C74.3291 30.9346 74.4997 30.2286 74.5026 29.4255Z" fill="#C40A23"/>
<path d="M110.342 27.7734C110.342 27.0498 110.424 26.3673 110.589 25.723C110.757 25.0758 111.004 24.4669 111.339 23.8933C111.674 23.3226 112.072 22.8137 112.528 22.3695C112.983 21.9252 113.498 21.5458 114.069 21.2251C114.646 20.9015 115.252 20.6574 115.884 20.4956C116.516 20.3338 117.175 20.2514 117.861 20.2543C118.643 20.2514 119.385 20.3514 120.079 20.5426C120.776 20.7368 121.426 21.031 122.035 21.4193C122.647 21.7988 123.177 22.2606 123.621 22.8048C124.065 23.349 124.427 23.9727 124.7 24.6787C124.7 24.6787 123.977 24.6817 123.25 24.6787C122.524 24.6817 121.8 24.6817 121.8 24.6817C121.609 24.2904 121.382 23.9521 121.117 23.6638C120.853 23.3726 120.55 23.1314 120.211 22.9401C119.87 22.7519 119.505 22.6107 119.114 22.5136C118.723 22.4195 118.305 22.3724 117.861 22.3695C117.373 22.3724 116.911 22.4253 116.478 22.5342C116.043 22.643 115.637 22.8078 115.254 23.0284C114.872 23.2461 114.531 23.5108 114.231 23.8256C113.931 24.1404 113.672 24.5022 113.454 24.9111C113.242 25.32 113.083 25.7642 112.978 26.2408C112.869 26.7173 112.819 27.2263 112.816 27.7734C112.819 28.3147 112.872 28.8236 112.978 29.3002C113.083 29.7767 113.242 30.2209 113.454 30.6328C113.672 31.0387 113.931 31.4035 114.231 31.7212C114.531 32.0389 114.872 32.3096 115.254 32.5361C115.637 32.7567 116.043 32.9215 116.478 33.0303C116.911 33.1391 117.373 33.1921 117.861 33.1921C118.305 33.1921 118.723 33.145 119.114 33.0509C119.505 32.9538 119.87 32.8126 120.211 32.6243C120.55 32.4302 120.853 32.1919 121.117 31.9007C121.382 31.6124 121.609 31.2741 121.8 30.8858C121.8 30.8858 122.524 30.8828 123.25 30.8828C123.977 30.8828 124.703 30.8828 124.703 30.8828C124.427 31.5918 124.065 32.2154 123.621 32.7597C123.177 33.3039 122.647 33.7657 122.035 34.1482C121.426 34.5276 120.776 34.813 120.079 35.0042C119.385 35.1954 118.643 35.2895 117.861 35.2925C117.17 35.2895 116.508 35.2101 115.875 35.0542C115.243 34.8924 114.64 34.6541 114.066 34.3364C113.498 34.0128 112.983 33.6245 112.528 33.1774C112.072 32.7273 111.677 32.2184 111.336 31.6477C111.004 31.074 110.757 30.4651 110.589 29.8209C110.424 29.1737 110.342 28.4912 110.342 27.7734ZM132.59 35.3543C132.04 35.3543 131.516 35.2895 131.016 35.166C130.519 35.0424 130.048 34.8571 129.604 34.61C129.16 34.357 128.763 34.057 128.413 33.701C128.063 33.348 127.76 32.945 127.507 32.4949C127.254 32.036 127.063 31.5388 126.933 31.0093C126.807 30.4828 126.745 29.915 126.745 29.3149C126.742 28.7236 126.81 28.1647 126.939 27.6381C127.071 27.1145 127.266 26.6232 127.527 26.1613C127.789 25.7054 128.098 25.2994 128.454 24.9464C128.813 24.5905 129.216 24.2904 129.669 24.0433C130.119 23.7962 130.599 23.6109 131.102 23.4873C131.608 23.3638 132.137 23.302 132.696 23.302C133.255 23.3049 133.784 23.3667 134.29 23.4903C134.796 23.6109 135.273 23.7962 135.726 24.0433C136.176 24.2904 136.582 24.5905 136.938 24.9435C137.294 25.2965 137.603 25.7024 137.865 26.1613C138.126 26.6203 138.321 27.1145 138.453 27.6381C138.582 28.1647 138.65 28.7236 138.65 29.3178C138.65 29.9121 138.582 30.471 138.447 30.9976C138.312 31.5212 138.112 32.0125 137.844 32.4714C137.576 32.9303 137.259 33.3392 136.891 33.6951C136.523 34.054 136.106 34.357 135.638 34.613C135.182 34.8601 134.696 35.0454 134.187 35.166C133.679 35.2895 133.146 35.3543 132.59 35.3543ZM132.59 33.2568C133.211 33.2568 133.787 33.1097 134.326 32.8126C134.879 32.5184 135.323 32.0713 135.661 31.4771C136 30.8858 136.17 30.1621 136.167 29.3178C136.17 28.4677 136.008 27.7558 135.682 27.1762C135.358 26.585 134.929 26.1378 134.39 25.8436C133.855 25.5495 133.276 25.3965 132.655 25.3965C132.031 25.3994 131.455 25.5465 130.919 25.8466C130.393 26.1408 129.978 26.5879 129.669 27.1792C129.357 27.7558 129.201 28.4706 129.201 29.3178C129.201 29.9474 129.281 30.5033 129.437 30.9917C129.595 31.4771 129.837 31.8948 130.154 32.2419C130.478 32.5802 130.843 32.8332 131.249 33.0038C131.655 33.1744 132.102 33.2598 132.59 33.2568ZM155.162 23.3049C155.618 23.302 156.053 23.349 156.465 23.4461C156.874 23.5403 157.26 23.6844 157.621 23.8756C157.986 24.0639 158.313 24.3022 158.598 24.5846C158.886 24.867 159.13 25.1935 159.336 25.5671C159.548 25.9437 159.704 26.3555 159.813 26.8085C159.919 27.2586 159.972 27.7528 159.972 28.2823C159.972 28.2823 159.972 28.7118 159.972 29.3561C159.972 29.6797 159.969 30.0562 159.972 30.4592C159.972 30.8622 159.972 31.2917 159.969 31.7212C159.969 32.1537 159.972 32.5832 159.972 32.9862C159.972 33.3892 159.972 33.7657 159.972 34.0893C159.972 34.7336 159.969 35.1631 159.969 35.1631C159.969 35.1631 159.372 35.1631 158.775 35.1631C158.174 35.1631 157.577 35.1631 157.577 35.1631C157.577 35.1631 157.574 34.7571 157.577 34.1452C157.577 33.5333 157.577 32.7185 157.574 31.9036C157.577 31.0858 157.574 30.271 157.577 29.6591C157.577 29.0472 157.577 28.6412 157.577 28.6412C157.577 28.1176 157.51 27.6557 157.38 27.2586C157.251 26.8585 157.054 26.5232 156.795 26.2437C156.268 25.6789 155.559 25.3965 154.656 25.3965C153.75 25.3965 153.029 25.6789 152.491 26.2467C152.229 26.5202 152.035 26.8585 151.906 27.2586C151.776 27.6587 151.711 28.1176 151.711 28.6412C151.711 28.6412 151.711 29.0472 151.711 29.6591C151.711 30.271 151.711 31.0858 151.711 31.9007C151.708 32.7185 151.708 33.5333 151.711 34.1452C151.708 34.7571 151.708 35.1631 151.708 35.1631C151.708 35.1631 151.111 35.1631 150.514 35.166C149.914 35.1631 149.314 35.166 149.314 35.166C149.314 35.166 149.317 34.7571 149.314 34.1452C149.317 33.5333 149.317 32.7185 149.317 31.9007C149.317 31.0858 149.317 30.271 149.317 29.6591C149.317 29.0472 149.317 28.6412 149.317 28.6412C149.317 28.1176 149.249 27.6587 149.12 27.2586C148.99 26.8585 148.793 26.5202 148.534 26.2467C148.011 25.6818 147.299 25.3994 146.39 25.3994C145.49 25.3965 144.772 25.6789 144.234 26.2437C143.972 26.5202 143.775 26.8585 143.645 27.2586C143.516 27.6587 143.451 28.1176 143.451 28.6383C143.451 28.6383 143.451 29.0472 143.448 29.6591C143.448 30.271 143.451 31.0858 143.451 31.9036C143.451 32.7185 143.451 33.5333 143.451 34.1452C143.451 34.7571 143.451 35.166 143.451 35.166C143.451 35.166 142.845 35.1631 142.242 35.166C141.639 35.166 141.036 35.1631 141.036 35.1631C141.036 35.1631 141.036 34.4335 141.036 33.3392C141.036 32.795 141.033 32.1537 141.036 31.4712C141.036 30.7887 141.036 30.0562 141.036 29.3296C141.036 28.5971 141.036 27.8676 141.036 27.1851C141.036 26.4996 141.036 25.8613 141.036 25.3171C141.036 24.2227 141.036 23.4903 141.036 23.4903C141.036 23.4903 141.639 23.4903 142.242 23.4903C142.845 23.4932 143.451 23.4903 143.451 23.4903V24.8287C143.845 24.3492 144.345 23.9727 144.954 23.7021C145.56 23.4373 146.21 23.3049 146.902 23.3049C147.366 23.302 147.808 23.352 148.225 23.452C148.64 23.5491 149.031 23.6962 149.402 23.8962C149.767 24.0933 150.09 24.3345 150.376 24.6199C150.658 24.9082 150.899 25.2347 151.097 25.6083C151.45 24.9023 152 24.3492 152.75 23.9403C153.123 23.7285 153.512 23.5697 153.912 23.4608C154.315 23.3579 154.73 23.302 155.162 23.3049ZM165.458 25.2082C165.864 24.6699 166.423 24.2227 167.132 23.855C167.485 23.6697 167.859 23.5314 168.259 23.4402C168.656 23.349 169.079 23.302 169.521 23.3049C170.033 23.3049 170.518 23.3667 170.98 23.4932C171.442 23.6197 171.883 23.8109 172.301 24.0639C172.724 24.3139 173.101 24.6111 173.43 24.9582C173.763 25.3082 174.048 25.7083 174.289 26.1613C174.53 26.6144 174.71 27.0998 174.83 27.6175C174.948 28.1382 175.01 28.6883 175.01 29.2766C175.01 29.8621 174.948 30.4151 174.83 30.9417C174.71 31.4682 174.53 31.9654 174.289 32.4331C174.048 32.892 173.763 33.3009 173.43 33.6598C173.101 34.0217 172.721 34.3305 172.301 34.5924C171.883 34.8453 171.442 35.0366 170.98 35.1631C170.518 35.2895 170.033 35.3543 169.524 35.3513C169.079 35.3513 168.659 35.3072 168.262 35.2219C167.867 35.1307 167.497 34.9983 167.153 34.8218C166.461 34.457 165.893 34.007 165.458 33.4686C165.458 33.4686 165.458 33.9216 165.458 34.6012C165.458 34.9424 165.458 35.3366 165.455 35.7602C165.455 36.1868 165.458 36.6398 165.458 37.0928C165.458 37.5429 165.458 37.9959 165.458 38.4225C165.458 38.8461 165.458 39.2403 165.458 39.5815C165.458 40.2611 165.458 40.7112 165.458 40.7112C165.458 40.7112 164.852 40.7112 164.249 40.7112C163.646 40.7141 163.043 40.7112 163.043 40.7112C163.043 40.7112 163.04 40.4435 163.04 39.9728C163.043 39.5021 163.043 38.8285 163.043 38.0224C163.043 37.6194 163.04 37.1811 163.043 36.7192C163.043 36.2574 163.04 35.7691 163.043 35.2631C163.04 34.76 163.043 34.2393 163.04 33.7069C163.04 33.1774 163.043 32.639 163.043 32.1007C163.043 31.5653 163.04 31.027 163.043 30.4975C163.043 29.965 163.04 29.4443 163.043 28.9413C163.043 28.4353 163.04 27.947 163.043 27.4851C163.04 27.0233 163.04 26.585 163.04 26.1819C163.04 25.3759 163.043 24.7022 163.043 24.2316C163.043 23.7609 163.043 23.4932 163.043 23.4932C163.043 23.4932 163.646 23.4903 164.249 23.4932C164.852 23.4932 165.458 23.4903 165.458 23.4903V25.2082ZM172.554 29.2737C172.554 28.4677 172.383 27.7793 172.042 27.1968C171.721 26.6055 171.28 26.1613 170.733 25.8672C170.194 25.5554 169.618 25.3994 168.994 25.3994C168.385 25.3965 167.809 25.5554 167.256 25.8642C166.72 26.1761 166.285 26.6261 165.946 27.2233C165.62 27.8117 165.458 28.5147 165.458 29.3178C165.458 30.1209 165.62 30.8299 165.946 31.4329C166.285 32.0301 166.72 32.4802 167.256 32.792C167.809 33.1009 168.385 33.2598 168.994 33.2568C169.618 33.2568 170.194 33.1038 170.733 32.792C171.283 32.4655 171.721 31.9977 172.045 31.3917C172.383 30.7887 172.551 30.0797 172.554 29.2737ZM176.593 29.2737C176.593 28.6912 176.651 28.1382 176.772 27.6175C176.893 27.0998 177.072 26.6144 177.313 26.1643C177.56 25.7113 177.849 25.3082 178.181 24.9582C178.514 24.6111 178.887 24.311 179.302 24.0668C179.728 23.8109 180.173 23.6197 180.637 23.4932C181.102 23.3667 181.591 23.302 182.097 23.302C182.558 23.3049 182.985 23.349 183.385 23.4402C183.782 23.5314 184.153 23.6697 184.494 23.8521C185.185 24.208 185.733 24.6522 186.144 25.1876V23.4903C186.144 23.4903 186.75 23.4903 187.362 23.4903C187.971 23.4932 188.58 23.4903 188.58 23.4903C188.58 23.4903 188.58 24.2198 188.58 25.3141C188.58 25.8642 188.58 26.4996 188.58 27.1851C188.58 27.8705 188.58 28.6 188.58 29.3267C188.58 30.0562 188.58 30.7887 188.577 31.4712C188.58 32.1566 188.58 32.795 188.58 33.3392C188.58 34.4364 188.577 35.166 188.577 35.166C188.577 35.166 187.971 35.166 187.362 35.166C186.753 35.166 186.144 35.1631 186.144 35.1631V33.4274C185.733 33.9746 185.18 34.4364 184.471 34.8042C184.118 34.9866 183.741 35.1248 183.338 35.216C182.935 35.3072 182.508 35.3513 182.058 35.3513C181.555 35.3513 181.076 35.2895 180.617 35.1631C180.158 35.0366 179.72 34.8453 179.305 34.5924C178.887 34.3305 178.514 34.0217 178.181 33.6598C177.849 33.3009 177.56 32.8891 177.313 32.4302C177.072 31.9654 176.893 31.4682 176.772 30.9417C176.651 30.418 176.593 29.8591 176.593 29.2737ZM186.144 29.3178C186.144 28.5147 185.977 27.8117 185.638 27.2204C185.312 26.6291 184.882 26.1731 184.341 25.8642C183.809 25.5554 183.229 25.3994 182.605 25.3965C181.988 25.3994 181.408 25.5524 180.873 25.8672C180.334 26.1613 179.896 26.6055 179.555 27.1998C179.234 27.7793 179.072 28.4706 179.072 29.2766C179.072 30.0797 179.234 30.7887 179.555 31.3947C179.896 32.0007 180.334 32.4684 180.873 32.792C181.42 33.1038 182.002 33.2598 182.605 33.2568C183.229 33.2568 183.809 33.1009 184.344 32.7891C184.882 32.4802 185.312 32.0301 185.638 31.4359C185.977 30.8299 186.144 30.1239 186.144 29.3178ZM195.99 35.3513C195.529 35.3543 195.093 35.3131 194.681 35.2307C194.267 35.1513 193.878 35.0307 193.51 34.8689C192.79 34.5276 192.219 34.0746 191.795 33.5127C191.372 32.9303 191.145 32.289 191.116 31.583C191.116 31.583 191.743 31.5859 192.366 31.5859C192.99 31.5859 193.616 31.5859 193.616 31.5859C193.658 32.0801 193.893 32.492 194.317 32.8332C194.755 33.1597 195.293 33.3215 195.946 33.3186C196.623 33.3215 197.144 33.1921 197.514 32.9391C197.897 32.6685 198.085 32.3302 198.085 31.9213C198.085 31.4829 197.873 31.1623 197.449 30.9475C197.041 30.7357 196.385 30.5033 195.481 30.2474C194.605 30.0091 193.893 29.7767 193.34 29.5502C192.79 29.3237 192.307 28.9766 191.901 28.5147C191.504 28.047 191.307 27.4351 191.307 26.6673C191.307 26.0466 191.492 25.4847 191.857 24.9758C192.225 24.4551 192.749 24.0433 193.425 23.7491C193.769 23.5991 194.14 23.4873 194.537 23.4138C194.931 23.3402 195.352 23.3049 195.799 23.3049C196.461 23.302 197.058 23.3873 197.591 23.5579C198.123 23.7256 198.591 23.9786 198.997 24.3198C199.406 24.6522 199.718 25.0435 199.938 25.4995C200.156 25.9554 200.279 26.4702 200.309 27.0527C200.309 27.0527 199.703 27.0527 199.103 27.0527C198.5 27.0527 197.897 27.0527 197.897 27.0527C197.852 26.5291 197.641 26.1143 197.258 25.8025C196.879 25.4936 196.364 25.3347 195.714 25.3377C195.075 25.3377 194.587 25.4553 194.252 25.6966C193.914 25.9348 193.743 26.2555 193.74 26.6497C193.743 26.9586 193.855 27.2204 194.078 27.4322C194.308 27.644 194.584 27.8117 194.908 27.9382C195.234 28.0558 195.714 28.2 196.349 28.3882C197.196 28.6118 197.888 28.8472 198.423 29.0854C198.976 29.309 199.444 29.6502 199.844 30.1033C200.238 30.5504 200.441 31.1535 200.459 31.9036C200.456 32.5626 200.271 33.1597 199.906 33.6804C199.541 34.2011 199.017 34.61 198.341 34.9101C198.008 35.0572 197.644 35.1689 197.252 35.2425C196.861 35.316 196.44 35.3513 195.99 35.3513ZM207.301 35.3513C206.842 35.3513 206.407 35.3131 205.995 35.2307C205.58 35.1513 205.192 35.0307 204.824 34.8689C204.104 34.5276 203.53 34.0776 203.109 33.5127C202.686 32.9332 202.456 32.2919 202.433 31.5859C202.433 31.5859 203.056 31.5859 203.68 31.5859C204.304 31.5859 204.927 31.5859 204.927 31.5859C204.974 32.0801 205.204 32.4949 205.627 32.8332C206.066 33.1597 206.61 33.3215 207.26 33.3186C207.94 33.3215 208.457 33.195 208.825 32.942C209.208 32.6685 209.396 32.3331 209.399 31.9242C209.399 31.4859 209.187 31.1623 208.763 30.9505C208.352 30.7357 207.698 30.5033 206.795 30.2474C205.916 30.0091 205.207 29.7767 204.657 29.5532C204.104 29.3267 203.621 28.9795 203.212 28.5147C202.821 28.047 202.621 27.4322 202.621 26.6673C202.621 26.0496 202.806 25.4847 203.174 24.9758C203.539 24.4522 204.06 24.0433 204.739 23.7491C205.083 23.5991 205.454 23.4873 205.851 23.4138C206.245 23.3402 206.666 23.3049 207.113 23.3049C207.775 23.3049 208.372 23.3873 208.905 23.5579C209.44 23.7256 209.908 23.9815 210.311 24.3169C210.72 24.6522 211.031 25.0435 211.252 25.4995C211.47 25.9554 211.593 26.4732 211.62 27.0527C211.62 27.0527 211.02 27.0527 210.417 27.0527C209.814 27.0527 209.211 27.0527 209.211 27.0527C209.166 26.5291 208.955 26.1143 208.575 25.7995C208.193 25.4936 207.678 25.3377 207.028 25.3377C206.392 25.3347 205.904 25.4553 205.566 25.6966C205.227 25.9378 205.057 26.2555 205.057 26.6497C205.057 26.9586 205.169 27.2233 205.398 27.4322C205.619 27.644 205.898 27.8117 206.219 27.9382C206.545 28.0529 207.028 28.2029 207.663 28.3882C208.51 28.6118 209.202 28.8472 209.74 29.0854C210.29 29.3119 210.764 29.6502 211.158 30.1033C211.549 30.5534 211.755 31.1535 211.77 31.9007C211.77 32.5655 211.587 33.1597 211.22 33.6834C210.855 34.204 210.328 34.61 209.655 34.9101C209.322 35.0572 208.96 35.1689 208.566 35.2425C208.175 35.316 207.754 35.3543 207.301 35.3513Z" fill="#C40A23"/>
<path d="M91.5988 27.9567C91.5988 27.9567 91.1872 27.5976 90.5739 27.0589C90.2673 26.791 89.9109 26.4761 89.527 26.1418C89.143 25.8048 88.7342 25.4457 88.3253 25.0866C87.9165 24.7302 87.5077 24.3711 87.1237 24.0341C86.7397 23.6999 86.3834 23.3849 86.0767 23.117C85.4635 22.5783 85.0546 22.2192 85.0546 22.2192C84.4663 21.7054 84.1762 21.4513 84.0906 21.5286C83.9994 21.606 84.2204 21.9236 84.6624 22.5673C84.6624 22.5673 84.9276 22.9568 85.3254 23.5369C85.5243 23.8269 85.7591 24.1639 86.0077 24.5286C86.2563 24.8904 86.5215 25.2772 86.7894 25.6639C87.0546 26.0507 87.3198 26.4374 87.5684 26.7993C87.817 27.1639 88.0518 27.5009 88.2507 27.791C88.6485 28.3711 88.9165 28.7606 88.9165 28.7606C88.9248 28.7688 88.9303 28.7771 88.9331 28.7827C88.9331 28.7937 88.9386 28.7992 88.9441 28.8103C88.9441 28.8103 89.2286 29.5506 89.6568 30.6583C89.8695 31.2136 90.1181 31.86 90.3861 32.5533C90.5214 32.8986 90.6595 33.2577 90.7977 33.6196C90.9386 33.9843 91.0822 34.3544 91.2231 34.7246C91.3667 35.092 91.5104 35.4621 91.6512 35.8268C91.7894 36.1886 91.9275 36.5478 92.0628 36.8931C92.3308 37.5864 92.5794 38.2328 92.7921 38.7881C93.2203 39.8958 93.5076 40.6361 93.5076 40.6361C93.607 40.9013 93.6595 41.0311 93.7507 41.0339C93.8363 41.0311 93.8916 40.9013 93.9965 40.6389C93.9965 40.6389 94.2893 39.8985 94.7286 38.7881C94.9495 38.2356 95.2065 37.5864 95.4799 36.8931C95.618 36.5478 95.7617 36.1886 95.9053 35.824C96.049 35.4621 96.1954 35.092 96.3446 34.7218C96.491 34.3517 96.6374 33.9815 96.781 33.6196C96.9247 33.255 97.0683 32.8959 97.2064 32.5506C97.4799 31.8572 97.7368 31.208 97.9578 30.6556C98.397 29.5451 98.6926 28.8075 98.6926 28.8075C98.6981 28.7965 98.6981 28.7909 98.7036 28.7854C98.7064 28.7799 98.7064 28.7744 98.7175 28.7606C98.7175 28.7606 98.9633 28.3766 99.3307 27.7965C99.5158 27.5064 99.7313 27.1694 99.9633 26.8048C100.195 26.4429 100.441 26.0562 100.687 25.6722C100.933 25.2855 101.179 24.8987 101.411 24.5369C101.643 24.1722 101.858 23.8352 102.043 23.5452C102.411 22.9651 102.659 22.5811 102.659 22.5811C103.071 21.9347 103.278 21.6115 103.19 21.5341C103.101 21.4595 102.82 21.722 102.259 22.2468C102.259 22.2468 101.875 22.6032 101.298 23.1391C101.01 23.407 100.676 23.7192 100.317 24.0534C99.9578 24.3877 99.5738 24.7468 99.1898 25.1032C98.8059 25.4595 98.4219 25.8186 98.0628 26.1529C97.7037 26.4871 97.3694 26.7993 97.0821 27.0672C96.5048 27.6031 96.1208 27.9622 96.1208 27.9622C96.1015 27.9816 96.0877 27.9926 96.0794 28.0064C96.0683 28.0202 96.0656 28.0341 96.0517 28.0644C96.0517 28.0644 95.9247 28.4318 95.7341 28.9816C95.5435 29.5313 95.2866 30.2661 95.0324 30.9981C94.7755 31.7329 94.5214 32.4649 94.328 33.0174C94.1374 33.5671 94.0103 33.9345 94.0103 33.9345C93.8998 34.2439 93.8474 34.3959 93.7534 34.3959C93.6595 34.3959 93.6098 34.2356 93.5103 33.9235C93.5103 33.9235 93.3943 33.5588 93.2231 33.0119C93.0518 32.4622 92.8225 31.7301 92.5932 30.9981C92.3639 30.2688 92.1347 29.5368 91.9606 28.9871C91.7894 28.4401 91.6761 28.0727 91.6761 28.0727C91.6651 28.0423 91.6595 28.0202 91.6485 28.0064C91.6374 27.9926 91.6236 27.9788 91.5988 27.9567Z" fill="#376CF5"/>
<path d="M91.7122 28.0976C91.7122 28.0976 92.2454 28.4126 92.7785 28.7275C93.3117 29.0424 93.8421 29.3601 93.8421 29.3601C93.8863 29.3822 93.936 29.3822 93.9802 29.3601C93.9802 29.3601 94.494 29.0424 95.0078 28.7302C95.5216 28.4125 96.0382 28.0976 96.0382 28.0976C96.0879 28.07 96.11 28.0065 96.0962 27.9485C96.0962 27.9485 95.9525 27.4512 95.7398 26.7054C95.6321 26.3297 95.5078 25.896 95.3752 25.4292C95.2426 24.9623 95.0989 24.4623 94.9581 23.9651C94.8144 23.4679 94.6735 22.9679 94.5382 22.501C94.4056 22.0342 94.2813 21.6005 94.1735 21.2248C93.9608 20.4789 93.82 19.979 93.82 19.979C93.784 19.9182 93.5962 19.9154 93.563 19.9845C93.563 19.9845 93.4443 20.4845 93.2647 21.2303C93.1763 21.6032 93.0713 22.0397 92.9581 22.5065C92.8476 22.9734 92.726 23.4706 92.6073 23.9679C92.4885 24.4678 92.3669 24.9651 92.2564 25.4319C92.1432 25.8988 92.0382 26.3352 91.9498 26.7082C91.7703 27.454 91.6487 27.954 91.6487 27.954C91.6377 28.0065 91.6625 28.0645 91.7122 28.0976Z" fill="#C40A23"/>
</g>
<path d="M76.2403 59.8225H73.0149V68.766H71.3411V59.8225H68.1085V58.4217H76.2403V59.8225ZM78.8108 62.308C79.1125 62.0111 79.4429 61.774 79.8021 61.5968C80.1613 61.4148 80.5803 61.3239 81.0592 61.3239C81.4615 61.3239 81.8135 61.3909 82.1152 61.525C82.4217 61.6591 82.6779 61.8483 82.8839 62.0925C83.0946 62.3367 83.2526 62.6313 83.358 62.9761C83.4633 63.3161 83.516 63.692 83.516 64.1039V68.766H81.9787V64.1039C81.9787 63.6106 81.8638 63.2275 81.6339 62.9545C81.4088 62.6816 81.064 62.5451 80.5995 62.5451C80.2547 62.5451 79.9338 62.6241 79.6369 62.7821C79.3448 62.9402 79.0694 63.1557 78.8108 63.4286V68.766H77.2663V58.1343H78.8108V62.308ZM90.1256 64.2763C90.1256 64.0177 90.0873 63.7782 90.0107 63.5579C89.9388 63.3329 89.8311 63.1389 89.6874 62.9761C89.5437 62.8085 89.3641 62.6792 89.1486 62.5882C88.9379 62.4924 88.6937 62.4445 88.4159 62.4445C87.8556 62.4445 87.415 62.6049 87.0941 62.9258C86.7733 63.2467 86.5697 63.6968 86.4835 64.2763H90.1256ZM86.4404 65.2245C86.4596 65.6412 86.5242 66.0028 86.6344 66.3093C86.7445 66.611 86.8906 66.8624 87.0726 67.0635C87.2593 67.2647 87.4796 67.4155 87.7335 67.5161C87.9921 67.6119 88.2794 67.6598 88.5955 67.6598C88.8972 67.6598 89.1582 67.6262 89.3785 67.5592C89.5988 67.4874 89.7904 67.4107 89.9532 67.3293C90.116 67.2431 90.2549 67.1665 90.3698 67.0995C90.4848 67.0276 90.5901 66.9917 90.6859 66.9917C90.8104 66.9917 90.9062 67.0396 90.9733 67.1354L91.4115 67.7029C91.2295 67.9184 91.0235 68.1004 90.7937 68.2488C90.5638 68.3973 90.3196 68.5194 90.0609 68.6152C89.8023 68.7062 89.5365 68.7708 89.2636 68.8091C88.9906 68.8522 88.7248 68.8738 88.4662 68.8738C87.9585 68.8738 87.4868 68.79 87.051 68.6224C86.62 68.45 86.2441 68.1985 85.9232 67.8681C85.6071 67.5377 85.3581 67.1282 85.1761 66.6397C84.9989 66.1512 84.9103 65.5885 84.9103 64.9516C84.9103 64.4439 84.9893 63.9698 85.1474 63.5292C85.3102 63.0886 85.5401 62.7055 85.837 62.3798C86.1387 62.0542 86.5027 61.798 86.9289 61.6112C87.3599 61.4196 87.846 61.3239 88.3872 61.3239C88.8373 61.3239 89.254 61.3981 89.6371 61.5465C90.0202 61.6902 90.3507 61.9033 90.6284 62.1859C90.9062 62.4684 91.1217 62.8156 91.275 63.2275C91.433 63.6346 91.512 64.0991 91.512 64.6211C91.512 64.8606 91.4857 65.021 91.433 65.1024C91.3803 65.1838 91.2845 65.2245 91.1457 65.2245H86.4404ZM104.001 66.4601C104.092 66.4601 104.171 66.496 104.238 66.5679L104.906 67.2934C104.485 67.8011 103.967 68.1938 103.354 68.4715C102.741 68.7445 102.009 68.881 101.156 68.881C100.4 68.881 99.7148 68.7517 99.1018 68.4931C98.4936 68.2297 97.974 67.8657 97.543 67.4012C97.112 66.9318 96.7791 66.3739 96.5445 65.7274C96.3146 65.0809 96.1996 64.3697 96.1996 63.5939C96.1996 62.818 96.3218 62.1069 96.566 61.4603C96.815 60.809 97.1622 60.2511 97.6076 59.7866C98.0578 59.3172 98.5942 58.9533 99.2168 58.6947C99.8441 58.4361 100.534 58.3068 101.286 58.3068C102.033 58.3068 102.691 58.4289 103.261 58.6731C103.836 58.9126 104.334 59.2334 104.755 59.6357L104.202 60.4187C104.164 60.4714 104.118 60.5169 104.066 60.5552C104.013 60.5935 103.941 60.6127 103.85 60.6127C103.754 60.6127 103.644 60.5696 103.52 60.4834C103.4 60.3924 103.244 60.2942 103.053 60.1889C102.866 60.0787 102.629 59.9805 102.342 59.8943C102.059 59.8033 101.705 59.7578 101.278 59.7578C100.785 59.7578 100.333 59.844 99.9207 60.0164C99.5089 60.1889 99.1545 60.4403 98.8576 60.7707C98.5607 61.1012 98.3284 61.5034 98.1608 61.9776C97.9979 62.4517 97.9165 62.9904 97.9165 63.5939C97.9165 64.2021 98.0027 64.7456 98.1751 65.2245C98.3475 65.6987 98.5846 66.1009 98.8863 66.4314C99.188 66.757 99.5424 67.0061 99.9495 67.1785C100.357 67.3509 100.795 67.4371 101.264 67.4371C101.551 67.4371 101.808 67.4227 102.033 67.394C102.263 67.3605 102.473 67.3102 102.665 67.2431C102.856 67.1713 103.036 67.0827 103.204 66.9773C103.376 66.872 103.546 66.7427 103.714 66.5894C103.809 66.5032 103.905 66.4601 104.001 66.4601ZM109.361 63.3784C109.744 63.3784 110.079 63.3329 110.367 63.2419C110.654 63.1461 110.893 63.0144 111.085 62.8468C111.276 62.6792 111.42 62.4804 111.516 62.2505C111.612 62.0159 111.66 61.7573 111.66 61.4747C111.66 60.9096 111.473 60.4786 111.099 60.1817C110.726 59.8847 110.161 59.7363 109.404 59.7363H108.039V63.3784H109.361ZM114.231 68.766H112.73C112.433 68.766 112.218 68.6511 112.083 68.4212L109.67 64.9372C109.588 64.8175 109.5 64.7313 109.404 64.6786C109.308 64.6259 109.165 64.5996 108.973 64.5996H108.039V68.766H106.358V58.4217H109.404C110.084 58.4217 110.668 58.4911 111.157 58.63C111.65 58.7689 112.055 58.9676 112.371 59.2263C112.687 59.4801 112.919 59.7866 113.068 60.1457C113.221 60.5049 113.297 60.9048 113.297 61.3454C113.297 61.7046 113.242 62.0398 113.132 62.3511C113.027 62.6624 112.871 62.945 112.665 63.1988C112.464 63.4526 112.215 63.6729 111.918 63.8597C111.621 64.0464 111.284 64.1925 110.905 64.2979C111.111 64.4224 111.288 64.5972 111.437 64.8223L114.231 68.766ZM126.483 58.4217V68.766H125.003V61.6759C125.003 61.5609 125.006 61.4364 125.011 61.3023C125.02 61.1634 125.032 61.0245 125.046 60.8857L121.72 67.0276C121.591 67.2814 121.392 67.4083 121.124 67.4083H120.887C120.614 67.4083 120.415 67.2814 120.291 67.0276L116.915 60.8713C116.929 61.0102 116.939 61.1491 116.943 61.2879C116.953 61.4268 116.958 61.5561 116.958 61.6759V68.766H115.478V58.4217H116.735C116.883 58.4217 116.998 58.4361 117.08 58.4648C117.161 58.4887 117.235 58.5678 117.303 58.7018L120.621 64.7145C120.693 64.8534 120.76 64.9971 120.822 65.1455C120.89 65.2892 120.949 65.4377 121.002 65.5909C121.06 65.4377 121.119 65.2868 121.182 65.1383C121.249 64.9851 121.318 64.839 121.39 64.7001L124.659 58.7018C124.726 58.5678 124.8 58.4887 124.881 58.4648C124.963 58.4361 125.078 58.4217 125.226 58.4217H126.483ZM143.516 58.4217V68.766H142.036V61.6759C142.036 61.5609 142.039 61.4364 142.043 61.3023C142.053 61.1634 142.065 61.0245 142.079 60.8857L138.753 67.0276C138.624 67.2814 138.425 67.4083 138.157 67.4083H137.92C137.647 67.4083 137.448 67.2814 137.324 67.0276L133.948 60.8713C133.962 61.0102 133.972 61.1491 133.976 61.2879C133.986 61.4268 133.991 61.5561 133.991 61.6759V68.766H132.511V58.4217H133.768C133.916 58.4217 134.031 58.4361 134.113 58.4648C134.194 58.4887 134.268 58.5678 134.335 58.7018L137.654 64.7145C137.726 64.8534 137.793 64.9971 137.855 65.1455C137.922 65.2892 137.982 65.4377 138.035 65.5909C138.092 65.4377 138.152 65.2868 138.215 65.1383C138.282 64.9851 138.351 64.839 138.423 64.7001L141.691 58.7018C141.759 58.5678 141.833 58.4887 141.914 58.4648C141.996 58.4361 142.111 58.4217 142.259 58.4217H143.516ZM147.176 61.4388V68.766H145.631V61.4388H147.176ZM147.434 59.2263C147.434 59.3651 147.405 59.4968 147.348 59.6213C147.295 59.7459 147.221 59.856 147.125 59.9518C147.03 60.0428 146.917 60.117 146.788 60.1745C146.663 60.2272 146.529 60.2535 146.385 60.2535C146.246 60.2535 146.115 60.2272 145.99 60.1745C145.871 60.117 145.765 60.0428 145.674 59.9518C145.583 59.856 145.509 59.7459 145.452 59.6213C145.399 59.4968 145.372 59.3651 145.372 59.2263C145.372 59.0826 145.399 58.9485 145.452 58.824C145.509 58.6995 145.583 58.5917 145.674 58.5007C145.765 58.4049 145.871 58.3307 145.99 58.278C146.115 58.2205 146.246 58.1918 146.385 58.1918C146.529 58.1918 146.663 58.2205 146.788 58.278C146.917 58.3307 147.03 58.4049 147.125 58.5007C147.221 58.5917 147.295 58.6995 147.348 58.824C147.405 58.9485 147.434 59.0826 147.434 59.2263ZM150.56 62.4086C150.718 62.2457 150.881 62.0997 151.049 61.9704C151.221 61.8363 151.403 61.7213 151.594 61.6256C151.786 61.5298 151.99 61.4556 152.205 61.4029C152.421 61.3502 152.655 61.3239 152.909 61.3239C153.311 61.3239 153.663 61.3909 153.965 61.525C154.272 61.6591 154.528 61.8483 154.734 62.0925C154.944 62.3367 155.102 62.6313 155.208 62.9761C155.313 63.3161 155.366 63.692 155.366 64.1039V68.766H153.829V64.1039C153.829 63.6106 153.714 63.2275 153.484 62.9545C153.259 62.6816 152.914 62.5451 152.449 62.5451C152.105 62.5451 151.784 62.6241 151.487 62.7821C151.195 62.9402 150.919 63.1557 150.661 63.4286V68.766H149.116V61.4388H150.05C150.261 61.4388 150.395 61.537 150.452 61.7333L150.56 62.4086ZM161.846 63.2419C161.631 62.9641 161.394 62.7702 161.135 62.66C160.876 62.5499 160.596 62.4948 160.294 62.4948C159.691 62.4948 159.219 62.7175 158.879 63.1629C158.539 63.6034 158.369 64.2572 158.369 65.124C158.369 65.5741 158.408 65.9597 158.484 66.2805C158.561 66.5966 158.671 66.8552 158.815 67.0564C158.958 67.2575 159.133 67.4036 159.339 67.4946C159.545 67.5855 159.777 67.631 160.036 67.631C160.429 67.631 160.766 67.5472 161.049 67.3796C161.336 67.2072 161.602 66.9654 161.846 66.6541V63.2419ZM163.391 58.1343V68.766H162.457C162.251 68.766 162.119 68.6679 162.062 68.4715L161.925 67.6741C161.619 68.0333 161.269 68.3231 160.876 68.5434C160.488 68.7637 160.036 68.8738 159.519 68.8738C159.107 68.8738 158.733 68.7924 158.398 68.6296C158.063 68.4619 157.775 68.2201 157.536 67.904C157.297 67.5879 157.11 67.1976 156.976 66.7331C156.846 66.2638 156.782 65.7274 156.782 65.124C156.782 64.578 156.854 64.0728 156.997 63.6082C157.146 63.1437 157.356 62.7414 157.629 62.4014C157.902 62.0566 158.233 61.7884 158.621 61.5968C159.013 61.4005 159.452 61.3023 159.935 61.3023C160.366 61.3023 160.733 61.3717 161.034 61.5106C161.336 61.6447 161.607 61.8339 161.846 62.0781V58.1343H163.391ZM169.654 62.7678C169.616 62.8348 169.573 62.8827 169.525 62.9114C169.477 62.9402 169.417 62.9545 169.345 62.9545C169.264 62.9545 169.175 62.9306 169.079 62.8827C168.984 62.83 168.871 62.7725 168.742 62.7103C168.612 62.648 168.459 62.593 168.282 62.5451C168.11 62.4924 167.906 62.466 167.671 62.466C167.48 62.466 167.305 62.49 167.147 62.5379C166.994 62.581 166.862 62.6456 166.752 62.7318C166.646 62.8133 166.565 62.9114 166.508 63.0264C166.45 63.1365 166.421 63.2562 166.421 63.3855C166.421 63.5579 166.474 63.7016 166.579 63.8166C166.685 63.9315 166.824 64.0321 166.996 64.1183C167.168 64.1997 167.365 64.2739 167.585 64.341C167.805 64.408 168.031 64.4798 168.26 64.5565C168.49 64.6331 168.715 64.7217 168.936 64.8223C169.156 64.9228 169.352 65.0473 169.525 65.1958C169.697 65.3395 169.836 65.5167 169.941 65.7274C170.047 65.9333 170.099 66.1847 170.099 66.4817C170.099 66.8265 170.037 67.145 169.913 67.4371C169.788 67.7292 169.606 67.983 169.367 68.1985C169.127 68.414 168.828 68.5817 168.469 68.7014C168.114 68.8211 167.707 68.881 167.247 68.881C166.994 68.881 166.747 68.857 166.508 68.8091C166.273 68.766 166.048 68.7062 165.832 68.6296C165.622 68.5481 165.423 68.4524 165.236 68.3422C165.054 68.2321 164.891 68.1123 164.748 67.983L165.107 67.394C165.15 67.3221 165.203 67.2671 165.265 67.2288C165.332 67.1857 165.413 67.1641 165.509 67.1641C165.61 67.1641 165.708 67.1976 165.804 67.2647C165.904 67.3269 166.019 67.3964 166.148 67.473C166.283 67.5496 166.443 67.6215 166.63 67.6885C166.816 67.7508 167.049 67.7819 167.327 67.7819C167.556 67.7819 167.755 67.7556 167.923 67.7029C168.09 67.6454 168.229 67.5688 168.339 67.473C168.45 67.3772 168.531 67.2695 168.584 67.1497C168.636 67.0252 168.663 66.8935 168.663 66.7546C168.663 66.5679 168.61 66.4146 168.505 66.2949C168.399 66.1752 168.258 66.0722 168.081 65.986C167.908 65.8998 167.71 65.8232 167.485 65.7561C167.264 65.6891 167.039 65.6172 166.809 65.5406C166.579 65.464 166.352 65.3754 166.127 65.2748C165.907 65.1743 165.708 65.0473 165.531 64.8941C165.358 64.7361 165.219 64.5469 165.114 64.3266C165.009 64.1015 164.956 63.8285 164.956 63.5077C164.956 63.2155 165.013 62.9378 165.128 62.6744C165.248 62.411 165.42 62.1787 165.646 61.9776C165.875 61.7764 166.156 61.6184 166.486 61.5034C166.821 61.3837 167.207 61.3239 167.643 61.3239C168.136 61.3239 168.584 61.4029 168.986 61.5609C169.388 61.719 169.726 61.9345 169.999 62.2074L169.654 62.7678Z" fill="#376CF5"/>
<circle cx="146.357" cy="59.7882" r="0.945838" fill="#C40A23"/>
<defs>
<clipPath id="clip0_474_8167">
<rect width="209.676" height="36.1239" fill="white" transform="translate(14.4137 5.66953)"/>
</clipPath>
</defs>
</svg>
