<svg width="10" height="10" viewBox="0 0 10 10" fill="none" xmlns="http://www.w3.org/2000/svg">
<path fill-rule="evenodd" clip-rule="evenodd" d="M5 0C2.24219 0 0 2.24219 0 5C0 7.75781 2.24219 10 5 10C7.75781 10 10 7.75781 10 5C10 2.24219 7.75781 0 5 0Z" fill="#C69BF1"/>
<path fill-rule="evenodd" clip-rule="evenodd" d="M7.41699 3.31445C7.53809 3.43555 7.53809 3.63477 7.41699 3.75586L4.4873 6.68555C4.42676 6.74609 4.34668 6.77734 4.2666 6.77734C4.18652 6.77734 4.10645 6.74609 4.0459 6.68555L2.58105 5.2207C2.45996 5.09961 2.45996 4.90039 2.58105 4.7793C2.70215 4.6582 2.90137 4.6582 3.02246 4.7793L4.2666 6.02344L6.97559 3.31445C7.09668 3.19141 7.2959 3.19141 7.41699 3.31445Z" fill="white"/>
</svg>
