<svg width="22" height="21" viewBox="0 0 22 21" fill="none" xmlns="http://www.w3.org/2000/svg">
<path d="M21.1995 19.8575L15.7777 14.5223C17.1975 12.9797 18.0699 10.9396 18.0699 8.69472C18.0692 3.89245 14.1137 0 9.23398 0C4.35427 0 0.398788 3.89245 0.398788 8.69472C0.398788 13.497 4.35427 17.3894 9.23398 17.3894C11.3424 17.3894 13.2761 16.6602 14.795 15.4478L20.2379 20.804C20.5031 21.0653 20.9337 21.0653 21.1989 20.804C21.4647 20.5428 21.4647 20.1188 21.1995 19.8575ZM9.23398 16.0517C5.10522 16.0517 1.75821 12.7579 1.75821 8.69472C1.75821 4.63156 5.10522 1.33773 9.23398 1.33773C13.3628 1.33773 16.7098 4.63156 16.7098 8.69472C16.7098 12.7579 13.3628 16.0517 9.23398 16.0517Z" fill="#BAB3B4"/>
</svg>
