<svg width="24" height="25" viewBox="0 0 24 25" fill="none" xmlns="http://www.w3.org/2000/svg">
<g clip-path="url(#clip0_443_5641)">
<path d="M24 12.8865C24 18.8762 19.6116 23.8407 13.875 24.7407V16.3552H16.6711L17.2031 12.8865H13.875V10.6355C13.875 9.68632 14.34 8.76147 15.8306 8.76147H17.3438V5.80835C17.3438 5.80835 15.9703 5.57397 14.6573 5.57397C11.9166 5.57397 10.125 7.23522 10.125 10.2427V12.8865H7.07812V16.3552H10.125V24.7407C4.38844 23.8407 0 18.8762 0 12.8865C0 6.25929 5.37281 0.886475 12 0.886475C18.6272 0.886475 24 6.25929 24 12.8865Z" fill="#F4EBD8"/>
<path d="M16.6711 16.3552L17.2031 12.8865H13.875V10.6355C13.875 9.68651 14.3399 8.76147 15.8306 8.76147H17.3438V5.80835C17.3438 5.80835 15.9705 5.57397 14.6576 5.57397C11.9165 5.57397 10.125 7.23522 10.125 10.2427V12.8865H7.07812V16.3552H10.125V24.7406C10.736 24.8365 11.3621 24.8865 12 24.8865C12.6379 24.8865 13.264 24.8365 13.875 24.7406V16.3552H16.6711Z" fill="#C40A23"/>
</g>
<defs>
<clipPath id="clip0_443_5641">
<rect width="24" height="24" fill="white" transform="translate(0 0.886475)"/>
</clipPath>
</defs>
</svg>
