<svg width="25" height="25" viewBox="0 0 25 25" fill="none" xmlns="http://www.w3.org/2000/svg">
<ellipse cx="12.625" cy="12.8865" rx="12.0469" ry="12" fill="#F4EBD8"/>
<path d="M5.95476 9.68629H8.88721V18.4766H5.95476V9.68629ZM7.44061 5.44897C6.43696 5.44897 5.78125 6.10531 5.78125 6.96678C5.78125 7.81053 6.41777 8.48596 7.40224 8.48596H7.42094C8.44378 8.48596 9.08076 7.8105 9.08076 6.96678C9.06157 6.10531 8.44381 5.44897 7.44061 5.44897ZM16.0872 9.4798C14.5306 9.4798 13.8332 10.3326 13.4442 10.9307V9.68629H10.5109C10.5497 10.5109 10.5109 18.4766 10.5109 18.4766H13.4442V13.5675C13.4442 13.3045 13.4634 13.0426 13.5406 12.8542C13.753 12.3294 14.2356 11.7858 15.0451 11.7858C16.1073 11.7858 16.5314 12.5923 16.5314 13.7734V18.4766H19.4643V13.436C19.4643 10.7361 18.0177 9.4798 16.0872 9.4798Z" fill="#C40A23"/>
</svg>
