<svg width="25" height="25" viewBox="0 0 25 25" fill="none" xmlns="http://www.w3.org/2000/svg">
<ellipse cx="12.0469" cy="12.8865" rx="12.0469" ry="12" fill="#F4EBD8"/>
<path d="M19.1831 9.13727C19.0103 8.49466 18.5036 7.9881 17.8611 7.81506C16.6873 7.4939 11.992 7.4939 11.992 7.4939C11.992 7.4939 7.29691 7.4939 6.12311 7.80289C5.49295 7.97574 4.97394 8.49475 4.80109 9.13727C4.49219 10.311 4.49219 12.7451 4.49219 12.7451C4.49219 12.7451 4.49219 15.1915 4.80109 16.3529C4.97412 16.9954 5.48059 17.502 6.1232 17.675C7.30927 17.9963 11.9922 17.9963 11.9922 17.9963C11.9922 17.9963 16.6873 17.9963 17.8611 17.6873C18.5037 17.5143 19.0103 17.0078 19.1833 16.3653C19.4921 15.1915 19.4921 12.7574 19.4921 12.7574C19.4921 12.7574 19.5045 10.311 19.1831 9.13727ZM10.4971 14.9938V10.4964L14.4015 12.7451L10.4971 14.9938Z" fill="#C40A23"/>
</svg>
