<svg width="135" height="44" viewBox="0 0 135 44" fill="none" xmlns="http://www.w3.org/2000/svg">
<path d="M19.5653 0.158264C28.9998 0.802877 37.7456 6.76621 39.7207 17.1422C41.0383 24.0636 39.5851 30.3999 34.8415 35.77C31.3297 39.7457 26.8059 41.9375 21.6114 42.7436C19.9781 42.9971 18.3041 43.0648 16.6476 43.0783C11.5721 43.1196 6.496 43.0933 1.42014 43.0933C1.13842 43.0933 0.856709 43.0933 0.514474 43.0933C0.498936 42.8735 0.485771 42.6873 0.531599 42.4046C0.611636 42.0497 0.650997 41.7913 0.651082 41.5328C0.654221 32.0463 0.653732 22.5599 0.653704 13.0734C0.653693 9.09518 0.657682 5.11697 0.648633 1.13879C0.647438 0.613215 0.731041 0.234458 1.38192 0.242838C7.38958 0.32019 13.3973 0.389759 19.4052 0.447699C19.4577 0.448206 19.5119 0.258932 19.5653 0.158264ZM17.1407 7.93436C17.1407 7.93436 17.1274 7.93668 17.0505 7.97174C16.8508 8.19993 16.6511 8.42813 16.4547 8.65249C14.7436 8.2552 14.4109 8.26031 13.5612 8.70087C13.5612 8.70087 13.514 8.73799 13.4202 8.74746C12.6503 9.14597 12.192 9.79332 11.9482 10.6147C11.9482 10.6147 11.9367 10.6024 11.8366 10.5925C10.1198 10.1403 8.49162 10.809 7.97672 12.2829C7.75519 12.917 7.93756 13.7195 7.64051 14.2921C7.34044 14.8706 6.6054 15.2056 6.18395 15.7435C5.52408 16.5858 5.26963 18.3784 6.28269 19.4485C6.28269 19.4485 6.26242 19.4459 6.26846 19.5355C6.74836 19.9429 7.22825 20.3503 7.71338 20.7516C7.71338 20.7516 7.71917 20.7573 7.77974 20.8281C8.94108 21.0155 10.1024 21.2028 11.1391 21.3701C11.4087 22.028 11.6785 22.686 11.9478 23.346C11.9478 23.346 11.9497 23.3461 11.9629 23.434C12.529 24.1643 13.312 24.4281 14.1973 24.4652C14.7858 24.4899 15.3767 24.4809 15.9629 24.5304C17.9817 24.7008 19.66 25.5171 20.8136 27.2281C21.2256 27.8392 21.5508 28.5094 21.9046 29.1587C22.3435 29.9639 23.0982 30.1119 23.7681 29.5141C23.7681 29.5141 23.7675 29.516 23.861 29.4887C24.5203 28.7738 23.8148 27.9369 24.0378 27.1605C26.1511 27.6177 27.9258 27.2106 29.1529 25.3147C29.1529 25.3147 29.151 25.3127 29.2275 25.2643C29.4241 24.7614 29.6601 24.2693 29.804 23.7517C29.9073 23.38 29.996 23.158 30.4557 23.1162C30.8642 23.0789 31.2544 22.8412 31.6488 22.6891C31.6488 22.6891 31.6499 22.6938 31.7394 22.6835C32.5718 22.1527 33.0542 21.3394 32.8838 20.416C32.7172 19.5131 32.6137 18.7261 33.2608 17.9772C33.2608 17.9772 33.256 17.995 33.3413 17.9583C34.1373 16.3246 33.6998 14.5007 32.3046 13.6338C32.3046 13.6338 32.3054 13.6347 32.2699 13.5512C32.1384 13.4743 32.0157 13.366 31.8737 13.3261C31.287 13.1611 31.1254 12.806 31.098 12.1895C31.0221 10.4792 29.5697 8.97181 27.7939 8.86376C26.8783 8.80807 26.0322 8.81314 25.3671 8.11751C25.3671 8.11751 25.3823 8.07798 25.3421 7.99866C24.377 7.33878 23.3477 7.2787 22.3177 7.77666C21.8753 7.99055 21.6079 8.03126 21.1946 7.66967C20.0895 6.70305 18.141 6.79256 17.3225 7.82402C17.3225 7.82402 17.2856 7.81096 17.223 7.82474C17.1813 7.84547 17.1571 7.87882 17.1407 7.93436Z" fill="#50286A"/>
<path d="M13.5141 8.73802C13.5141 8.73802 13.5614 8.7009 13.6148 8.74278C13.9164 8.76249 14.1646 8.72276 14.4128 8.72178C14.9272 8.71976 15.4644 8.64772 15.9509 8.76938C16.7079 8.95865 17.0637 8.76023 17.1276 7.93672C17.1276 7.93672 17.1408 7.9344 17.1845 7.93756C17.2473 7.89748 17.2666 7.85424 17.2858 7.811C17.2858 7.811 17.3227 7.82405 17.3562 7.82887C17.4114 7.83174 17.4359 7.8358 17.4543 7.82697C18.8599 7.15006 20.2115 6.963 21.4197 8.23634C21.4883 8.30865 21.6432 8.30115 21.7588 8.32661C21.9907 8.37768 22.2226 8.42926 22.4559 8.47279C22.513 8.48345 22.5758 8.46387 22.6851 8.45357C22.6159 8.26142 22.5568 8.09752 22.4969 7.93117C23.5072 7.62 24.4442 7.86059 25.3825 8.07801C25.3825 8.07801 25.3673 8.11754 25.3755 8.14751C25.74 9.00157 26.1944 9.21024 26.9566 9.15979C27.5496 9.12055 28.1802 9.21285 28.7483 9.39177C29.1094 9.5055 29.3615 9.92641 29.707 10.1364C30.483 10.6078 30.7619 11.3558 30.8523 12.1746C30.9683 13.225 31.2469 13.5489 32.3056 13.6348C32.3056 13.6348 32.3048 13.6339 32.3063 13.6801C32.4281 13.9051 32.5221 14.1106 32.673 14.258C33.3057 14.8759 33.5723 15.6241 33.4864 16.4912C33.4366 16.9951 33.3347 17.4939 33.2562 17.995C33.2562 17.995 33.2609 17.9773 33.2135 17.9809C32.2432 18.6799 32.2616 18.7363 32.6305 19.8687C32.7855 20.3446 32.8244 20.868 32.4367 21.3487C32.1142 21.7486 31.9078 22.2419 31.65 22.6939C31.65 22.6939 31.6489 22.6891 31.5954 22.6863C31.1583 22.728 30.7425 22.8876 30.3982 22.7916C29.7882 22.6214 29.6141 23.0659 29.5095 23.3932C29.313 24.0085 29.2624 24.6703 29.1512 25.3128C29.1512 25.3128 29.1531 25.3147 29.1062 25.3185C28.3825 25.8092 27.7103 26.3029 27.0254 26.7782C26.8712 26.8852 26.6737 26.9852 26.4935 26.9901C25.6656 27.0124 24.8368 26.9999 23.8471 26.9999C23.8245 27.7148 23.7961 28.6154 23.7676 29.516C23.7676 29.516 23.7683 29.5141 23.7159 29.5121C22.7534 29.7571 22.4059 29.6427 22.0935 28.9617C22.0188 28.7988 22.0557 28.5778 21.9651 28.4303C21.71 28.0154 21.4087 27.6293 21.1374 27.224C20.2587 25.9115 19.1981 24.8364 17.5496 24.5847C16.1028 24.3638 14.6498 24.1837 13.4045 24.0136C12.8315 23.7507 12.3907 23.5484 11.9499 23.3462C11.9499 23.3462 11.948 23.346 11.9501 23.2944C11.8142 22.4612 11.6761 21.6797 11.5445 20.9346C11.1269 20.9544 10.8031 20.9998 10.4835 20.9792C9.56119 20.9195 8.64061 20.8332 7.71934 20.7573C7.71934 20.7573 7.71355 20.7517 7.72196 20.7043C7.58368 20.4963 7.44194 20.3308 7.28886 20.1765C7.14227 20.0287 6.88687 19.9139 6.85016 19.747C6.76377 19.3544 6.52973 19.4032 6.2626 19.4459C6.2626 19.4459 6.28286 19.4485 6.28327 19.392C6.15828 18.5699 5.8592 17.7833 5.94852 17.0435C6.0798 15.9563 6.7766 15.1431 7.8089 14.6534C7.95855 14.5824 8.08183 14.3031 8.08894 14.1154C8.10587 13.6686 7.93274 13.1899 8.0388 12.7758C8.3286 11.6444 10.2349 10.1462 11.5956 10.7964C11.663 10.8286 11.821 10.6714 11.9368 10.6024C11.9368 10.6024 11.9484 10.6147 11.99 10.6105C12.5258 9.98353 13.02 9.36077 13.5141 8.73802Z" fill="white"/>
<path d="M11.9563 23.3901C12.3905 23.5484 12.8314 23.7507 13.4044 24.0136C14.6496 24.1837 16.1026 24.3638 17.5495 24.5847C19.198 24.8363 20.2585 25.9115 21.1372 27.224C21.4085 27.6293 21.7099 28.0154 21.9649 28.4303C22.0556 28.5778 22.0186 28.7987 22.0933 28.9617C22.4057 29.6427 22.7532 29.7571 23.7167 29.5122C23.0982 30.1119 22.3435 29.9639 21.9047 29.1587C21.5508 28.5094 21.2256 27.8392 20.8136 27.2282C19.66 25.5171 17.9817 24.7008 15.9629 24.5304C15.3767 24.4809 14.7858 24.4899 14.1973 24.4652C13.312 24.4281 12.529 24.1643 11.9563 23.3901Z" fill="white"/>
<path d="M11.8866 10.5974C11.8208 10.6714 11.6628 10.8286 11.5954 10.7963C10.2347 10.1462 8.32839 11.6444 8.03858 12.7758C7.93252 13.1898 8.10566 13.6685 8.08873 14.1153C8.08161 14.3031 7.95833 14.5824 7.80869 14.6534C6.77639 15.143 6.07959 15.9562 5.9483 17.0435C5.85898 17.7832 6.15807 18.5698 6.27356 19.3883C5.26958 18.3784 5.52403 16.5858 6.18391 15.7435C6.60535 15.2056 7.34039 14.8706 7.64046 14.2921C7.93752 13.7195 7.75515 12.917 7.97667 12.2829C8.49157 10.809 10.1197 10.1402 11.8866 10.5974Z" fill="white"/>
<path d="M32.2878 13.593C31.2468 13.5489 30.9682 13.225 30.8522 12.1745C30.7618 11.3558 30.4829 10.6078 29.7069 10.1363C29.3614 9.92639 29.1094 9.50548 28.7482 9.39174C28.1801 9.21282 27.5495 9.12052 26.9565 9.15976C26.1943 9.21021 25.7399 9.00154 25.3806 8.12695C26.0322 8.81315 26.8784 8.80807 27.794 8.86377C29.5698 8.97181 31.0222 10.4792 31.0981 12.1895C31.1255 12.806 31.2871 13.1611 31.8738 13.3261C32.0158 13.366 32.1385 13.4744 32.2878 13.593Z" fill="white"/>
<path d="M25.3624 8.03835C24.4442 7.86059 23.5073 7.62 22.4969 7.93116C22.5568 8.09752 22.6159 8.26142 22.6851 8.45357C22.5759 8.46387 22.5131 8.48345 22.4559 8.47279C22.2226 8.42926 21.9907 8.37768 21.7588 8.32661C21.6432 8.30114 21.4884 8.30865 21.4197 8.23633C20.2115 6.963 18.8599 7.15006 17.4543 7.82697C17.4359 7.8358 17.4114 7.83173 17.3391 7.81937C18.1412 6.79259 20.0897 6.70309 21.1947 7.6697C21.6081 8.03129 21.8755 7.99058 22.3179 7.77669C23.3479 7.27873 24.3772 7.33881 25.3624 8.03835Z" fill="white"/>
<path d="M23.8142 29.5024C23.7959 28.6154 23.8244 27.7148 23.847 26.9999C24.8366 26.9999 25.6655 27.0124 26.4933 26.9901C26.6735 26.9852 26.871 26.8852 27.0252 26.7782C27.7102 26.3029 28.3823 25.8092 29.105 25.3176C27.9258 27.2106 26.1511 27.6177 24.0378 27.1605C23.8148 27.9369 24.5203 28.7738 23.8142 29.5024Z" fill="white"/>
<path d="M7.74951 20.7927C8.64049 20.8331 9.56108 20.9194 10.4834 20.9791C10.803 20.9998 11.1268 20.9543 11.5444 20.9346C11.676 21.6796 11.814 22.4611 11.9502 23.2934C11.6785 22.686 11.4088 22.0279 11.1391 21.37C10.1025 21.2028 8.94113 21.0155 7.74951 20.7927Z" fill="white"/>
<path d="M31.6948 22.6886C31.9079 22.2419 32.1142 21.7485 32.4367 21.3487C32.8244 20.868 32.7855 20.3446 32.6305 19.8687C32.2616 18.7362 32.2432 18.6799 33.2129 17.9902C32.6139 18.7261 32.7173 19.5131 32.884 20.416C33.0544 21.3395 32.572 22.1527 31.6948 22.6886Z" fill="white"/>
<path d="M29.1892 25.2886C29.2622 24.6703 29.3127 24.0084 29.5093 23.3932C29.6138 23.0659 29.788 22.6214 30.3979 22.7916C30.7423 22.8876 31.1581 22.728 31.5972 22.6877C31.2544 22.8412 30.8641 23.079 30.4556 23.1162C29.9959 23.1581 29.9072 23.38 29.8039 23.7517C29.6601 24.2693 29.424 24.7614 29.1892 25.2886Z" fill="white"/>
<path d="M33.2988 17.9767C33.3347 17.4939 33.4366 16.9951 33.4864 16.4912C33.5723 15.6241 33.3057 14.8759 32.673 14.258C32.5221 14.1106 32.4281 13.9051 32.3059 13.6797C33.6999 14.5008 34.1375 16.3246 33.2988 17.9767Z" fill="white"/>
<path d="M17.089 7.95422C17.0636 8.76021 16.7078 8.95863 15.9508 8.76936C15.4643 8.6477 14.9271 8.71974 14.4127 8.72176C14.1644 8.72274 13.9163 8.76246 13.6445 8.73905C14.4109 8.26032 14.7436 8.25521 16.4548 8.6525C16.6512 8.42814 16.8509 8.19995 17.089 7.95422Z" fill="white"/>
<path d="M6.26562 19.4907C6.52974 19.4032 6.76378 19.3544 6.85017 19.747C6.88688 19.9138 7.14228 20.0286 7.28887 20.1764C7.44195 20.3308 7.58369 20.4963 7.71935 20.7074C7.22843 20.3503 6.74854 19.9429 6.26562 19.4907Z" fill="white"/>
<path d="M13.4672 8.74274C13.0199 9.36076 12.5258 9.98351 11.9841 10.6045C12.1922 9.79334 12.6505 9.14598 13.4672 8.74274Z" fill="white"/>
<path d="M59.3324 10.9859C60.9174 9.21209 63.4564 8.72148 65.4505 9.75199C67.3816 10.7499 68.2821 13.346 67.8897 15.4383C65.6369 15.4383 63.3718 15.4383 61.0357 15.4383C61.186 16.2442 61.5632 16.8069 62.2441 17.0991C63.5828 17.6738 64.7599 17.297 65.856 16.338C66.3962 16.812 66.9308 17.2811 67.4643 17.7491C66.0652 19.8593 62.503 20.3361 60.2197 18.7293C57.85 17.0616 57.4278 13.5175 59.3324 10.9859ZM61.1519 13.7209C61.7761 13.7357 62.4007 13.7709 63.0244 13.7598C63.6843 13.748 64.3434 13.6922 65.095 13.6096C65.1334 12.4707 64.2242 11.5486 63.0911 11.5275C62.2124 11.5111 60.9904 12.3446 61.1519 13.7209Z" fill="#512B6A"/>
<path d="M53.0533 6.95267C53.1271 6.96939 53.2009 6.98611 53.3026 7.08354C53.5554 7.25575 53.7804 7.34726 54.0054 7.43876C54.0054 7.43876 53.988 7.44611 53.9897 7.4799C54.0745 7.53689 54.1577 7.56009 54.2409 7.58328C56.2198 8.8558 57.0938 10.7286 57.0052 13.0141C56.9689 13.9492 56.6125 14.8718 56.3292 15.8181C56.1522 16.063 56.0476 16.2901 55.943 16.5172C55.943 16.5172 55.9454 16.5202 55.8923 16.5212C55.4549 16.5504 55.3726 16.7683 55.4748 17.102C55.4594 17.0825 55.444 17.0629 55.4028 17.0587C54.9159 17.1519 54.6806 17.4189 54.6911 17.8917C54.6911 17.8917 54.6745 17.8898 54.6407 17.8846C54.5807 17.9229 54.5545 17.9663 54.5284 18.0098C54.5284 18.0098 54.5245 17.9936 54.4808 17.9867C54.2871 18.1125 54.1372 18.2452 53.9872 18.3779C53.9872 18.3779 53.9813 18.3645 53.9442 18.3678C53.8479 18.423 53.7886 18.4749 53.7293 18.5269C53.7293 18.5269 53.727 18.5107 53.6784 18.5052C53.5007 18.5113 53.3667 18.5047 53.2432 18.5375C52.4997 18.7354 51.767 19.0692 51.0148 19.1188C49.5883 19.213 48.1509 19.1586 46.7184 19.14C46.1531 19.1326 45.5886 19.056 45.0238 19.0109C45.0109 17.4445 44.9899 15.8782 44.9871 14.3118C44.9826 11.8079 44.9903 9.30387 45.0666 6.73928C45.7244 6.6345 46.3079 6.56181 46.8925 6.55215C48.0935 6.53229 49.2961 6.51829 50.496 6.55976C50.9833 6.5766 51.4629 6.75853 51.9504 6.83884C52.3144 6.89882 52.6854 6.91628 53.0533 6.95267ZM52.0412 9.43975C50.7039 8.79091 49.2963 8.97377 47.8639 9.00202C47.8639 11.5798 47.8636 14.0695 47.8659 16.5592C47.866 16.6205 47.8953 16.6818 47.9268 16.8044C48.6372 16.8044 49.3537 16.8077 50.0702 16.8038C51.9802 16.7932 53.3947 15.8027 53.8448 14.1644C54.3684 12.259 53.7168 10.4839 52.0412 9.43975Z" fill="#50296A"/>
<path d="M72.2938 13.3285C72.2924 13.5252 72.291 13.7218 72.2352 14.0029C72.1612 15.3152 72.1393 16.543 72.1284 17.7708C72.1278 17.8387 72.2191 17.9073 72.2676 17.9755C72.2769 18.2845 72.2862 18.5935 72.2422 18.976C71.7576 19.366 70.1489 19.4073 69.7674 19.0844C69.6582 18.992 69.5769 18.801 69.5767 18.6551C69.5741 16.1868 69.5886 13.7185 69.5945 11.2501C69.5985 9.55524 69.5953 9.56309 71.2923 9.55039C71.6925 9.54739 72.067 9.53105 72.2621 9.9692C72.2685 10.0998 72.2749 10.2305 72.259 10.4467C72.6357 10.7567 73.0089 10.5223 73.0254 10.0367C73.0254 10.0367 73.0523 9.99099 73.1128 10.0071C73.2953 9.91359 73.4175 9.80407 73.5396 9.69455C75.0484 8.77131 76.8383 9.17043 78.0481 10.731C79.5364 9.21825 81.2503 8.77302 83.2391 9.77748C83.0887 10.046 83.0173 10.1898 83.3366 10.331C83.5543 10.4273 83.8432 10.6043 83.8919 10.7976C84.0803 11.546 84.456 12.2089 84.3616 13.0838C84.2182 14.4137 84.4092 15.7785 84.4385 17.1289C84.4483 17.5789 84.316 18.0454 84.3962 18.477C84.4918 18.9918 84.2607 19.122 83.8596 19.1385C83.3251 19.1604 82.789 19.1439 82.2113 19.1439C82.2113 17.4729 82.2399 15.922 82.1927 14.3734C82.1797 13.9474 81.9404 13.5282 81.8049 13.1058C81.3447 12.0225 80.6786 11.6481 79.6926 11.9187C78.9328 12.1273 78.5276 12.7249 78.5183 13.7292C78.501 15.6 78.5047 17.471 78.4132 19.3311C77.9439 19.2622 77.5604 19.2082 77.1784 19.1447C76.7792 19.0783 76.3385 19.079 76.0054 18.8915C75.8821 18.8221 76.0134 18.3011 76.0283 17.986C76.0293 17.9643 76.0282 17.9425 76.0275 17.9207C75.9876 16.6846 75.9579 15.4481 75.8971 14.2131C75.8875 14.0167 75.7385 13.8272 75.6539 13.6345C75.5085 12.7938 75.2924 11.9822 74.2601 11.8778C73.8932 11.8407 73.5084 11.9801 73.0325 12.052C72.1878 12.2811 72.162 12.3321 72.2938 13.3285Z" fill="#512A6C"/>
<path d="M127.448 10.018C128.625 10.8287 129.001 11.9972 129.029 13.2848C129.071 15.2085 129.041 17.1339 129.038 19.0585C129.038 19.164 129.007 19.2695 128.986 19.4012C128.099 19.4012 127.23 19.4012 126.314 19.4012C126.285 19.1468 126.256 18.8941 126.236 18.7155C125.47 19.0065 124.718 19.4281 123.918 19.556C123.215 19.6684 122.425 19.5659 121.735 19.3561C120.498 18.98 119.783 17.8415 119.787 16.5424C119.791 15.1456 120.511 14.0909 121.811 13.6374C123.133 13.1764 124.473 13.2464 125.814 13.5659C125.936 13.5951 126.061 13.6159 126.186 13.6409C126.323 12.6001 125.743 11.8334 124.642 11.8247C123.568 11.8162 122.492 12.0116 121.33 12.126C121.147 11.5881 120.91 10.8912 120.642 10.1018C122.908 9.24425 125.136 8.8298 127.448 10.018ZM123.449 17.5567C123.644 17.5845 123.837 17.6249 124.032 17.638C125.354 17.7268 126.379 16.907 126.308 15.7938C126.297 15.6243 126.132 15.3353 126.014 15.3227C125.226 15.238 124.427 15.1404 123.641 15.1931C123.063 15.2318 122.657 15.6514 122.594 16.2787C122.534 16.8736 122.819 17.2784 123.449 17.5567Z" fill="#522C6B"/>
<path d="M89.9726 15.454C89.6262 15.4541 89.3437 15.4541 88.9894 15.4541C89.1453 16.2417 89.5219 16.7864 90.1957 17.1082C91.2512 17.6122 92.4255 17.3723 93.8242 16.3591C94.3473 16.8195 94.8813 17.2894 95.4416 17.7824C94.286 19.2248 92.776 19.7327 91.0245 19.674C88.5259 19.5902 86.5222 17.8447 86.161 15.4442C85.7544 12.7426 87.0423 10.304 89.3828 9.52328C92.1439 8.60221 95.3426 9.76471 95.8607 13.6263C95.9378 14.2009 95.8715 14.7948 95.8715 15.4539C93.914 15.4539 91.9752 15.4539 89.9726 15.454ZM93.0676 13.6127C93.0356 12.5596 92.3949 11.7617 91.4229 11.5647C90.1739 11.3115 88.8034 12.5162 89.1291 13.7232C89.7529 13.7374 90.3771 13.7717 91.0005 13.7604C91.6599 13.7484 92.3186 13.6931 93.0676 13.6127Z" fill="#522B6B"/>
<path d="M100.2 10.2193C100.253 10.3485 100.306 10.4776 100.43 10.6328C100.841 10.3888 101.181 10.1187 101.522 9.84867C101.468 9.81995 101.414 9.79124 101.36 9.76252C103.473 8.38358 106.306 9.62457 106.473 12.1326C106.631 14.5209 106.507 16.9278 106.507 19.38C105.614 19.38 104.689 19.38 103.676 19.38C103.676 19.0221 103.676 18.658 103.676 18.294C103.676 16.765 103.685 15.2359 103.671 13.7071C103.664 12.9957 103.46 12.3315 102.77 12.0082C102.063 11.6773 101.365 11.7982 100.66 12.3214C99.9498 12.5182 100.007 13.0978 99.985 13.5196C99.9173 14.8027 99.9447 16.091 99.9421 17.3773C99.9384 19.1421 99.941 19.1331 98.1715 19.1565C97.9287 19.1597 97.6877 19.3046 97.4459 19.3839C97.4071 19.2928 97.3344 19.2017 97.3345 19.1106C97.3367 15.9109 97.3458 12.7113 97.4458 9.52046C98.4285 9.74613 99.5384 9.11882 100.2 10.2193Z" fill="#532C6C"/>
<path d="M108.344 9.43001C108.775 9.48338 108.767 9.24805 108.763 8.98692C108.754 8.31186 108.76 7.63657 108.76 6.91339C109.734 6.91339 110.663 6.91339 111.639 6.91339C111.639 7.73551 111.639 8.53721 111.639 9.41012C112.435 9.41012 113.186 9.41012 113.966 9.41012C113.966 10.2569 113.966 11.0318 113.966 11.8674C113.203 11.8674 112.467 11.8674 111.665 11.8674C111.665 13.4066 111.643 14.887 111.678 16.366C111.688 16.8029 112.006 17.09 112.478 17.0534C112.948 17.017 113.414 16.9281 113.972 16.8494C113.972 17.4899 113.994 18.1752 113.955 18.8572C113.947 18.9936 113.732 19.1683 113.574 19.2381C112.58 19.6776 111.546 19.7356 110.501 19.4597C109.489 19.1927 108.934 18.4739 108.877 17.4749C108.783 15.8404 108.79 14.2 108.756 12.5621C108.751 12.3487 108.755 12.1352 108.755 11.8973C108.35 11.8752 108.006 11.8565 107.622 11.8355C107.622 11.0347 107.622 10.2637 107.622 9.4297C107.856 9.4297 108.069 9.4297 108.344 9.43001Z" fill="#522B6B"/>
<path d="M115.59 12.321C115.59 11.341 115.59 10.4266 115.59 9.4707C116.55 9.4707 117.459 9.4707 118.415 9.4707C118.415 12.76 118.415 16.0671 118.415 19.4042C117.49 19.4042 116.58 19.4042 115.59 19.4042C115.59 17.052 115.59 14.7193 115.59 12.321Z" fill="#512A6B"/>
<path d="M115.55 8.08878C115.548 7.30915 115.548 6.59218 115.548 5.82489C116.546 5.82489 117.512 5.82489 118.528 5.82489C118.528 6.6381 118.528 7.45214 118.528 8.35433C117.585 8.35433 116.636 8.35717 115.688 8.34571C115.641 8.34515 115.597 8.21907 115.55 8.08878Z" fill="#55306C"/>
<path d="M61.072 13.6479C60.9904 12.3446 62.2123 11.5111 63.0911 11.5275C64.2242 11.5486 65.1334 12.4707 64.9882 13.6233C63.6116 13.6406 62.3418 13.6442 61.072 13.6479Z" fill="#FBF8FC"/>
<path d="M73.9762 36.9746C74.9277 37.1222 75.8316 37.3716 76.7309 37.356C78.3912 37.3271 79.2223 36.2534 79.1453 34.3206C78.1999 35.3435 77.1204 35.9009 75.7665 35.8409C74.4492 35.7825 73.3384 35.3015 72.492 34.2949C71.0775 32.6129 71.0788 29.6589 72.4745 28.0244C73.3288 27.0239 74.4119 26.5224 75.7389 26.4639C77.0401 26.4065 78.1133 26.861 79.1005 27.8644C79.1005 27.3734 79.1005 27.0339 79.1005 26.6593C80.0568 26.6593 80.968 26.6593 81.9283 26.6593C81.9423 26.8145 81.9698 26.9789 81.9699 27.1433C81.9722 29.6365 81.9778 32.1298 81.9641 34.623C81.9615 35.1004 81.9098 35.5828 81.8283 36.0538C81.5274 37.7936 80.5344 38.9448 78.8131 39.3858C76.4604 39.9886 74.188 39.7173 71.9374 38.6509C72.2657 37.9259 72.5768 37.2391 72.9121 36.4986C73.2706 36.6605 73.5986 36.8087 73.9762 36.9746ZM74.3324 31.0422C74.3548 32.4895 75.2393 33.4206 76.6188 33.4491C78.0346 33.4785 79.0907 32.5774 79.1713 31.2712C79.246 30.0601 78.3095 28.9863 77.0653 28.8566C75.5846 28.7023 74.5444 29.4915 74.3324 31.0422Z" fill="#512A6A"/>
<path d="M48.9059 25.9739C48.6375 26.0262 48.3632 26.0134 48.2277 26.1441C47.9521 26.41 47.6589 26.723 47.5436 27.0728C47.4 27.5084 47.6535 27.9037 48.0896 28.0662C48.8637 28.3546 49.6572 28.5906 50.4406 28.8543C51.0403 29.0561 51.6492 29.2375 52.2326 29.4795C53.6646 30.0735 54.465 31.1414 54.464 32.7135C54.4629 34.3324 53.7883 35.5898 52.2953 36.317C49.9304 37.4688 45.96 36.6948 44.0994 34.7015C44.65 34.0462 45.2057 33.3848 45.6593 32.8449C46.734 33.3147 47.6966 33.8381 48.7239 34.145C49.3152 34.3217 50.0203 34.2079 50.6576 34.1134C51.2006 34.0329 51.5395 33.6137 51.5651 33.0522C51.5886 32.5342 51.2702 32.1836 50.8022 32.0185C50.0015 31.7362 49.1874 31.4916 48.3779 31.2345C48.0245 31.1222 47.6616 31.0367 47.3146 30.9076C45.18 30.1135 44.48 29.0414 44.6377 26.8305C44.7514 25.2363 46.0477 23.8704 47.8885 23.5225C50.0592 23.1123 52.053 23.5949 53.8498 24.8838C53.921 24.9349 54.0126 24.9576 54.1141 25.002C53.5581 25.8051 53.0774 26.4995 52.5704 27.2318C51.4351 26.5602 50.3248 25.8891 48.9059 25.9739Z" fill="#512B6B"/>
<path d="M89.9182 36.6439C89.8356 36.3427 89.8059 36.0637 89.7883 35.8986C89.0382 36.1927 88.2722 36.6161 87.4533 36.7887C85.7108 37.1561 84.0488 36.3061 83.5274 34.9152C82.7055 32.7227 84.087 30.726 86.6048 30.5833C87.6377 30.5247 88.6826 30.6778 89.7375 30.7354C89.9004 29.8478 89.2048 29.0047 88.0551 29.0184C87.0202 29.0306 85.9874 29.2265 84.8489 29.353C84.6622 28.7899 84.4272 28.0811 84.1747 27.3197C86.1584 26.4985 88.1528 26.1846 90.1989 26.8578C91.7342 27.3629 92.4493 28.593 92.5109 30.1147C92.5982 32.2704 92.533 34.4323 92.533 36.6661C91.6646 36.6661 90.8178 36.6661 89.9182 36.6439ZM89.814 33.4388C89.7533 33.1414 89.7727 32.6398 89.619 32.5797C88.6473 32.1995 87.6346 32.0603 86.6617 32.608C86.2133 32.8604 86.0078 33.314 86.1573 33.7761C86.2704 34.1259 86.54 34.5385 86.8529 34.6897C87.8991 35.1955 89.5433 34.6134 89.814 33.4388Z" fill="#512B6A"/>
<path d="M129.898 34.5659C130.918 34.6174 131.685 34.1839 132.415 33.5471C132.95 34.0174 133.469 34.4741 134.206 35.123C133.864 35.3692 133.538 35.5746 133.245 35.8193C130.98 37.7107 125.834 37.3348 124.829 32.9575C124.172 30.0965 125.761 27.283 128.461 26.5972C131.443 25.8401 134.164 27.7362 134.471 30.8089C134.531 31.4075 134.48 32.0171 134.48 32.666C133.317 32.666 132.181 32.666 131.046 32.666C129.931 32.666 128.816 32.666 127.702 32.666C127.658 33.6829 128.452 34.381 129.898 34.5659ZM131.507 29.969C131.006 29.0577 130.239 28.6195 129.391 28.7604C128.396 28.9257 127.768 29.6258 127.573 30.8021C128.952 30.8021 130.328 30.8021 131.75 30.8021C131.676 30.5158 131.617 30.2871 131.507 29.969Z" fill="#512B6B"/>
<path d="M118.177 27.5405C118.167 27.4431 118.156 27.3457 118.212 27.1932C118.901 26.4559 120.463 26.6122 120.98 27.4083C121.007 27.6633 121.035 27.9183 121.08 28.3375C121.799 27.0822 122.721 26.3591 124.166 26.4659C124.166 27.4361 124.166 28.4025 124.166 29.377C124.14 29.3932 124.104 29.4348 124.068 29.4355C121.844 29.475 121.061 30.9379 121.031 32.7524C121.012 33.8867 121.026 35.0214 121.022 36.156C121.021 36.3045 121.003 36.4529 120.987 36.7071C120.035 36.665 119.114 36.6242 118.229 36.4945C118.285 36.3226 118.324 36.2397 118.324 36.1568C118.328 33.4411 118.33 30.7254 118.322 28.0097C118.321 27.8531 118.227 27.6969 118.177 27.5405Z" fill="#522B6C"/>
<path d="M59.0441 24.2696C59.044 24.7207 59.044 25.1088 59.044 25.5401C58.0311 25.5401 57.0635 25.5401 56.0461 25.5401C56.0461 24.7407 56.0461 23.9286 56.0461 23.0609C57.0117 23.0609 57.9751 23.0609 59.0443 23.0609C59.0443 23.4426 59.0443 23.8247 59.0441 24.2696Z" fill="#58346F"/>
<path d="M66.9441 29.7332C67.4727 29.6399 67.5644 29.9187 67.5387 30.4026C67.4639 31.8103 67.4295 33.2203 67.3991 34.6299C67.3922 34.9509 67.4779 35.2728 67.499 35.5957C67.5325 36.1076 67.7901 36.4057 68.2996 36.4661C69.99 36.6667 69.9923 36.6583 69.9991 34.9654C70.0056 33.3533 70.0238 31.7412 70.0704 30.087C70.104 32.2291 70.104 34.4134 70.104 36.6329C69.1573 36.6329 68.226 36.6329 67.239 36.6329C67.239 34.8176 67.2587 33.029 67.226 31.2412C67.2171 30.7534 67.0504 30.2684 66.9441 29.7332Z" fill="#4A2E5D"/>
<path d="M63.8739 30.2777C63.6994 29.5255 64.4761 28.7053 65.235 28.824C65.5727 28.8769 65.9161 28.8934 66.2884 28.8924C66.32 28.8583 66.32 28.8584 66.32 28.8584C66.4495 29.01 66.579 29.1616 66.7055 29.3628C65.3757 28.7289 64.3885 29.0232 63.8739 30.2777Z" fill="#4A2E5D"/>
<path d="M63.8048 30.6634C63.744 30.6717 63.6943 30.6483 63.6445 30.6248C63.6773 30.6063 63.7101 30.5878 63.7732 30.5673C63.8076 30.5874 63.8117 30.6094 63.8048 30.6634Z" fill="#4A2E5D"/>
<path d="M66.821 29.5646C66.8539 29.5562 66.8946 29.5853 66.9413 29.653C66.9078 29.6618 66.8684 29.6319 66.821 29.5646Z" fill="#4A2E5D"/>
<path d="M63.7938 30.6952C63.7923 32.6441 63.7908 34.593 63.7033 36.5332C63.0971 36.506 62.577 36.4806 62.0566 36.471C61.5829 36.4623 61.2225 36.1725 61.1752 35.7844C61.0685 34.9081 61.063 34.0153 61.0735 33.1299C61.0952 31.3051 61.1523 29.4807 61.1992 27.6563C61.2135 27.0984 61.565 26.7815 62.1471 26.7563C62.6617 26.734 63.1754 26.6894 63.6895 26.6546C63.747 27.0396 63.8044 27.4246 63.8687 27.8553C63.9301 27.8036 63.9963 27.7617 64.0448 27.7048C65.1444 26.4152 66.5602 26.1608 68.0674 26.6815C69.5494 27.1936 70.0364 28.4703 70.0772 30.0326C70.0238 31.7413 70.0056 33.3533 69.9991 34.9654C69.9923 36.6584 69.99 36.6668 68.2996 36.4662C67.7901 36.4058 67.5325 36.1077 67.499 35.5958C67.4779 35.2729 67.3922 34.951 67.3991 34.63C67.4295 33.2204 67.4639 31.8103 67.5387 30.4027C67.5644 29.9188 67.4727 29.6399 66.932 29.6844C66.932 29.6844 66.9468 29.673 66.9411 29.6437C66.8946 29.5853 66.8539 29.5562 66.8132 29.5272C66.7713 29.5237 66.7392 29.5042 66.7126 29.391C66.579 29.1616 66.4496 29.0101 66.3131 28.8404C66.2948 28.8159 66.2837 28.8094 66.2725 28.8029C66.2883 28.8214 66.3042 28.8399 66.2885 28.8924C65.9161 28.8935 65.5727 28.877 65.2351 28.8241C64.4762 28.7054 63.6995 29.5256 63.8416 30.3096C63.8382 30.3673 63.8349 30.425 63.7872 30.5261C63.71 30.5879 63.6773 30.6063 63.6445 30.6248C63.6942 30.6483 63.744 30.6718 63.7938 30.6952Z" fill="#51296B"/>
<path d="M63.6292 26.6423C63.1753 26.6894 62.6617 26.734 62.147 26.7563C61.565 26.7816 61.2135 27.0984 61.1991 27.6563C61.1522 29.4807 61.0951 31.3051 61.0735 33.1299C61.063 34.0153 61.0684 34.9081 61.1752 35.7844C61.2225 36.1725 61.5828 36.4624 62.0565 36.4711C62.5769 36.4806 63.097 36.506 63.6558 36.5634C62.8026 36.6024 61.9109 36.6024 60.9753 36.6024C60.9753 33.3228 60.9753 30.0162 60.9753 26.6301C61.8384 26.6301 62.7037 26.6301 63.6292 26.6423Z" fill="#472D5D"/>
<path d="M56.0874 28.5256C56.1773 28.6605 56.3252 28.8554 56.328 29.0523C56.3481 30.4666 56.3386 31.8813 56.3388 33.2958C56.339 34.1767 56.3382 35.0577 56.3411 35.9387C56.3427 36.4376 56.6552 36.6375 57.1273 36.3668C57.5161 36.1438 57.7723 36.1882 58.0315 36.5796C57.4093 36.6239 56.768 36.6239 56.0781 36.6239C56.0781 33.9119 56.0781 31.2492 56.0874 28.5256Z" fill="#4A2E5D"/>
<path d="M58.9266 36.0671C58.7336 35.8051 58.3539 35.5259 58.8628 35.1466C58.9234 35.4348 58.9312 35.7314 58.9266 36.0671Z" fill="#4A2E5D"/>
<path d="M58.6274 36.6032C58.6526 36.5124 58.7337 36.4288 58.8645 36.3448C58.8373 36.4331 58.7603 36.5218 58.6274 36.6032Z" fill="#4A2E5D"/>
<path d="M58.9142 36.1062C58.922 36.1595 58.9298 36.2128 58.8761 36.3057C58.7336 36.4289 58.6526 36.5124 58.5716 36.5959C58.4323 36.6157 58.2931 36.6355 58.0831 36.5953C57.7722 36.1882 57.516 36.1438 57.1272 36.3668C56.6551 36.6376 56.3427 36.4376 56.341 35.9387C56.3381 35.0578 56.339 34.1768 56.3388 33.2958C56.3385 31.8813 56.348 30.4666 56.3279 29.0524C56.3251 28.8554 56.1772 28.6605 56.0965 28.4647C56.0901 28.4061 56.0836 28.3476 56.1309 28.2373C56.2454 27.983 56.2804 27.7676 56.3732 27.5809C56.4919 27.342 56.717 26.9127 56.7931 26.9339C57.4935 27.1297 58.3403 26.7348 58.9131 27.4311C58.9218 29.9607 58.9306 32.4903 58.8746 35.0876C58.3538 35.526 58.7336 35.8052 58.9142 36.1062Z" fill="#522B6C"/>
<path d="M58.9247 27.3791C58.3404 26.7347 57.4936 27.1296 56.7933 26.9339C56.7171 26.9126 56.492 27.342 56.3733 27.5808C56.2805 27.7675 56.2455 27.9829 56.1408 28.1938C56.0967 27.7068 56.0967 27.2115 56.0967 26.6705C57.0365 26.6705 57.9744 26.6705 58.9361 26.6705C58.9361 26.8974 58.9361 27.1123 58.9247 27.3791Z" fill="#4A2E5D"/>
<path d="M118.163 27.6011C118.227 27.6969 118.321 27.8532 118.322 28.0097C118.33 30.7254 118.328 33.4411 118.324 36.1568C118.324 36.2398 118.285 36.3227 118.222 36.4418C118.169 33.5392 118.159 30.6004 118.163 27.6011Z" fill="#492A5C"/>
<path d="M120.995 27.3509C120.463 26.6123 118.901 26.456 118.228 27.1462C118.178 26.9903 118.178 26.8263 118.178 26.6509C119.115 26.6509 120.006 26.6509 120.967 26.6509C120.982 26.8778 120.996 27.0856 120.995 27.3509Z" fill="#492A5C"/>
<path d="M97.055 39.3606C97.054 39.3829 97.0529 39.4052 97.0512 39.4611C96.9924 39.4987 96.9342 39.5029 96.834 39.4948C96.8526 39.4423 96.9132 39.4021 97.013 39.3602C97.0522 39.3584 97.055 39.3606 97.055 39.3606Z" fill="#4B2D61"/>
<path d="M113.06 29.5058C111.974 28.7841 110.863 28.6926 109.681 29.4454C109.371 28.9294 110.06 28.7791 110.13 28.7747C111.077 28.7153 112.047 28.6297 112.903 29.1859C112.981 29.2366 113.01 29.3642 113.06 29.5058Z" fill="#4B2D61"/>
<path d="M106.08 30.2885C106.92 27.7136 108.854 26.4167 111.709 26.4741C113.96 26.5193 115.924 28.0335 116.554 30.2087C117.648 33.992 114.315 37.531 110.332 36.815C107.145 36.2422 105.36 33.5332 106.08 30.2885ZM110.239 34.3008C110.325 34.3185 110.411 34.3363 110.539 34.3395C110.539 34.3395 110.578 34.3627 110.633 34.4362C110.752 34.4564 110.87 34.4765 111.095 34.5009C111.271 34.4966 111.448 34.4922 111.672 34.5562C111.829 34.4819 111.987 34.4075 112.203 34.2659C112.89 34.0513 113.376 33.5944 113.648 32.9473C114.171 31.7025 113.913 30.5723 113.061 29.456C113.01 29.3642 112.981 29.2366 112.903 29.1859C112.047 28.6296 111.077 28.7152 110.13 28.7746C110.06 28.7791 109.371 28.9294 109.62 29.4685C109.62 29.4685 109.606 29.4849 109.522 29.4513C109.486 29.524 109.451 29.5967 109.406 29.6547C109.406 29.6547 109.421 29.663 109.321 29.6539C108.73 29.8063 108.658 30.3202 108.572 30.7921C108.541 30.964 108.666 31.1643 108.739 31.45C108.733 31.5497 108.727 31.6493 108.656 31.8186C108.621 32.0094 108.576 32.199 108.552 32.3911C108.497 32.8243 108.947 33.4699 109.411 33.6537C109.498 33.7497 109.586 33.8457 109.679 34.0427C109.851 34.1058 110.024 34.1689 110.188 34.2362C110.188 34.2362 110.189 34.226 110.239 34.3008Z" fill="#512A6B"/>
<path d="M108.721 31.749C108.727 31.6493 108.733 31.5497 108.741 31.3512C108.968 30.7226 109.195 30.1928 109.421 29.663C109.421 29.663 109.406 29.6546 109.443 29.6496C109.522 29.5914 109.564 29.5382 109.606 29.4849C109.606 29.4849 109.62 29.4685 109.671 29.449C110.863 28.6925 111.974 28.7841 113.059 29.5555C113.913 30.5723 114.171 31.7024 113.648 32.9473C113.376 33.5944 112.89 34.0513 112.126 34.3032C111.908 34.3896 111.766 34.4388 111.624 34.4879C111.448 34.4922 111.271 34.4965 111.02 34.4568C110.823 34.396 110.7 34.3794 110.578 34.3627C110.578 34.3627 110.539 34.3395 110.493 34.3095C110.361 34.2617 110.275 34.2438 110.189 34.2259C110.189 34.2259 110.188 34.2362 110.172 34.1939C109.994 34.0817 109.834 34.0117 109.673 33.9417C109.586 33.8457 109.498 33.7497 109.387 33.5729C109.15 32.9111 108.935 32.33 108.721 31.749Z" fill="#FCFAFC"/>
<path d="M109.371 29.6585C109.195 30.1928 108.968 30.7226 108.731 31.3021C108.666 31.1644 108.541 30.964 108.572 30.7922C108.658 30.3202 108.73 29.8063 109.371 29.6585Z" fill="#4B2D61"/>
<path d="M108.689 31.7838C108.936 32.33 109.15 32.9111 109.37 33.5377C108.947 33.4699 108.497 32.8243 108.552 32.3911C108.577 32.1989 108.621 32.0093 108.689 31.7838Z" fill="#4B2D61"/>
<path d="M109.676 33.9922C109.834 34.0117 109.995 34.0817 110.176 34.1918C110.025 34.1688 109.852 34.1058 109.676 33.9922Z" fill="#4B2D61"/>
<path d="M111.648 34.5221C111.766 34.4387 111.908 34.3896 112.097 34.3368C111.987 34.4075 111.83 34.4819 111.648 34.5221Z" fill="#4B2D61"/>
<path d="M110.606 34.3995C110.7 34.3794 110.823 34.3961 110.967 34.4548C110.87 34.4766 110.752 34.4564 110.606 34.3995Z" fill="#4B2D61"/>
<path d="M109.564 29.4681C109.564 29.5382 109.521 29.5914 109.447 29.6571C109.45 29.5967 109.486 29.524 109.564 29.4681Z" fill="#4B2D61"/>
<path d="M110.214 34.2633C110.275 34.2438 110.361 34.2617 110.472 34.3168C110.411 34.3362 110.325 34.3185 110.214 34.2633Z" fill="#4B2D61"/>
<path d="M98.7734 34.4061C99.5623 34.5026 100.327 34.4727 101.058 33.9637C101.147 34.1691 101.19 34.3881 101.257 34.7251C100.445 34.3132 99.5614 35.2151 98.7734 34.4061Z" fill="#502D66"/>
<path d="M97.9714 28.3332C98.0631 28.2224 98.1548 28.1119 98.2827 27.9578C98.5157 28.353 98.4224 28.4444 98.0115 28.3364C97.9721 28.3337 97.9714 28.3335 97.9714 28.3332Z" fill="#502D66"/>
<path d="M96.2645 36.9398C96.1149 36.8776 95.9655 36.7591 95.7775 36.6214C95.7391 36.1277 95.7078 35.65 95.755 35.1803C95.7737 34.9937 95.9665 34.8246 96.08 34.6475C96.1851 34.8164 96.3796 34.9855 96.3792 35.1541C96.378 35.7307 96.3083 36.3071 96.2645 36.9398Z" fill="#50286A"/>
<path d="M97.2723 27.097C97.2219 27.0011 97.1853 26.861 97.1628 26.6909C97.2133 26.7915 97.2497 26.9222 97.2723 27.097Z" fill="#512A6C"/>
<path d="M97.2619 39.0943C97.2054 39.2558 97.1488 39.4173 97.0722 39.5031C97.053 39.4052 97.0541 39.3829 97.0725 39.3523C97.0767 39.3479 97.0634 39.3518 97.012 39.3588C96.9133 39.402 96.8527 39.4422 96.792 39.4824C96.4791 39.4899 96.1662 39.4974 95.7962 39.4426C95.768 39.2584 95.7582 39.0675 95.8325 39.0255C96.2987 38.7625 96.2825 38.3385 96.2663 37.8998C96.2551 37.599 96.2641 37.2973 96.2643 36.9397C96.3081 36.307 96.3779 35.7306 96.3791 35.154C96.3795 34.9854 96.185 34.8163 96.0799 34.6475C95.9663 34.8245 95.7736 34.9936 95.7549 35.1802C95.7077 35.65 95.739 36.1276 95.6981 36.6221C95.2229 37.004 95.124 36.7719 95.0772 36.3412C94.9795 35.4409 95.2291 34.6071 95.4497 33.751C95.5453 33.3796 95.5411 33.093 95.9632 32.9105C96.157 32.8267 96.3045 32.4609 96.3323 32.2076C96.3786 31.7845 96.2453 31.3382 96.3135 30.9222C96.369 30.5839 96.3952 30.3504 96.0123 30.2931C95.3795 30.1984 95.4679 29.742 95.4767 29.3093C95.487 28.8047 95.9073 28.8129 96.2213 28.7482C96.5143 28.6879 96.84 28.78 97.1301 28.7131C97.4243 28.6452 97.6925 28.4648 98.0116 28.3363C98.4225 28.4444 98.5157 28.353 98.2827 27.9577C98.1548 28.1119 98.0631 28.2224 97.923 28.3277C97.7292 28.2847 97.5847 28.2181 97.4385 28.2142C96.8586 28.1989 96.2774 28.2186 95.6987 28.1869C95.5822 28.1806 95.4749 28.0064 95.3634 27.9097C95.473 27.8328 95.5763 27.7035 95.6935 27.6894C96.0032 27.6521 96.3189 27.6641 96.6322 27.6582C96.6847 27.6572 96.7396 27.6567 96.7896 27.6699C96.9505 27.7125 97.1097 27.7617 97.2695 27.8083C97.3541 27.7873 97.4759 27.7951 97.5178 27.741C98.9699 25.8686 102.178 26.1267 103.755 27.9844C105.581 30.1352 105.294 34.1974 103.168 35.8925C101.573 37.1647 99.0243 37.236 97.5985 35.7352C97.5295 35.6626 97.4029 35.6448 97.2322 35.6544C97.0842 35.8046 96.942 35.9005 96.94 35.9993C96.9206 36.9336 96.9147 37.8686 96.9374 38.8026C96.9399 38.9024 97.1488 38.9972 97.2619 39.0943ZM97.3301 32.7364C97.4047 33.6915 97.8931 34.2415 98.762 34.3675C98.762 34.3675 98.768 34.3563 98.7788 34.4558C99.5614 35.2151 100.445 34.3131 101.256 34.7251C101.19 34.3881 101.147 34.1691 101.114 33.9656C101.114 33.9656 101.097 33.9568 101.188 33.9596C101.226 33.8967 101.263 33.8338 101.317 33.7663C101.317 33.7663 101.32 33.7499 101.407 33.7988C102.358 33.582 102.374 33.5814 102.341 32.6645C102.313 31.8972 102.244 31.1312 102.189 30.365C102.146 29.7629 101.757 29.4088 101.061 29.3162C101.061 29.3162 101.047 29.3167 101.09 29.2154C101.11 28.8124 100.989 28.5934 100.517 28.6797C100.272 28.7246 100.005 28.6583 99.7492 28.6357C98.1425 28.4939 97.7089 28.8506 97.4663 30.4127C97.4441 30.4716 97.4219 30.5306 97.2991 30.6C96.5895 31.3029 96.616 32.1014 97.3555 32.644C97.3555 32.644 97.3539 32.6286 97.3301 32.7364ZM99.2573 35.3392C99.2632 35.4826 99.269 35.6259 99.2749 35.7693C99.3488 35.749 99.4227 35.7287 99.4966 35.7084C99.448 35.5775 99.3994 35.4467 99.2573 35.3392ZM101.751 35.2063C101.726 35.3393 101.702 35.4724 101.678 35.6054C101.77 35.6021 101.861 35.5987 101.953 35.5954C101.916 35.4575 101.878 35.3196 101.751 35.2063Z" fill="#512A6C"/>
<path d="M97.2794 27.7532C97.1096 27.7617 96.9504 27.7125 96.7895 27.6699C96.7395 27.6567 96.6847 27.6572 96.6322 27.6582C96.3188 27.6641 96.0031 27.6521 95.6935 27.6894C95.5763 27.7035 95.473 27.8328 95.3633 27.9097C95.4749 28.0065 95.5822 28.1806 95.6987 28.187C96.2773 28.2186 96.8586 28.1989 97.4384 28.2143C97.5846 28.2181 97.7292 28.2847 97.9229 28.328C97.9714 28.3334 97.972 28.3336 97.972 28.3336C97.6924 28.4648 97.4242 28.6452 97.13 28.7131C96.8399 28.78 96.5142 28.6879 96.2212 28.7482C95.9073 28.8129 95.487 28.8047 95.4767 29.3093C95.4679 29.742 95.3795 30.1984 96.0123 30.2931C96.3952 30.3504 96.369 30.5839 96.3135 30.9222C96.2453 31.3382 96.3785 31.7845 96.3322 32.2076C96.3045 32.4609 96.157 32.8267 95.9631 32.9105C95.541 33.0931 95.5453 33.3796 95.4496 33.751C95.2291 34.6071 94.9794 35.4409 95.0772 36.3412C95.124 36.7719 95.2229 37.004 95.7366 36.6414C95.9653 36.7591 96.1147 36.8775 96.2641 36.996C96.2641 37.2973 96.2551 37.599 96.2662 37.8999C96.2824 38.3385 96.2987 38.7625 95.8325 39.0256C95.7581 39.0675 95.768 39.2584 95.7386 39.4306C95.5934 39.5245 95.4485 39.5682 95.2322 39.5781C94.624 39.2713 94.543 38.8105 94.5481 38.2545C94.5812 34.6518 94.59 31.0489 94.5989 27.446C94.599 27.3923 94.4991 27.3384 94.4459 27.2845C94.4392 27.2252 94.4326 27.1659 94.4734 27.0439C94.6639 26.8718 94.8071 26.7624 94.9503 26.6531C95.653 26.6455 96.3556 26.638 97.1034 26.6757C97.1852 26.861 97.2218 27.0011 97.2584 27.1413C97.2687 27.3268 97.2791 27.5124 97.2794 27.7532ZM95.5999 31.9488C96.1337 31.4103 95.6075 31.3193 95.1517 31.0084C95.1517 31.4248 95.1422 31.7009 95.1683 31.9735C95.1706 31.9977 95.405 31.9997 95.5999 31.9488ZM95.217 39.1238C95.2323 39.0524 95.2475 38.981 95.2628 38.9096C95.2249 38.9102 95.1544 38.9077 95.154 38.912C95.1468 38.9861 95.1481 39.061 95.217 39.1238Z" fill="#4F2867"/>
<path d="M94.4372 27.3453C94.4992 27.3383 94.5992 27.3923 94.599 27.446C94.5901 31.0488 94.5814 34.6518 94.5483 38.2545C94.5431 38.8105 94.6241 39.2713 95.1855 39.5791C94.9713 39.6138 94.7324 39.6138 94.4285 39.6138C94.4285 35.5504 94.4285 31.4783 94.4372 27.3453Z" fill="#462D54"/>
<path d="M94.8979 26.6417C94.8073 26.7625 94.6641 26.8718 94.4823 26.9997C94.3423 26.6456 94.5418 26.5843 94.8979 26.6417Z" fill="#462D54"/>
<path d="M97.3997 30.5895C97.4219 30.5306 97.4441 30.4716 97.4999 30.352C98.2363 28.8848 99.6138 28.4716 101.047 29.3167C101.047 29.3167 101.061 29.3162 101.087 29.3574C102.349 30.6398 102.424 32.2222 101.32 33.7499C101.32 33.7499 101.317 33.7663 101.276 33.7836C101.19 33.8529 101.144 33.9049 101.097 33.9568C101.097 33.9568 101.114 33.9656 101.064 33.9715C100.327 34.4727 99.5623 34.5026 98.768 34.3563C98.768 34.3563 98.762 34.3675 98.7543 34.3213C98.2823 33.7263 97.8181 33.1774 97.354 32.6286C97.354 32.6286 97.3555 32.644 97.3518 32.58C97.3653 31.8738 97.3825 31.2317 97.3997 30.5895Z" fill="#FCFAFC"/>
<path d="M101.363 33.7744C102.424 32.2222 102.349 30.6398 101.089 29.3641C101.757 29.4088 102.146 29.7629 102.189 30.365C102.244 31.1313 102.313 31.8972 102.341 32.6645C102.374 33.5814 102.358 33.582 101.363 33.7744Z" fill="#502D66"/>
<path d="M101.069 29.266C99.6137 28.4715 98.2363 28.8847 97.4978 30.32C97.7089 28.8506 98.1425 28.4939 99.7492 28.6357C100.005 28.6583 100.272 28.7245 100.517 28.6797C100.989 28.5933 101.11 28.8124 101.069 29.266Z" fill="#502D66"/>
<path d="M97.3493 30.5948C97.3825 31.2317 97.3653 31.8738 97.3573 32.5745C96.616 32.1014 96.5894 31.3029 97.3493 30.5948Z" fill="#502D66"/>
<path d="M97.342 32.6825C97.8182 33.1774 98.2823 33.7263 98.7599 34.3185C97.8932 34.2415 97.4047 33.6915 97.342 32.6825Z" fill="#502D66"/>
<path d="M99.304 35.3275C99.3994 35.4467 99.448 35.5775 99.4966 35.7084C99.4227 35.7287 99.3488 35.749 99.2749 35.7693C99.269 35.626 99.2632 35.4826 99.304 35.3275Z" fill="#502D66"/>
<path d="M101.796 35.194C101.878 35.3196 101.916 35.4575 101.953 35.5954C101.862 35.5987 101.77 35.6021 101.678 35.6054C101.702 35.4724 101.727 35.3393 101.796 35.194Z" fill="#502D66"/>
<path d="M101.143 33.9582C101.144 33.9049 101.19 33.8529 101.268 33.7859C101.263 33.8337 101.226 33.8967 101.143 33.9582Z" fill="#502D66"/>
<path d="M95.5659 31.9804C95.4051 31.9997 95.1707 31.9977 95.1684 31.9735C95.1423 31.7009 95.1519 31.4248 95.1519 31.0084C95.6076 31.3193 96.1338 31.4103 95.5659 31.9804Z" fill="#512A6C"/>
<path d="M95.1825 39.1298C95.1483 39.061 95.1469 38.9861 95.1542 38.912C95.1546 38.9077 95.2251 38.9102 95.2629 38.9096C95.2477 38.981 95.2324 39.0524 95.1825 39.1298Z" fill="#512A6C"/>
</svg>
