<svg width="135" height="41" viewBox="0 0 135 41" fill="none" xmlns="http://www.w3.org/2000/svg">
<path d="M33.513 0.651733H12.073L0.62207 20.1426L12.073 39.8772L33.0257 39.3899L22.793 20.1426L33.513 0.651733Z" fill="#093C71"/>
<path d="M35.691 4.06262L44.9345 20.3863L35.691 36.7099L26.4475 20.3863L35.691 4.06262Z" fill="#48BCEC"/>
<path d="M58.4517 12.876V18.6453H68.5558V22.6994H58.4517V30.6517H53.3997V8.82191H69.8968V12.876H58.4517ZM73.3169 8.82191H78.369V30.6517H73.3169V8.82191ZM103.415 30.6517L103.384 17.5538L96.9594 28.344H94.6829L88.2899 17.8345V30.6517H83.5497V8.82191H87.7285L95.8991 22.3876L103.945 8.82191H108.093L108.155 30.6517H103.415ZM123.781 31.026C121.557 31.026 119.54 30.5478 117.731 29.5914C115.943 28.6143 114.53 27.2733 113.49 25.5685C112.471 23.8429 111.962 21.899 111.962 19.7368C111.962 17.5746 112.471 15.6411 113.49 13.9363C114.53 12.2107 115.943 10.8698 117.731 9.9134C119.54 8.93626 121.567 8.44769 123.813 8.44769C125.704 8.44769 127.409 8.78033 128.927 9.44562C130.465 10.1109 131.754 11.0673 132.794 12.3147L129.551 15.3085C128.075 13.6037 126.245 12.7513 124.062 12.7513C122.711 12.7513 121.505 13.0527 120.445 13.6557C119.384 14.2378 118.553 15.059 117.95 16.1193C117.368 17.1796 117.076 18.3855 117.076 19.7368C117.076 21.0882 117.368 22.294 117.95 23.3543C118.553 24.4146 119.384 25.2463 120.445 25.8492C121.505 26.4313 122.711 26.7224 124.062 26.7224C126.245 26.7224 128.075 25.8596 129.551 24.134L132.794 27.1278C131.754 28.396 130.465 29.3627 128.927 30.028C127.388 30.6933 125.673 31.026 123.781 31.026Z" fill="#093C71"/>
<path d="M55.8535 38.8117L55.0641 37.6715H55.0173H54.1928V38.8117H53.2456V34.7186H55.0173C55.3798 34.7186 55.6936 34.779 55.9587 34.8999C56.2277 35.0207 56.4343 35.1922 56.5785 35.4144C56.7228 35.6366 56.7949 35.8998 56.7949 36.2038C56.7949 36.5079 56.7208 36.771 56.5727 36.9932C56.4284 37.2115 56.2218 37.3791 55.9529 37.4961L56.8709 38.8117H55.8535ZM55.8359 36.2038C55.8359 35.9738 55.7619 35.7984 55.6137 35.6776C55.4656 35.5528 55.2492 35.4905 54.9647 35.4905H54.1928V36.9172H54.9647C55.2492 36.9172 55.4656 36.8548 55.6137 36.7301C55.7619 36.6053 55.8359 36.4299 55.8359 36.2038ZM60.5626 37.2505C60.5626 37.2622 60.5567 37.344 60.545 37.4961H58.1652C58.2081 37.691 58.3094 37.845 58.4692 37.958C58.6291 38.0711 58.8279 38.1276 59.0657 38.1276C59.2294 38.1276 59.3736 38.1042 59.4984 38.0574C59.627 38.0067 59.7459 37.9288 59.8551 37.8235L60.3404 38.3498C60.0441 38.6889 59.6114 38.8585 59.0423 38.8585C58.6875 38.8585 58.3737 38.7903 58.1009 38.6538C57.828 38.5135 57.6175 38.3205 57.4694 38.075C57.3212 37.8294 57.2472 37.5506 57.2472 37.2388C57.2472 36.9308 57.3193 36.6541 57.4635 36.4085C57.6116 36.159 57.8124 35.966 58.0658 35.8296C58.3231 35.6893 58.6096 35.6191 58.9253 35.6191C59.2333 35.6191 59.512 35.6854 59.7615 35.8179C60.011 35.9504 60.2059 36.1415 60.3462 36.3909C60.4905 36.6365 60.5626 36.923 60.5626 37.2505ZM58.9312 36.3091C58.7246 36.3091 58.5511 36.3675 58.4108 36.4845C58.2704 36.6014 58.1847 36.7613 58.1535 36.964H59.703C59.6718 36.7652 59.5861 36.6073 59.4457 36.4903C59.3054 36.3695 59.1339 36.3091 58.9312 36.3091ZM62.3531 35.6191C62.8403 35.6191 63.2146 35.736 63.4757 35.9699C63.7369 36.1999 63.8675 36.5488 63.8675 37.0166V38.8117H63.0138V38.4199C62.8423 38.7123 62.5226 38.8585 62.0549 38.8585C61.8132 38.8585 61.6027 38.8176 61.4234 38.7357C61.2479 38.6538 61.1134 38.5408 61.0199 38.3966C60.9263 38.2523 60.8796 38.0886 60.8796 37.9054C60.8796 37.613 60.9887 37.383 61.207 37.2154C61.4292 37.0478 61.7703 36.964 62.2303 36.964H62.9553C62.9553 36.7652 62.8949 36.6131 62.7741 36.5079C62.6532 36.3987 62.472 36.3442 62.2303 36.3442C62.0627 36.3442 61.897 36.3714 61.7333 36.426C61.5734 36.4767 61.437 36.5469 61.324 36.6365L60.9965 35.9992C61.168 35.8783 61.3727 35.7848 61.6105 35.7185C61.8522 35.6522 62.0997 35.6191 62.3531 35.6191ZM62.2829 38.2445C62.4388 38.2445 62.5772 38.2094 62.6981 38.1393C62.8189 38.0652 62.9047 37.958 62.9553 37.8177V37.4961H62.3297C61.9555 37.4961 61.7683 37.6189 61.7683 37.8644C61.7683 37.9814 61.8132 38.075 61.9028 38.1451C61.9964 38.2114 62.1231 38.2445 62.2829 38.2445ZM64.6931 34.473H65.6053V38.8117H64.6931V34.473ZM71.1776 36.6833C71.4115 36.7574 71.5947 36.8821 71.7273 37.0575C71.8598 37.229 71.9261 37.4415 71.9261 37.6949C71.9261 38.0535 71.7857 38.3303 71.5051 38.5252C71.2283 38.7162 70.8229 38.8117 70.2888 38.8117H68.1721V34.7186H70.1719C70.6708 34.7186 71.0529 34.8141 71.3179 35.0051C71.5869 35.1961 71.7214 35.4554 71.7214 35.7828C71.7214 35.9816 71.6727 36.159 71.5752 36.3149C71.4817 36.4708 71.3491 36.5936 71.1776 36.6833ZM69.1135 35.432V36.3968H70.0549C70.2888 36.3968 70.4662 36.3559 70.587 36.274C70.7079 36.1921 70.7683 36.0713 70.7683 35.9115C70.7683 35.7516 70.7079 35.6327 70.587 35.5548C70.4662 35.4729 70.2888 35.432 70.0549 35.432H69.1135ZM70.2187 38.0983C70.4681 38.0983 70.6553 38.0574 70.78 37.9755C70.9086 37.8937 70.973 37.767 70.973 37.5955C70.973 37.2563 70.7215 37.0868 70.2187 37.0868H69.1135V38.0983H70.2187ZM75.6604 37.2505C75.6604 37.2622 75.6546 37.344 75.6429 37.4961H73.263C73.3059 37.691 73.4073 37.845 73.5671 37.958C73.7269 38.0711 73.9257 38.1276 74.1635 38.1276C74.3272 38.1276 74.4715 38.1042 74.5962 38.0574C74.7248 38.0067 74.8437 37.9288 74.9529 37.8235L75.4382 38.3498C75.142 38.6889 74.7093 38.8585 74.1401 38.8585C73.7854 38.8585 73.4716 38.7903 73.1987 38.6538C72.9258 38.5135 72.7153 38.3205 72.5672 38.075C72.4191 37.8294 72.345 37.5506 72.345 37.2388C72.345 36.9308 72.4171 36.6541 72.5614 36.4085C72.7095 36.159 72.9102 35.966 73.1636 35.8296C73.4209 35.6893 73.7074 35.6191 74.0232 35.6191C74.3311 35.6191 74.6099 35.6854 74.8593 35.8179C75.1088 35.9504 75.3037 36.1415 75.4441 36.3909C75.5883 36.6365 75.6604 36.923 75.6604 37.2505ZM74.029 36.3091C73.8224 36.3091 73.649 36.3675 73.5086 36.4845C73.3683 36.6014 73.2825 36.7613 73.2513 36.964H74.8009C74.7697 36.7652 74.6839 36.6073 74.5436 36.4903C74.4032 36.3695 74.2317 36.3091 74.029 36.3091ZM78.1798 35.6191C78.5696 35.6191 78.8834 35.736 79.1212 35.9699C79.3629 36.2038 79.4837 36.5508 79.4837 37.0107V38.8117H78.5715V37.1511C78.5715 36.9016 78.517 36.7164 78.4078 36.5956C78.2987 36.4708 78.1408 36.4085 77.9342 36.4085C77.7042 36.4085 77.521 36.4806 77.3845 36.6248C77.2481 36.7652 77.1799 36.9757 77.1799 37.2563V38.8117H76.2677V35.6659H77.1389V36.0343C77.2598 35.9017 77.4099 35.8004 77.5892 35.7302C77.7685 35.6561 77.9654 35.6191 78.1798 35.6191ZM83.4263 37.2505C83.4263 37.2622 83.4205 37.344 83.4088 37.4961H81.0289C81.0718 37.691 81.1732 37.845 81.333 37.958C81.4928 38.0711 81.6916 38.1276 81.9294 38.1276C82.0931 38.1276 82.2374 38.1042 82.3621 38.0574C82.4908 38.0067 82.6097 37.9288 82.7188 37.8235L83.2041 38.3498C82.9079 38.6889 82.4752 38.8585 81.906 38.8585C81.5513 38.8585 81.2375 38.7903 80.9646 38.6538C80.6917 38.5135 80.4812 38.3205 80.3331 38.075C80.185 37.8294 80.1109 37.5506 80.1109 37.2388C80.1109 36.9308 80.183 36.6541 80.3273 36.4085C80.4754 36.159 80.6762 35.966 80.9295 35.8296C81.1868 35.6893 81.4733 35.6191 81.7891 35.6191C82.097 35.6191 82.3758 35.6854 82.6252 35.8179C82.8747 35.9504 83.0696 36.1415 83.21 36.3909C83.3542 36.6365 83.4263 36.923 83.4263 37.2505ZM81.7949 36.3091C81.5883 36.3091 81.4149 36.3675 81.2745 36.4845C81.1342 36.6014 81.0484 36.7613 81.0172 36.964H82.5668C82.5356 36.7652 82.4498 36.6073 82.3095 36.4903C82.1692 36.3695 81.9976 36.3091 81.7949 36.3091ZM85.0335 35.736H85.8404V36.4377H85.0569V38.8117H84.1447V36.4377H83.6594V35.736H84.1447V35.5957C84.1447 35.2371 84.25 34.9525 84.4605 34.742C84.6749 34.5315 84.975 34.4263 85.3609 34.4263C85.4974 34.4263 85.626 34.4418 85.7469 34.473C85.8716 34.5003 85.9749 34.5412 86.0568 34.5958L85.817 35.2566C85.7118 35.1825 85.589 35.1455 85.4487 35.1455C85.1719 35.1455 85.0335 35.2975 85.0335 35.6016V35.736ZM86.7643 35.6659H87.6765V38.8117H86.7643V35.6659ZM87.2204 35.2273C87.0528 35.2273 86.9163 35.1786 86.8111 35.0811C86.7058 34.9837 86.6532 34.8628 86.6532 34.7186C86.6532 34.5744 86.7058 34.4535 86.8111 34.3561C86.9163 34.2586 87.0528 34.2099 87.2204 34.2099C87.388 34.2099 87.5244 34.2567 87.6297 34.3502C87.7349 34.4438 87.7876 34.5607 87.7876 34.7011C87.7876 34.8531 87.7349 34.9798 87.6297 35.0811C87.5244 35.1786 87.388 35.2273 87.2204 35.2273ZM90.5509 38.6597C90.4612 38.7259 90.3501 38.7766 90.2176 38.8117C90.0889 38.8429 89.9525 38.8585 89.8083 38.8585C89.434 38.8585 89.1436 38.763 88.937 38.572C88.7343 38.381 88.633 38.1003 88.633 37.73V36.4377H88.1476V35.736H88.633V34.97H89.5451V35.736H90.3287V36.4377H89.5451V37.7183C89.5451 37.8508 89.5783 37.9541 89.6445 38.0282C89.7147 38.0983 89.8122 38.1334 89.9369 38.1334C90.0811 38.1334 90.2039 38.0944 90.3053 38.0165L90.5509 38.6597ZM92.1213 38.8585C91.8601 38.8585 91.6048 38.8273 91.3553 38.7649C91.1058 38.6987 90.907 38.6168 90.7588 38.5193L91.0629 37.8644C91.2032 37.9541 91.3728 38.0282 91.5716 38.0866C91.7704 38.1412 91.9653 38.1685 92.1563 38.1685C92.5423 38.1685 92.7352 38.073 92.7352 37.882C92.7352 37.7923 92.6826 37.728 92.5774 37.689C92.4721 37.65 92.3103 37.6169 92.092 37.5896C91.8347 37.5506 91.6223 37.5058 91.4547 37.4551C91.2871 37.4045 91.1409 37.3148 91.0161 37.1862C90.8953 37.0575 90.8349 36.8743 90.8349 36.6365C90.8349 36.4377 90.8914 36.2623 91.0044 36.1103C91.1214 35.9543 91.289 35.8335 91.5073 35.7477C91.7295 35.662 91.9907 35.6191 92.2908 35.6191C92.513 35.6191 92.7333 35.6444 92.9516 35.6951C93.1738 35.7419 93.357 35.8082 93.5012 35.8939L93.1972 36.543C92.9204 36.387 92.6183 36.3091 92.2908 36.3091C92.0959 36.3091 91.9497 36.3364 91.8523 36.3909C91.7548 36.4455 91.7061 36.5157 91.7061 36.6014C91.7061 36.6989 91.7587 36.7671 91.864 36.8061C91.9692 36.8451 92.1369 36.8821 92.3668 36.9172C92.6241 36.9601 92.8346 37.0068 92.9984 37.0575C93.1621 37.1043 93.3044 37.192 93.4252 37.3207C93.546 37.4493 93.6065 37.6286 93.6065 37.8586C93.6065 38.0535 93.548 38.227 93.4311 38.379C93.3141 38.531 93.1426 38.6499 92.9165 38.7357C92.6943 38.8176 92.4292 38.8585 92.1213 38.8585ZM96.8251 35.736H97.632V36.4377H96.8485V38.8117H95.9363V36.4377H95.451V35.736H95.9363V35.5957C95.9363 35.2371 96.0416 34.9525 96.2521 34.742C96.4665 34.5315 96.7666 34.4263 97.1526 34.4263C97.289 34.4263 97.4176 34.4418 97.5385 34.473C97.6632 34.5003 97.7665 34.5412 97.8484 34.5958L97.6087 35.2566C97.5034 35.1825 97.3806 35.1455 97.2403 35.1455C96.9635 35.1455 96.8251 35.2975 96.8251 35.6016V35.736ZM99.5434 38.8585C99.2121 38.8585 98.9139 38.7903 98.6488 38.6538C98.3876 38.5135 98.183 38.3205 98.0348 38.075C97.8867 37.8294 97.8126 37.5506 97.8126 37.2388C97.8126 36.9269 97.8867 36.6482 98.0348 36.4026C98.183 36.157 98.3876 35.966 98.6488 35.8296C98.9139 35.6893 99.2121 35.6191 99.5434 35.6191C99.8748 35.6191 100.171 35.6893 100.432 35.8296C100.693 35.966 100.898 36.157 101.046 36.4026C101.194 36.6482 101.268 36.9269 101.268 37.2388C101.268 37.5506 101.194 37.8294 101.046 38.075C100.898 38.3205 100.693 38.5135 100.432 38.6538C100.171 38.7903 99.8748 38.8585 99.5434 38.8585ZM99.5434 38.11C99.7773 38.11 99.9683 38.0321 100.116 37.8761C100.268 37.7163 100.344 37.5039 100.344 37.2388C100.344 36.9737 100.268 36.7632 100.116 36.6073C99.9683 36.4475 99.7773 36.3675 99.5434 36.3675C99.3095 36.3675 99.1166 36.4475 98.9645 36.6073C98.8125 36.7632 98.7365 36.9737 98.7365 37.2388C98.7365 37.5039 98.8125 37.7163 98.9645 37.8761C99.1166 38.0321 99.3095 38.11 99.5434 38.11ZM102.749 36.081C102.858 35.929 103.005 35.814 103.188 35.736C103.375 35.6581 103.589 35.6191 103.831 35.6191V36.4611C103.73 36.4533 103.661 36.4494 103.626 36.4494C103.365 36.4494 103.161 36.5235 103.012 36.6716C102.864 36.8158 102.79 37.0341 102.79 37.3265V38.8117H101.878V35.6659H102.749V36.081ZM108.724 38.8117L107.935 37.6715H107.888H107.064V38.8117H106.117V34.7186H107.888C108.251 34.7186 108.565 34.779 108.83 34.8999C109.099 35.0207 109.305 35.1922 109.45 35.4144C109.594 35.6366 109.666 35.8998 109.666 36.2038C109.666 36.5079 109.592 36.771 109.444 36.9932C109.299 37.2115 109.093 37.3791 108.824 37.4961L109.742 38.8117H108.724ZM108.707 36.2038C108.707 35.9738 108.633 35.7984 108.485 35.6776C108.337 35.5528 108.12 35.4905 107.836 35.4905H107.064V36.9172H107.836C108.12 36.9172 108.337 36.8548 108.485 36.7301C108.633 36.6053 108.707 36.4299 108.707 36.2038ZM113.434 37.2505C113.434 37.2622 113.428 37.344 113.416 37.4961H111.036C111.079 37.691 111.18 37.845 111.34 37.958C111.5 38.0711 111.699 38.1276 111.937 38.1276C112.1 38.1276 112.245 38.1042 112.369 38.0574C112.498 38.0067 112.617 37.9288 112.726 37.8235L113.211 38.3498C112.915 38.6889 112.482 38.8585 111.913 38.8585C111.559 38.8585 111.245 38.7903 110.972 38.6538C110.699 38.5135 110.488 38.3205 110.34 38.075C110.192 37.8294 110.118 37.5506 110.118 37.2388C110.118 36.9308 110.19 36.6541 110.335 36.4085C110.483 36.159 110.683 35.966 110.937 35.8296C111.194 35.6893 111.481 35.6191 111.796 35.6191C112.104 35.6191 112.383 35.6854 112.632 35.8179C112.882 35.9504 113.077 36.1415 113.217 36.3909C113.361 36.6365 113.434 36.923 113.434 37.2505ZM111.802 36.3091C111.596 36.3091 111.422 36.3675 111.282 36.4845C111.141 36.6014 111.056 36.7613 111.024 36.964H112.574C112.543 36.7652 112.457 36.6073 112.317 36.4903C112.176 36.3695 112.005 36.3091 111.802 36.3091ZM115.224 35.6191C115.711 35.6191 116.086 35.736 116.347 35.9699C116.608 36.1999 116.739 36.5488 116.739 37.0166V38.8117H115.885V38.4199C115.713 38.7123 115.394 38.8585 114.926 38.8585C114.684 38.8585 114.474 38.8176 114.294 38.7357C114.119 38.6538 113.984 38.5408 113.891 38.3966C113.797 38.2523 113.751 38.0886 113.751 37.9054C113.751 37.613 113.86 37.383 114.078 37.2154C114.3 37.0478 114.641 36.964 115.101 36.964H115.826C115.826 36.7652 115.766 36.6131 115.645 36.5079C115.524 36.3987 115.343 36.3442 115.101 36.3442C114.934 36.3442 114.768 36.3714 114.604 36.426C114.444 36.4767 114.308 36.5469 114.195 36.6365L113.867 35.9992C114.039 35.8783 114.244 35.7848 114.481 35.7185C114.723 35.6522 114.971 35.6191 115.224 35.6191ZM115.154 38.2445C115.31 38.2445 115.448 38.2094 115.569 38.1393C115.69 38.0652 115.776 37.958 115.826 37.8177V37.4961H115.201C114.826 37.4961 114.639 37.6189 114.639 37.8644C114.639 37.9814 114.684 38.075 114.774 38.1451C114.867 38.2114 114.994 38.2445 115.154 38.2445ZM117.564 34.473H118.476V38.8117H117.564V34.473ZM121.043 34.7186H121.99V38.0399H124.043V38.8117H121.043V34.7186ZM124.508 35.6659H125.42V38.8117H124.508V35.6659ZM124.964 35.2273C124.796 35.2273 124.66 35.1786 124.554 35.0811C124.449 34.9837 124.397 34.8628 124.397 34.7186C124.397 34.5744 124.449 34.4535 124.554 34.3561C124.66 34.2586 124.796 34.2099 124.964 34.2099C125.131 34.2099 125.268 34.2567 125.373 34.3502C125.478 34.4438 125.531 34.5607 125.531 34.7011C125.531 34.8531 125.478 34.9798 125.373 35.0811C125.268 35.1786 125.131 35.2273 124.964 35.2273ZM127.266 35.736H128.073V36.4377H127.29V38.8117H126.378V36.4377H125.892V35.736H126.378V35.5957C126.378 35.2371 126.483 34.9525 126.693 34.742C126.908 34.5315 127.208 34.4263 127.594 34.4263C127.73 34.4263 127.859 34.4418 127.98 34.473C128.104 34.5003 128.208 34.5412 128.29 34.5958L128.05 35.2566C127.945 35.1825 127.822 35.1455 127.681 35.1455C127.405 35.1455 127.266 35.2975 127.266 35.6016V35.736ZM131.569 37.2505C131.569 37.2622 131.563 37.344 131.552 37.4961H129.172C129.215 37.691 129.316 37.845 129.476 37.958C129.636 38.0711 129.835 38.1276 130.072 38.1276C130.236 38.1276 130.38 38.1042 130.505 38.0574C130.634 38.0067 130.753 37.9288 130.862 37.8235L131.347 38.3498C131.051 38.6889 130.618 38.8585 130.049 38.8585C129.694 38.8585 129.38 38.7903 129.108 38.6538C128.835 38.5135 128.624 38.3205 128.476 38.075C128.328 37.8294 128.254 37.5506 128.254 37.2388C128.254 36.9308 128.326 36.6541 128.47 36.4085C128.618 36.159 128.819 35.966 129.072 35.8296C129.33 35.6893 129.616 35.6191 129.932 35.6191C130.24 35.6191 130.519 35.6854 130.768 35.8179C131.018 35.9504 131.213 36.1415 131.353 36.3909C131.497 36.6365 131.569 36.923 131.569 37.2505ZM129.938 36.3091C129.731 36.3091 129.558 36.3675 129.417 36.4845C129.277 36.6014 129.191 36.7613 129.16 36.964H130.71C130.679 36.7652 130.593 36.6073 130.452 36.4903C130.312 36.3695 130.141 36.3091 129.938 36.3091ZM132.522 38.8585C132.362 38.8585 132.227 38.8039 132.118 38.6948C132.009 38.5856 131.954 38.4492 131.954 38.2855C131.954 38.1178 132.009 37.9833 132.118 37.882C132.227 37.7767 132.362 37.7241 132.522 37.7241C132.681 37.7241 132.816 37.7767 132.925 37.882C133.034 37.9833 133.089 38.1178 133.089 38.2855C133.089 38.4492 133.034 38.5856 132.925 38.6948C132.816 38.8039 132.681 38.8585 132.522 38.8585Z" fill="#093C71"/>
</svg>
